SplineFontDB: 3.0
FontName: Renner-it-BoldItalic
FullName: Renner* Bold Italic
FamilyName: Renner*
Weight: Bold
Copyright: Copyright (c) 2018, Owen Earl,,,
UComments: "2018-6-8: Created with FontForge (http://fontforge.org)"
Version: 003.000
ItalicAngle: -10
UnderlinePosition: -100
UnderlineWidth: 50
Ascent: 800
Descent: 200
InvalidEm: 0
LayerCount: 2
Layer: 0 0 "Back" 1
Layer: 1 0 "Fore" 0
XUID: [1021 69 1495626776 12280187]
FSType: 0
OS2Version: 0
OS2_WeightWidthSlopeOnly: 0
OS2_UseTypoMetrics: 0
CreationTime: 1528476916
ModificationTime: 1528558385
PfmFamily: 17
TTFWeight: 700
TTFWidth: 5
LineGap: 100
VLineGap: 0
OS2TypoAscent: 825
OS2TypoAOffset: 0
OS2TypoDescent: -225
OS2TypoDOffset: 0
OS2TypoLinegap: 100
OS2WinAscent: 900
OS2WinAOffset: 0
OS2WinDescent: 300
OS2WinDOffset: 0
HheadAscent: 1030
HheadAOffset: 0
HheadDescent: -350
HheadDOffset: 0
OS2CapHeight: 700
OS2XHeight: 460
OS2Vendor: 'PfEd'
Lookup: 1 0 0 "Tabular Numbers lookup" { "Tabular Numbers lookup"  } ['tnum' ('DFLT' <'dflt' > 'grek' <'dflt' > 'latn' <'dflt' > ) ]
Lookup: 1 0 0 "alt a" { "alt a"  } ['ss01' ('DFLT' <'dflt' > 'latn' <'dflt' > ) ]
Lookup: 258 0 0 "Lets get our kern on" { "kernin like nobodys business" [150,0,4] } ['kern' ('DFLT' <'dflt' > 'latn' <'dflt' > ) ]
MarkAttachClasses: 1
DEI: 91125
KernClass2: 16 14 "kernin like nobodys business"
 15 slash seven V W
 175 quotedbl quotesingle asterisk grave dieresis ordfeminine macron degree acute ordmasculine circumflex breve dotaccent ring tilde quoteleft quoteright quotedblleft quotedblright
 17 nine question F P
 107 A L backslash Agrave Aacute Acircumflex Atilde Adieresis Aring Amacron Abreve Aogonek Lacute uni013B Lslash
 26 three eight B C germandbls
 5 K X Z
 125 at D G O Ograve Oacute Ocircumflex Otilde Odieresis Oslash Dcaron Dcroat Gcircumflex Gbreve Gdotaccent uni0122 Omacron Obreve

StartChar: H
Encoding: 72 72 0
Width: 786
VWidth: 0
Flags: HW
LayerCount: 2
Fore
SplineSet
172 293 m 1
 198 445 l 1
 728 445 l 1
 702 293 l 1
 172 293 l 1
667 700 m 1
 836 700 l 1
 713 0 l 1
 544 0 l 1
 667 700 l 1
197 700 m 1
 366 700 l 1
 243 0 l 1
 74 0 l 1
 197 700 l 1
EndSplineSet
EndChar

StartChar: O
Encoding: 79 79 1
Width: 821
VWidth: 0
Flags: HW
LayerCount: 2
Fore
SplineSet
275 350 m 0
 253 226 317 140 435 140 c 0
 553 140 648 226 670 350 c 0
 692 474 631 560 509 560 c 0
 391 560 297 474 275 350 c 0
96 350 m 0
 134 566 322 716 536 716 c 0
 752 716 888 566 850 350 c 0
 812 134 626 -22 406 -22 c 0
 186 -22 58 134 96 350 c 0
EndSplineSet
EndChar

StartChar: I
Encoding: 73 73 2
Width: 320
VWidth: 0
Flags: HW
LayerCount: 2
Fore
SplineSet
197 700 m 1
 369 700 l 1
 246 0 l 1
 74 0 l 1
 197 700 l 1
EndSplineSet
EndChar

StartChar: C
Encoding: 67 67 3
Width: 700
VWidth: 0
Flags: HW
LayerCount: 2
Fore
SplineSet
281 350 m 0
 258 222 341 145 454 145 c 0
 553 145 624 188 679 238 c 1
 647 54 l 1
 583 11 517 -16 415 -16 c 0
 190 -16 58 132 96 350 c 0
 134 568 319 716 544 716 c 0
 646 716 703 689 751 646 c 1
 718 462 l 1
 681 512 625 555 526 555 c 0
 413 555 304 478 281 350 c 0
EndSplineSet
EndChar

StartChar: E
Encoding: 69 69 4
Width: 603
VWidth: 0
Flags: HW
LayerCount: 2
Fore
SplineSet
186 0 m 1
 211 140 l 1
 565 140 l 1
 540 0 l 1
 186 0 l 1
285 560 m 1
 309 700 l 1
 663 700 l 1
 639 560 l 1
 285 560 l 1
239 300 m 1
 263 436 l 1
 597 436 l 1
 573 300 l 1
 239 300 l 1
197 700 m 1
 360 700 l 1
 237 0 l 1
 74 0 l 1
 197 700 l 1
EndSplineSet
EndChar

StartChar: F
Encoding: 70 70 6
Width: 553
VWidth: 0
Flags: HW
LayerCount: 2
Fore
SplineSet
284 554 m 1
 309 700 l 1
 623 700 l 1
 598 554 l 1
 284 554 l 1
235 280 m 1
 260 417 l 1
 564 417 l 1
 539 280 l 1
 235 280 l 1
197 700 m 1
 360 700 l 1
 237 0 l 1
 74 0 l 1
 197 700 l 1
EndSplineSet
EndChar

StartChar: G
Encoding: 71 71 7
Width: 814
VWidth: 0
Flags: HW
LayerCount: 2
Fore
SplineSet
465 253 m 1
 488 383 l 1
 843 383 l 1
 731 253 l 1
 465 253 l 1
843 383 m 1
 816 161 652 -22 413 -22 c 0
 190 -22 57 128 96 350 c 0
 135 572 326 716 549 716 c 0
 697 716 787 647 836 550 c 1
 671 472 l 1
 649 527 605 568 523 568 c 0
 406 568 297 488 273 350 c 0
 249 212 322 125 445 125 c 0
 601 125 667 245 691 380 c 1
 843 383 l 1
EndSplineSet
EndChar

StartChar: T
Encoding: 84 84 8
Width: 561
VWidth: 0
Flags: HW
LayerCount: 2
Fore
SplineSet
101 548 m 1
 127 700 l 1
 681 700 l 1
 655 548 l 1
 463 548 l 1
 366 0 l 1
 196 0 l 1
 293 548 l 1
 101 548 l 1
EndSplineSet
EndChar

StartChar: L
Encoding: 76 76 9
Width: 528
VWidth: 0
Flags: HW
LayerCount: 2
Fore
SplineSet
186 0 m 1
 212 146 l 1
 550 146 l 1
 524 0 l 1
 186 0 l 1
197 700 m 1
 366 700 l 1
 243 0 l 1
 74 0 l 1
 197 700 l 1
EndSplineSet
EndChar

StartChar: D
Encoding: 68 68 10
Width: 733
VWidth: 0
Flags: HW
LayerCount: 2
Fore
SplineSet
283 550 m 1
 309 700 l 1
 447 700 l 2
 676 700 800 566 762 350 c 1
 586 350 l 1
 612 500 523 550 415 550 c 2
 283 550 l 1
324 0 m 2
 186 0 l 1
 212 150 l 1
 344 150 l 2
 452 150 560 200 586 350 c 1
 762 350 l 1
 724 134 553 0 324 0 c 2
197 700 m 1
 371 700 l 1
 248 0 l 1
 74 0 l 1
 197 700 l 1
EndSplineSet
EndChar

StartChar: Q
Encoding: 81 81 11
Width: 863
VWidth: 0
Flags: HW
LayerCount: 2
Fore
SplineSet
275 350 m 0
 251 214 330 127 448 127 c 0
 566 127 663 207 685 331 c 0
 707 455 647 560 513 560 c 0
 395 560 297 474 275 350 c 0
96 350 m 0
 134 566 326 716 540 716 c 0
 756 716 888 566 850 350 c 0
 812 134 630 -22 410 -22 c 0
 190 -22 58 134 96 350 c 0
409 300 m 1
 585 300 l 1
 868 -12 l 1
 686 -12 l 1
 409 300 l 1
EndSplineSet
EndChar

StartChar: A
Encoding: 65 65 12
Width: 735
VWidth: 0
Flags: HW
LayerCount: 2
Fore
SplineSet
208 135 m 1
 243 264 l 1
 591 264 l 1
 578 135 l 1
 208 135 l 1
446 442 m 1
 308 217 l 1
 309 179 l 1
 190 0 l 1
 -2 0 l 1
 499 744 l 1
 736 0 l 1
 544 0 l 1
 490 172 l 1
 504 216 l 1
 446 442 l 1
EndSplineSet
EndChar

StartChar: R
Encoding: 82 82 13
Width: 647
VWidth: 0
Flags: HW
LayerCount: 2
Fore
SplineSet
304 317 m 1
 481 317 l 1
 644 0 l 1
 445 0 l 1
 304 317 l 1
197 700 m 1
 366 700 l 1
 243 0 l 1
 74 0 l 1
 197 700 l 1
278 556 m 1
 303 700 l 1
 453 700 l 2
 631 700 709 607 685 471 c 0
 661 335 551 242 373 242 c 2
 223 242 l 1
 246 374 l 1
 383 374 l 2
 451 374 498 407 508 465 c 0
 518 523 483 556 415 556 c 2
 278 556 l 1
EndSplineSet
EndChar

StartChar: V
Encoding: 86 86 14
Width: 735
VWidth: 0
Flags: HW
LayerCount: 2
Fore
SplineSet
418 283 m 1
 661 700 l 1
 859 700 l 1
 360 -44 l 1
 121 700 l 1
 320 700 l 1
 418 283 l 1
EndSplineSet
EndChar

StartChar: M
Encoding: 77 77 15
Width: 891
VWidth: 0
Flags: HW
LayerCount: 2
Fore
SplineSet
706 486 m 1
 874 735 l 1
 858 0 l 1
 678 0 l 1
 706 486 l 1
277 735 m 1
 356 486 l 1
 212 0 l 1
 34 0 l 1
 277 735 l 1
874 735 m 1
 834 510 l 1
 457 65 l 1
 237 510 l 1
 277 735 l 1
 500 308 l 1
 874 735 l 1
EndSplineSet
EndChar

StartChar: W
Encoding: 87 87 16
Width: 1065
VWidth: 0
Flags: HW
LayerCount: 2
Fore
SplineSet
401 159 m 1
 300 -42 l 1
 127 700 l 1
 328 700 l 1
 401 159 l 1
751 -42 m 1
 720 159 l 1
 983 700 l 1
 1184 700 l 1
 751 -42 l 1
300 -42 m 1
 315 177 l 1
 662 735 l 1
 811 177 l 1
 751 -42 l 1
 599 380 l 1
 300 -42 l 1
EndSplineSet
EndChar

StartChar: N
Encoding: 78 78 17
Width: 793
VWidth: 0
Flags: HW
LayerCount: 2
Fore
SplineSet
170 524 m 1
 204 735 l 1
 746 176 l 1
 714 -35 l 1
 170 524 l 1
680 700 m 1
 843 700 l 1
 714 -35 l 1
 583 150 l 1
 680 700 l 1
204 735 m 1
 334 550 l 1
 237 0 l 1
 74 0 l 1
 204 735 l 1
EndSplineSet
EndChar

StartChar: a
Encoding: 97 97 18
Width: 544
VWidth: 0
Flags: HW
LayerCount: 2
Fore
SplineSet
200 138 m 0
 194 104 218 89 258 89 c 0
 313 89 365 112 378 186 c 1
 384 130 l 1
 368 41 284 -10 189 -10 c 0
 87 -10 32 41 47 128 c 0
 64 222 154 279 272 279 c 0
 341 279 403 252 419 230 c 1
 406 158 l 1
 377 184 345 197 293 197 c 0
 241 197 206 174 200 138 c 0
174 318 m 1
 140 420 l 1
 197 445 276 473 359 473 c 0
 483 473 564 420 547 324 c 2
 490 0 l 1
 345 0 l 1
 397 294 l 2
 404 333 377 358 327 358 c 0
 261 358 198 331 174 318 c 1
EndSplineSet
Substitution2: "alt a" a.alt
EndChar

StartChar: X
Encoding: 88 88 19
Width: 686
VWidth: 0
Flags: HW
LayerCount: 2
Fore
SplineSet
581 700 m 1
 791 700 l 1
 511 359 l 1
 682 0 l 1
 473 0 l 1
 386 232 l 1
 213 0 l 1
 4 0 l 1
 307 359 l 1
 151 700 l 1
 361 700 l 1
 434 498 l 1
 581 700 l 1
EndSplineSet
EndChar

StartChar: K
Encoding: 75 75 20
Width: 700
VWidth: 0
Flags: HW
LayerCount: 2
Fore
SplineSet
197 700 m 1
 373 700 l 1
 250 0 l 1
 74 0 l 1
 197 700 l 1
610 700 m 1
 809 700 l 1
 468 372 l 1
 701 0 l 1
 496 0 l 1
 265 367 l 1
 610 700 l 1
EndSplineSet
EndChar

StartChar: Y
Encoding: 89 89 21
Width: 660
VWidth: 0
Flags: HW
LayerCount: 2
Fore
SplineSet
307 360 m 1
 479 360 l 1
 416 0 l 1
 244 0 l 1
 307 360 l 1
589 700 m 1
 785 700 l 1
 354 138 l 1
 121 700 l 1
 317 700 l 1
 407 437 l 1
 589 700 l 1
EndSplineSet
EndChar

StartChar: B
Encoding: 66 66 22
Width: 664
VWidth: 0
Flags: HW
LayerCount: 2
Fore
SplineSet
262 396 m 1
 418 396 l 2
 553 396 680 339 655 197 c 0
 630 58 514 0 348 0 c 2
 192 0 l 1
 215 132 l 1
 353 132 l 2
 418 132 472 153 484 220 c 0
 495 281 449 304 384 304 c 2
 246 304 l 1
 262 396 l 1
253 348 m 1
 266 422 l 1
 387 422 l 2
 445 422 485 450 493 497 c 0
 501 544 471 568 413 568 c 2
 292 568 l 1
 315 700 l 1
 455 700 l 2
 599 700 693 641 672 522 c 0
 652 410 537 348 393 348 c 2
 253 348 l 1
197 700 m 1
 366 700 l 1
 243 0 l 1
 74 0 l 1
 197 700 l 1
EndSplineSet
EndChar

StartChar: Z
Encoding: 90 90 23
Width: 620
VWidth: 0
Flags: HW
LayerCount: 2
Fore
SplineSet
154 548 m 1
 180 700 l 1
 729 700 l 1
 300 146 l 1
 596 146 l 1
 570 0 l 1
 8 0 l 1
 433 548 l 1
 154 548 l 1
EndSplineSet
EndChar

StartChar: o
Encoding: 111 111 24
Width: 589
VWidth: 0
Flags: HW
LayerCount: 2
Fore
SplineSet
73 230 m 0
 99 376 228 470 378 470 c 0
 528 470 625 376 599 230 c 0
 573 84 443 -10 293 -10 c 0
 143 -10 47 84 73 230 c 0
229 230 m 0
 216 159 256 115 315 115 c 0
 374 115 430 159 443 230 c 0
 456 301 415 346 356 346 c 0
 297 346 242 301 229 230 c 0
EndSplineSet
EndChar

StartChar: J
Encoding: 74 74 25
Width: 330
VWidth: 0
Flags: HW
LayerCount: 2
Fore
SplineSet
-82 -58 m 1
 -65 -76 -37 -91 -7 -91 c 0
 23 -91 61 -70 72 -10 c 2
 197 700 l 1
 380 700 l 1
 247 -54 l 2
 223 -188 109 -239 -16 -239 c 0
 -94 -239 -161 -208 -196 -182 c 1
 -82 -58 l 1
EndSplineSet
EndChar

StartChar: t
Encoding: 116 116 26
Width: 318
VWidth: 0
Flags: HW
LayerCount: 2
Fore
SplineSet
86 460 m 1
 394 460 l 1
 372 335 l 1
 64 335 l 1
 86 460 l 1
195 620 m 1
 341 620 l 1
 232 0 l 1
 86 0 l 1
 195 620 l 1
EndSplineSet
EndChar

StartChar: d
Encoding: 100 100 27
Width: 616
VWidth: 0
Flags: HW
LayerCount: 2
Fore
SplineSet
546 780 m 1
 698 780 l 1
 560 0 l 1
 408 0 l 1
 546 780 l 1
73 230 m 0
 101 386 221 470 333 470 c 0
 448 470 517 379 491 230 c 0
 465 81 363 -10 248 -10 c 0
 136 -10 45 74 73 230 c 0
232 230 m 0
 219 158 261 112 321 112 c 0
 372 112 436 155 449 230 c 0
 462 305 413 348 362 348 c 0
 302 348 245 302 232 230 c 0
EndSplineSet
EndChar

StartChar: l
Encoding: 108 108 28
Width: 270
VWidth: 0
Flags: HW
LayerCount: 2
Fore
SplineSet
198 780 m 1
 350 780 l 1
 212 0 l 1
 60 0 l 1
 198 780 l 1
EndSplineSet
EndChar

StartChar: i
Encoding: 105 105 29
Width: 276
VWidth: 0
Flags: HW
LayerCount: 2
Fore
SplineSet
161 632 m 0
 169 680 215 714 264 714 c 0
 313 714 345 680 337 632 c 0
 329 584 284 550 235 550 c 0
 186 550 153 584 161 632 c 0
145 460 m 1
 292 460 l 1
 211 0 l 1
 64 0 l 1
 145 460 l 1
EndSplineSet
EndChar

StartChar: r
Encoding: 114 114 30
Width: 411
VWidth: 0
Flags: HW
LayerCount: 2
Fore
SplineSet
289 460 m 1
 208 0 l 1
 60 0 l 1
 141 460 l 1
 289 460 l 1
394 303 m 1
 381 319 366 330 340 330 c 0
 296 330 260 293 248 227 c 1
 221 280 l 1
 240 389 329 471 407 471 c 0
 440 471 471 456 483 433 c 1
 394 303 l 1
EndSplineSet
EndChar

StartChar: c
Encoding: 99 99 31
Width: 493
VWidth: 0
Flags: HW
LayerCount: 2
Fore
SplineSet
227 230 m 0
 214 156 259 110 327 110 c 0
 382 110 440 135 476 179 c 1
 450 32 l 1
 413 6 364 -10 294 -10 c 0
 140 -10 45 84 71 230 c 0
 97 376 225 470 379 470 c 0
 449 470 492 452 520 430 c 1
 494 282 l 1
 474 326 419 350 370 350 c 0
 302 350 239 298 227 230 c 0
EndSplineSet
EndChar

StartChar: b
Encoding: 98 98 32
Width: 616
VWidth: 0
Flags: HW
LayerCount: 2
Fore
SplineSet
348 780 m 1
 210 0 l 1
 58 0 l 1
 196 780 l 1
 348 780 l 1
626 230 m 0
 598 74 476 -10 364 -10 c 0
 249 -10 182 81 208 230 c 0
 234 379 334 470 449 470 c 0
 561 470 654 386 626 230 c 0
467 230 m 0
 480 302 437 348 377 348 c 0
 326 348 264 305 251 230 c 0
 238 155 285 112 336 112 c 0
 396 112 454 158 467 230 c 0
EndSplineSet
EndChar

StartChar: p
Encoding: 112 112 33
Width: 616
VWidth: 0
Flags: HW
LayerCount: 2
Fore
SplineSet
171 -220 m 1
 19 -220 l 1
 139 460 l 1
 291 460 l 1
 171 -220 l 1
626 230 m 0
 597 68 475 -16 363 -16 c 0
 241 -16 189 81 215 230 c 0
 241 379 328 476 450 476 c 0
 562 476 655 392 626 230 c 0
467 230 m 0
 480 302 436 342 376 342 c 0
 325 342 264 305 251 230 c 0
 238 155 286 118 337 118 c 0
 397 118 454 158 467 230 c 0
EndSplineSet
EndChar

StartChar: q
Encoding: 113 113 34
Width: 616
VWidth: 0
Flags: HW
LayerCount: 2
Fore
SplineSet
369 -220 m 1
 489 460 l 1
 641 460 l 1
 521 -220 l 1
 369 -220 l 1
73 230 m 0
 102 392 222 476 334 476 c 0
 456 476 511 379 485 230 c 0
 459 81 369 -16 247 -16 c 0
 135 -16 44 68 73 230 c 0
232 230 m 0
 219 158 262 118 322 118 c 0
 373 118 436 155 449 230 c 0
 462 305 412 342 361 342 c 0
 301 342 245 302 232 230 c 0
EndSplineSet
EndChar

StartChar: h
Encoding: 104 104 35
Width: 568
VWidth: 0
Flags: HW
LayerCount: 2
Fore
SplineSet
350 780 m 1
 212 0 l 1
 60 0 l 1
 198 780 l 1
 350 780 l 1
407 280 m 2
 417 334 405 364 355 364 c 0
 307 364 271 334 261 280 c 1
 235 280 l 1
 254 389 322 477 436 477 c 0
 550 477 583 414 563 302 c 2
 510 0 l 1
 358 0 l 1
 407 280 l 2
EndSplineSet
EndChar

StartChar: n
Encoding: 110 110 36
Width: 575
VWidth: 0
Flags: HW
LayerCount: 2
Fore
SplineSet
293 460 m 1
 212 0 l 1
 60 0 l 1
 141 460 l 1
 293 460 l 1
407 280 m 2
 417 334 405 364 355 364 c 0
 307 364 271 334 261 280 c 1
 234 274 l 1
 253 383 321 470 435 470 c 0
 549 470 588 408 568 296 c 2
 516 0 l 1
 358 0 l 1
 407 280 l 2
EndSplineSet
EndChar

StartChar: m
Encoding: 109 109 37
Width: 820
VWidth: 0
Flags: HW
LayerCount: 2
Fore
SplineSet
380 280 m 2
 390 334 379 364 336 364 c 0
 294 364 264 334 254 280 c 1
 227 274 l 1
 246 383 313 470 421 470 c 0
 529 470 556 414 536 302 c 2
 483 0 l 1
 331 0 l 1
 380 280 l 2
286 460 m 1
 205 0 l 1
 60 0 l 1
 141 460 l 1
 286 460 l 1
814 296 m 2
 762 0 l 1
 610 0 l 1
 659 280 l 2
 669 334 657 364 614 364 c 0
 572 364 542 334 532 280 c 1
 480 274 l 1
 499 383 591 470 699 470 c 0
 807 470 834 408 814 296 c 2
EndSplineSet
EndChar

StartChar: k
Encoding: 107 107 38
Width: 577
VWidth: 0
Flags: HW
LayerCount: 2
Fore
SplineSet
196 780 m 1
 341 780 l 1
 203 0 l 1
 58 0 l 1
 196 780 l 1
451 460 m 1
 632 460 l 1
 402 270 l 1
 571 0 l 1
 393 0 l 1
 222 270 l 1
 451 460 l 1
EndSplineSet
EndChar

StartChar: u
Encoding: 117 117 39
Width: 575
VWidth: 0
Flags: HW
LayerCount: 2
Fore
SplineSet
364 0 m 1
 445 460 l 1
 597 460 l 1
 516 0 l 1
 364 0 l 1
250 180 m 2
 240 126 251 96 301 96 c 0
 349 96 386 126 396 180 c 1
 423 186 l 1
 404 77 336 -10 222 -10 c 0
 108 -10 69 52 89 164 c 2
 141 460 l 1
 299 460 l 1
 250 180 l 2
EndSplineSet
EndChar

StartChar: e
Encoding: 101 101 40
Width: 563
VWidth: 0
Flags: HW
LayerCount: 2
Fore
SplineSet
131 198 m 1
 147 287 l 1
 558 287 l 1
 558 198 l 1
 131 198 l 1
433 244 m 2
 446 318 421 359 351 359 c 0
 285 359 234 322 222 254 c 1
 216 230 l 1
 201 146 251 105 320 105 c 4
 364 105 394 121 418 158 c 1
 536 116 l 1
 487 44 414 -10 292 -10 c 4
 144 -10 53 91 78 230 c 0
 81 247 86 265 92 281 c 0
 131 394 244 470 374 470 c 0
 505 470 593 382 567 237 c 0
 566 229 563 214 558 198 c 1
 428 218 l 1
 433 244 l 2
EndSplineSet
EndChar

StartChar: g
Encoding: 103 103 41
Width: 610
VWidth: 0
Flags: HW
LayerCount: 2
Fore
SplineSet
36 -33 m 1
 182 -33 l 1
 177 -89 213 -118 272 -118 c 0
 336 -118 395 -75 410 10 c 2
 489 460 l 1
 634 460 l 1
 555 10 l 2
 524 -168 398 -240 258 -240 c 0
 86 -240 25 -155 36 -33 c 1
74 236 m 0
 102 392 221 470 333 470 c 0
 448 470 518 385 492 236 c 0
 466 87 365 2 250 2 c 0
 138 2 46 80 74 236 c 0
233 236 m 0
 220 164 263 124 323 124 c 0
 374 124 437 161 450 236 c 0
 463 311 413 348 362 348 c 0
 302 348 246 308 233 236 c 0
EndSplineSet
EndChar

StartChar: f
Encoding: 102 102 42
Width: 344
VWidth: 0
Flags: HW
LayerCount: 2
Fore
SplineSet
99 460 m 1
 413 460 l 1
 391 335 l 1
 77 335 l 1
 99 460 l 1
428 634 m 1
 417 652 404 660 386 660 c 0
 356 660 334 639 326 592 c 2
 222 0 l 1
 76 0 l 1
 187 630 l 2
 205 732 274 796 389 796 c 0
 457 796 490 766 508 746 c 1
 428 634 l 1
EndSplineSet
EndChar

StartChar: s
Encoding: 115 115 43
Width: 456
VWidth: 0
Flags: HW
LayerCount: 2
Fore
SplineSet
149 174 m 1
 178 124 220 96 252 96 c 0
 279 96 299 105 303 128 c 0
 309 162 243 173 193 197 c 0
 138 225 96 256 110 336 c 4
 126 424 209 470 308 470 c 0
 408 470 463 418 492 360 c 1
 395 294 l 1
 370 334 326 365 289 365 c 0
 267 365 250 355 246 335 c 0
 239 298 300 292 354 270 c 0
 415 245 469 210 455 130 c 0
 436 24 343 -20 231 -20 c 0
 153 -20 92 9 43 105 c 1
 149 174 l 1
EndSplineSet
EndChar

StartChar: y
Encoding: 121 121 44
Width: 521
VWidth: 0
Flags: HW
LayerCount: 2
Fore
SplineSet
611 460 m 1
 191 -220 l 1
 39 -220 l 1
 197 37 l 1
 71 460 l 1
 239 460 l 1
 322 90 l 1
 244 92 l 1
 456 460 l 1
 611 460 l 1
EndSplineSet
EndChar

StartChar: w
Encoding: 119 119 45
Width: 761
VWidth: 0
Flags: HW
LayerCount: 2
Fore
SplineSet
691 460 m 1
 849 460 l 1
 527 -28 l 1
 526 176 l 1
 691 460 l 1
401 300 m 1
 465 495 l 1
 574 164 l 1
 527 -28 l 1
 401 300 l 1
465 495 m 1
 461 300 l 1
 225 -28 l 1
 245 164 l 1
 465 495 l 1
73 460 m 1
 233 460 l 1
 297 176 l 1
 225 -28 l 1
 73 460 l 1
EndSplineSet
EndChar

StartChar: v
Encoding: 118 118 46
Width: 527
VWidth: 0
Flags: HW
LayerCount: 2
Fore
SplineSet
78 460 m 1
 240 460 l 1
 300 205 l 1
 450 460 l 1
 611 460 l 1
 254 -54 l 1
 78 460 l 1
EndSplineSet
EndChar

StartChar: x
Encoding: 120 120 47
Width: 532
VWidth: 0
Flags: HW
LayerCount: 2
Fore
SplineSet
435 460 m 1
 603 460 l 1
 388 236 l 1
 532 0 l 1
 364 0 l 1
 293 134 l 1
 174 0 l 1
 0 0 l 1
 231 236 l 1
 91 460 l 1
 265 460 l 1
 329 340 l 1
 435 460 l 1
EndSplineSet
EndChar

StartChar: z
Encoding: 122 122 48
Width: 522
VWidth: 0
Flags: HW
LayerCount: 2
Fore
SplineSet
313 322 m 1
 115 322 l 1
 139 460 l 1
 589 460 l 1
 302 138 l 1
 499 138 l 1
 475 0 l 1
 15 0 l 1
 313 322 l 1
EndSplineSet
EndChar

StartChar: j
Encoding: 106 106 49
Width: 271
VWidth: 0
Flags: HW
LayerCount: 2
Fore
SplineSet
157 632 m 0
 165 680 211 714 260 714 c 0
 309 714 341 680 333 632 c 0
 325 584 280 550 231 550 c 0
 182 550 149 584 157 632 c 0
-48 -77 m 1
 -37 -95 -23 -102 -5 -102 c 0
 25 -102 47 -81 55 -34 c 2
 142 460 l 1
 288 460 l 1
 194 -72 l 2
 176 -174 107 -239 -8 -239 c 0
 -76 -239 -109 -208 -127 -188 c 1
 -48 -77 l 1
EndSplineSet
EndChar

StartChar: P
Encoding: 80 80 50
Width: 623
VWidth: 0
Flags: HW
LayerCount: 2
Fore
SplineSet
197 700 m 1
 366 700 l 1
 243 0 l 1
 74 0 l 1
 197 700 l 1
279 560 m 1
 303 700 l 1
 440 700 l 2
 618 700 697 613 672 471 c 0
 647 329 538 242 360 242 c 2
 223 242 l 1
 247 382 l 1
 384 382 l 2
 452 382 499 413 509 471 c 0
 519 529 484 560 416 560 c 2
 279 560 l 1
EndSplineSet
EndChar

StartChar: U
Encoding: 85 85 51
Width: 701
VWidth: 0
Flags: HW
LayerCount: 2
Fore
SplineSet
191 700 m 1
 361 700 l 1
 281 242 l 2
 268 171 297 123 372 123 c 0
 447 123 493 171 506 242 c 2
 586 700 l 1
 755 700 l 1
 673 230 l 2
 642 54 503 -29 345 -29 c 0
 187 -29 78 54 109 230 c 2
 191 700 l 1
EndSplineSet
EndChar

StartChar: S
Encoding: 83 83 52
Width: 625
VWidth: 0
Flags: HW
LayerCount: 2
Fore
SplineSet
197 251 m 1
 230 167 271 125 345 125 c 0
 400 125 434 148 442 193 c 0
 452 252 391 270 317 302 c 0
 253 329 142 384 166 520 c 0
 187 638 302 716 447 716 c 0
 597 716 661 633 676 562 c 1
 536 489 l 1
 515 541 483 572 429 572 c 0
 380 572 345 550 339 514 c 0
 331 466 403 443 481 413 c 0
 573 379 642 316 621 196 c 0
 596 54 479 -22 315 -22 c 0
 187 -22 88 53 64 168 c 1
 197 251 l 1
EndSplineSet
EndChar

StartChar: at
Encoding: 64 64 53
Width: 770
VWidth: 0
Flags: HW
LayerCount: 2
Fore
SplineSet
372 320 m 0
 364 276 377 252 405 252 c 0
 439 252 487 296 499 364 c 0
 507 410 493 435 465 435 c 0
 425 435 383 381 372 320 c 0
247 312 m 0
 272 451 377 530 455 530 c 0
 527 530 553 461 538 375 c 0
 513 236 437 154 355 154 c 0
 275 154 230 213 247 312 c 0
66 320 m 0
 106 546 313 724 543 724 c 0
 752 724 858 556 829 390 c 0
 798 212 674 134 580 134 c 0
 510 134 467 193 489 259 c 1
 486 295 l 1
 552 520 l 1
 671 520 l 1
 602 304 l 2
 600 297 596 286 595 278 c 0
 591 254 595 241 613 241 c 0
 637 241 688 273 709 390 c 0
 731 516 674 625 525 625 c 0
 349 625 217 496 186 320 c 0
 160 170 220 66 382 66 c 0
 452 66 521 77 585 109 c 1
 622 26 l 5
 556 -8 462 -28 360 -28 c 0
 134 -28 31 121 66 320 c 0
EndSplineSet
EndChar

StartChar: period
Encoding: 46 46 54
Width: 322
VWidth: 0
Flags: HW
LayerCount: 2
Fore
SplineSet
79 68 m 0
 88 118 134 160 189 160 c 0
 244 160 277 118 268 68 c 0
 259 18 212 -24 157 -24 c 0
 102 -24 70 18 79 68 c 0
EndSplineSet
EndChar

StartChar: comma
Encoding: 44 44 55
Width: 323
VWidth: 0
Flags: HW
LayerCount: 2
Fore
SplineSet
139 110 m 1
 286 78 l 1
 116 -172 l 1
 6 -149 l 1
 139 110 l 1
EndSplineSet
EndChar

StartChar: colon
Encoding: 58 58 56
Width: 322
VWidth: 0
Flags: HW
LayerCount: 2
Fore
SplineSet
79 68 m 0
 88 118 134 160 189 160 c 0
 244 160 277 118 268 68 c 0
 259 18 212 -24 157 -24 c 0
 102 -24 70 18 79 68 c 0
145 442 m 0
 154 492 200 534 255 534 c 0
 310 534 343 492 334 442 c 0
 325 392 278 350 223 350 c 0
 168 350 136 392 145 442 c 0
EndSplineSet
EndChar

StartChar: semicolon
Encoding: 59 59 57
Width: 393
VWidth: 0
Flags: HW
LayerCount: 2
Fore
SplineSet
195 436 m 0
 204 486 251 528 306 528 c 0
 361 528 394 486 385 436 c 0
 376 386 328 343 273 343 c 0
 218 343 186 386 195 436 c 0
161 110 m 1
 308 78 l 1
 138 -172 l 1
 28 -149 l 1
 161 110 l 1
EndSplineSet
EndChar

StartChar: quotedbl
Encoding: 34 34 58
Width: 518
VWidth: 0
Flags: HW
LayerCount: 2
Fore
SplineSet
228 700 m 1
 389 700 l 1
 227 381 l 1
 128 381 l 1
 228 700 l 1
439 700 m 1
 600 700 l 1
 439 381 l 1
 339 381 l 1
 439 700 l 1
EndSplineSet
EndChar

StartChar: exclam
Encoding: 33 33 59
Width: 343
VWidth: 0
Flags: HW
LayerCount: 2
Fore
SplineSet
201 700 m 1
 389 700 l 1
 274 231 l 1
 151 231 l 1
 201 700 l 1
89 62 m 0
 98 112 143 148 198 148 c 0
 253 148 286 112 277 62 c 0
 268 12 223 -24 168 -24 c 0
 113 -24 80 12 89 62 c 0
EndSplineSet
EndChar

StartChar: quotesingle
Encoding: 39 39 60
Width: 306
VWidth: 0
Flags: HW
LayerCount: 2
Fore
SplineSet
228 700 m 1
 389 700 l 1
 227 381 l 1
 128 381 l 1
 228 700 l 1
EndSplineSet
EndChar

StartChar: numbersign
Encoding: 35 35 61
Width: 667
VWidth: 0
Flags: HW
LayerCount: 2
Fore
SplineSet
148 412 m 1
 169 533 l 1
 726 533 l 1
 705 412 l 1
 551 412 l 0
 522 418 l 0
 318 418 l 0
 291 412 l 0
 148 412 l 1
65 172 m 1
 87 293 l 1
 228 293 l 0
 259 287 l 0
 489 287 l 0
 520 293 l 0
 644 293 l 1
 622 172 l 1
 65 172 l 1
597 700 m 1
 728 700 l 1
 435 0 l 1
 304 0 l 1
 397 224 l 0
 414 250 l 0
 500 456 l 0
 508 487 l 0
 597 700 l 1
355 700 m 1
 487 700 l 1
 398 488 l 0
 378 456 l 0
 292 252 l 0
 288 226 l 0
 194 0 l 1
 62 0 l 1
 355 700 l 1
EndSplineSet
EndChar

StartChar: hyphen
Encoding: 45 45 62
Width: 222
VWidth: 0
Flags: HW
LayerCount: 2
Fore
SplineSet
35 172 m 1
 58 303 l 1
 271 303 l 1
 248 172 l 1
 35 172 l 1
EndSplineSet
EndChar

StartChar: dollar
Encoding: 36 36 63
Width: 621
VWidth: 0
Flags: HW
LayerCount: 2
Fore
SplineSet
406 818 m 1
 530 818 l 1
 492 637 l 1
 380 637 l 1
 406 818 l 1
279 62 m 1
 391 62 l 1
 366 -112 l 1
 242 -112 l 1
 279 62 l 1
535 489 m 1
 515 547 481 586 429 586 c 0
 374 586 346 558 340 522 c 0
 330 463 402 446 481 414 c 0
 570 380 642 316 621 196 c 0
 598 64 480 -10 316 -10 c 0
 188 -10 90 72 63 168 c 1
 196 251 l 1
 229 167 270 125 344 125 c 0
 403 125 434 149 442 194 c 0
 452 250 392 270 316 302 c 0
 251 328 142 385 166 521 c 0
 184 623 301 710 446 710 c 0
 590 710 646 638 675 562 c 1
 535 489 l 1
EndSplineSet
EndChar

StartChar: bar
Encoding: 124 124 64
Width: 352
VWidth: 0
Flags: HW
LayerCount: 2
Fore
SplineSet
238 785 m 1
 391 785 l 1
 215 -215 l 1
 62 -215 l 1
 238 785 l 1
EndSplineSet
EndChar

StartChar: zero
Encoding: 48 48 65
Width: 662
VWidth: 0
Flags: HW
LayerCount: 2
Fore
SplineSet
265 350 m 0
 242 218 277 132 354 132 c 0
 431 132 499 218 522 350 c 0
 545 482 508 568 431 568 c 0
 354 568 288 482 265 350 c 0
102 350 m 0
 142 578 284 713 457 713 c 0
 636 713 724 578 684 350 c 0
 644 122 508 -13 329 -13 c 0
 156 -13 62 122 102 350 c 0
EndSplineSet
Substitution2: "Tabular Numbers lookup" uniFF10
EndChar

StartChar: one
Encoding: 49 49 66
Width: 509
VWidth: 0
Flags: HW
LayerCount: 2
Fore
SplineSet
156 498 m 1
 182 645 l 1
 530 713 l 1
 404 0 l 1
 242 0 l 1
 337 540 l 1
 156 498 l 1
EndSplineSet
Substitution2: "Tabular Numbers lookup" uniFF11
EndChar

StartChar: two
Encoding: 50 50 67
Width: 656
VWidth: 0
Flags: HW
LayerCount: 2
Fore
SplineSet
20 0 m 1
 389 323 l 2
 456 383 497 424 507 480 c 0
 515 524 494 568 430 568 c 0
 365 568 311 516 298 441 c 1
 132 441 l 1
 158 590 278 714 460 714 c 0
 634 714 703 598 684 488 c 0
 671 413 618 352 549 300 c 2
 361 155 l 1
 641 155 l 1
 614 0 l 1
 20 0 l 1
EndSplineSet
Substitution2: "Tabular Numbers lookup" uniFF12
EndChar

StartChar: four
Encoding: 52 52 68
Width: 698
VWidth: 0
Flags: HW
LayerCount: 2
Fore
SplineSet
36 124 m 1
 195 246 l 1
 505 246 l 0
 526 268 l 0
 703 268 l 1
 678 124 l 1
 36 124 l 1
216 174 m 1
 36 124 l 1
 543 700 l 25
 669 700 l 1
 546 0 l 1
 370 0 l 1
 398 160 l 0
 419 172 l 0
 469 454 l 1
 216 174 l 1
EndSplineSet
Substitution2: "Tabular Numbers lookup" uniFF14
EndChar

StartChar: slash
Encoding: 47 47 69
Width: 608
VWidth: 0
Flags: HW
LayerCount: 2
Fore
SplineSet
571 700 m 1
 717 700 l 1
 141 -150 l 1
 -11 -150 l 1
 571 700 l 1
EndSplineSet
EndChar

StartChar: backslash
Encoding: 92 92 70
Width: 546
VWidth: 0
Flags: HW
LayerCount: 2
Fore
SplineSet
138 700 m 1
 285 700 l 1
 531 0 l 1
 384 0 l 1
 138 700 l 1
EndSplineSet
EndChar

StartChar: eight
Encoding: 56 56 71
Width: 627
VWidth: 0
Flags: HW
LayerCount: 2
Fore
SplineSet
171 531 m 0
 192 649 311 716 440 716 c 0
 569 716 665 649 644 531 c 0
 621 403 489 342 374 342 c 0
 259 342 148 403 171 531 c 0
327 514 m 0
 319 467 347 435 391 435 c 0
 435 435 475 467 483 514 c 0
 491 561 465 594 419 594 c 0
 373 594 335 561 327 514 c 0
86 190 m 0
 112 338 269 396 384 396 c 0
 499 396 636 338 610 190 c 0
 587 62 449 -16 311 -16 c 0
 173 -16 63 62 86 190 c 0
258 216 m 0
 247 155 285 122 336 122 c 0
 387 122 434 155 445 216 c 0
 454 267 419 307 368 307 c 0
 317 307 267 267 258 216 c 0
EndSplineSet
Substitution2: "Tabular Numbers lookup" uniFF18
EndChar

StartChar: nine
Encoding: 57 57 72
Width: 669
VWidth: 0
Flags: HW
LayerCount: 2
Fore
SplineSet
532 454 m 0
 545 525 503 572 436 572 c 0
 369 572 311 525 298 454 c 0
 285 383 327 335 394 335 c 0
 461 335 519 383 532 454 c 0
337 3 m 1
 123 3 l 1
 393 256 l 1
 432 271 l 1
 388 235 356 226 306 226 c 0
 202 226 105 312 130 454 c 0
 160 626 304 716 461 716 c 0
 618 716 730 626 700 454 c 0
 687 378 640 316 584 260 c 2
 337 3 l 1
EndSplineSet
Substitution2: "Tabular Numbers lookup" uniFF19
EndChar

StartChar: three
Encoding: 51 51 73
Width: 621
VWidth: 0
Flags: HW
LayerCount: 2
Fore
SplineSet
335 338 m 1
 348 415 l 1
 426 415 485 458 494 508 c 0
 501 549 480 578 427 578 c 0
 375 578 329 543 321 495 c 1
 165 495 l 1
 187 619 301 713 451 713 c 0
 609 713 683 627 664 519 c 0
 643 398 501 338 335 338 c 1
315 -16 m 0
 145 -16 65 98 87 222 c 1
 254 222 l 1
 242 153 287 120 345 120 c 0
 403 120 450 148 461 208 c 0
 471 266 431 306 329 306 c 1
 344 392 l 1
 529 392 651 334 626 192 c 0
 604 70 487 -16 315 -16 c 0
EndSplineSet
Substitution2: "Tabular Numbers lookup" uniFF13
EndChar

StartChar: five
Encoding: 53 53 74
Width: 645
VWidth: 0
Flags: HW
LayerCount: 2
Fore
SplineSet
644 224 m 0
 615 58 455 -13 320 -13 c 0
 191 -13 112 29 56 78 c 1
 146 217 l 1
 194 169 259 142 311 142 c 0
 395 142 451 174 463 242 c 0
 475 310 414 340 346 340 c 0
 292 340 217 332 140 296 c 1
 273 380 l 1
 335 436 400 453 472 453 c 0
 582 453 670 370 644 224 c 0
408 553 m 1
 319 380 l 1
 140 296 l 1
 309 700 l 1
 714 700 l 1
 689 553 l 1
 408 553 l 1
EndSplineSet
Substitution2: "Tabular Numbers lookup" uniFF15
EndChar

StartChar: six
Encoding: 54 54 75
Width: 669
VWidth: 0
Flags: HW
LayerCount: 2
Fore
SplineSet
261 246 m 0
 248 175 291 128 358 128 c 0
 425 128 482 175 495 246 c 0
 508 317 466 365 399 365 c 0
 332 365 274 317 261 246 c 0
456 697 m 1
 671 697 l 1
 399 444 l 1
 362 429 l 1
 406 465 438 474 488 474 c 0
 592 474 688 388 663 246 c 0
 633 74 489 -16 332 -16 c 0
 175 -16 63 74 93 246 c 0
 106 322 154 384 210 440 c 2
 456 697 l 1
EndSplineSet
Substitution2: "Tabular Numbers lookup" uniFF16
EndChar

StartChar: seven
Encoding: 55 55 76
Width: 603
VWidth: 0
Flags: HW
LayerCount: 2
Fore
SplineSet
126 542 m 1
 153 700 l 1
 724 700 l 1
 263 0 l 1
 80 0 l 1
 449 542 l 1
 126 542 l 1
EndSplineSet
Substitution2: "Tabular Numbers lookup" uniFF17
EndChar

StartChar: plus
Encoding: 43 43 77
Width: 674
VWidth: 0
Flags: HW
LayerCount: 2
Fore
SplineSet
100 196 m 1
 125 342 l 1
 670 342 l 1
 645 196 l 1
 100 196 l 1
353 540 m 1
 511 540 l 1
 416 -2 l 1
 258 -2 l 1
 353 540 l 1
EndSplineSet
EndChar

StartChar: equal
Encoding: 61 61 78
Width: 626
VWidth: 0
Flags: HW
LayerCount: 2
Fore
SplineSet
71 84 m 1
 94 215 l 1
 608 215 l 1
 585 84 l 1
 71 84 l 1
107 290 m 1
 130 422 l 1
 644 422 l 1
 621 290 l 1
 107 290 l 1
EndSplineSet
EndChar

StartChar: percent
Encoding: 37 37 79
Width: 919
VWidth: 0
Flags: HW
LayerCount: 2
Fore
SplineSet
116 534 m 0
 134 636 231 720 339 720 c 0
 447 720 513 636 495 534 c 0
 477 432 382 350 274 350 c 0
 166 350 98 432 116 534 c 0
241 534 m 0
 235 498 257 468 295 468 c 0
 333 468 364 498 370 534 c 0
 376 570 356 600 318 600 c 0
 280 600 247 570 241 534 c 0
548 166 m 0
 566 268 662 351 770 351 c 0
 878 351 944 268 926 166 c 0
 908 64 813 -19 705 -19 c 0
 597 -19 530 64 548 166 c 0
673 166 m 0
 667 130 688 100 726 100 c 0
 764 100 795 130 801 166 c 0
 807 202 787 232 749 232 c 0
 711 232 679 202 673 166 c 0
773 700 m 1
 930 700 l 1
 269 0 l 1
 113 0 l 1
 773 700 l 1
EndSplineSet
EndChar

StartChar: ampersand
Encoding: 38 38 80
Width: 752
VWidth: 0
Flags: HW
LayerCount: 2
Fore
SplineSet
73 188 m 1
 233 201 l 1
 225 153 256 114 324 114 c 0
 438 114 566 217 668 341 c 1
 756 264 l 1
 646 136 480 -13 282 -13 c 0
 148 -13 51 62 73 188 c 1
222 544 m 1
 238 632 335 718 469 718 c 0
 599 718 656 632 641 548 c 1
 500 534 l 1
 506 566 485 596 445 596 c 0
 399 596 373 566 367 534 c 1
 222 544 l 1
289 372 m 2
 255 426 210 474 222 544 c 1
 367 534 l 1
 360 494 398 462 437 400 c 2
 736 0 l 1
 562 0 l 1
 289 372 l 2
641 548 m 1
 625 456 558 418 433 344 c 0
 354 298 247 282 233 201 c 1
 73 188 l 1
 101 348 290 387 366 420 c 0
 447 456 494 498 500 534 c 1
 641 548 l 1
EndSplineSet
EndChar

StartChar: question
Encoding: 63 63 81
Width: 627
VWidth: 0
Flags: HW
LayerCount: 2
Fore
SplineSet
210 59 m 0
 218 103 264 142 319 142 c 0
 374 142 406 103 398 59 c 0
 390 15 345 -24 290 -24 c 0
 235 -24 202 15 210 59 c 0
279 380 m 1
 431 380 l 1
 389 201 l 1
 267 201 l 1
 279 380 l 1
508 500 m 0
 518 558 483 592 412 592 c 0
 352 592 287 560 239 504 c 1
 152 590 l 1
 237 672 326 720 445 720 c 0
 577 720 686 638 662 500 c 0
 636 350 458 278 343 278 c 1
 311 380 l 1
 431 380 499 449 508 500 c 0
EndSplineSet
EndChar

StartChar: parenleft
Encoding: 40 40 82
Width: 341
VWidth: 0
Flags: HW
LayerCount: 2
Fore
SplineSet
328 780 m 1
 465 780 l 1
 369 630 299 460 269 290 c 0
 239 120 248 -50 292 -200 c 1
 155 -200 l 1
 101 -50 89 120 119 290 c 0
 149 460 222 630 328 780 c 1
EndSplineSet
EndChar

StartChar: parenright
Encoding: 41 41 83
Width: 341
VWidth: 0
Flags: HW
LayerCount: 2
Fore
SplineSet
117 -200 m 1
 -21 -200 l 1
 75 -50 145 120 175 290 c 0
 205 460 196 630 152 780 c 1
 290 780 l 1
 344 630 354 460 324 290 c 0
 294 120 223 -50 117 -200 c 1
EndSplineSet
EndChar

StartChar: asterisk
Encoding: 42 42 84
Width: 592
VWidth: 0
Flags: HW
LayerCount: 2
Fore
SplineSet
605 604 m 1
 625 472 l 1
 383 428 l 1
 372 500 l 1
 605 604 l 1
547 315 m 1
 419 234 l 1
 344 442 l 1
 412 486 l 1
 547 315 l 1
255 234 m 1
 157 315 l 1
 352 486 l 1
 404 442 l 1
 255 234 l 1
133 472 m 1
 201 604 l 1
 396 500 l 1
 359 428 l 1
 133 472 l 1
349 700 m 1
 489 700 l 1
 416 464 l 1
 340 464 l 1
 349 700 l 1
EndSplineSet
EndChar

StartChar: less
Encoding: 60 60 85
Width: 640
VWidth: 0
Flags: HW
LayerCount: 2
Fore
SplineSet
327 268 m 1
 601 148 l 1
 575 0 l 1
 103 213 l 1
 120 314 l 1
 668 528 l 1
 642 380 l 1
 327 268 l 1
EndSplineSet
EndChar

StartChar: greater
Encoding: 62 62 86
Width: 640
VWidth: 0
Flags: HW
LayerCount: 2
Fore
SplineSet
406 260 m 1
 132 380 l 1
 158 528 l 1
 630 314 l 1
 613 213 l 1
 65 0 l 1
 91 148 l 1
 406 260 l 1
EndSplineSet
EndChar

StartChar: bracketleft
Encoding: 91 91 87
Width: 362
VWidth: 0
Flags: HW
LayerCount: 2
Fore
SplineSet
356 648 m 1
 226 -88 l 1
 326 -88 l 1
 303 -220 l 1
 51 -220 l 1
 228 780 l 1
 480 780 l 1
 456 648 l 1
 356 648 l 1
EndSplineSet
EndChar

StartChar: bracketright
Encoding: 93 93 88
Width: 362
Flags: HW
LayerCount: 2
Fore
SplineSet
105 -88 m 1
 235 648 l 1
 134 648 l 1
 158 780 l 1
 410 780 l 1
 233 -220 l 1
 -19 -220 l 1
 4 -88 l 1
 105 -88 l 1
EndSplineSet
EndChar

StartChar: asciicircum
Encoding: 94 94 89
Width: 510
VWidth: 0
Flags: HW
LayerCount: 2
Fore
SplineSet
357 580 m 1
 255 448 l 1
 119 448 l 1
 335 710 l 1
 425 710 l 1
 549 448 l 1
 413 448 l 1
 357 580 l 1
EndSplineSet
EndChar

StartChar: underscore
Encoding: 95 95 90
Width: 531
Flags: HW
LayerCount: 2
Fore
SplineSet
-27 -154 m 1
 -10 -58 l 1
 521 -58 l 1
 504 -154 l 1
 -27 -154 l 1
EndSplineSet
EndChar

StartChar: grave
Encoding: 96 96 91
Width: 375
VWidth: 0
Flags: HW
LayerCount: 2
Fore
SplineSet
168 654 m 1
 293 706 l 1
 415 546 l 1
 322 504 l 1
 168 654 l 1
EndSplineSet
EndChar

StartChar: braceleft
Encoding: 123 123 92
Width: 398
VWidth: 0
Flags: HW
LayerCount: 2
Fore
SplineSet
374 610 m 2
 352 490 l 2
 336 401 311 280 171 280 c 1
 175 300 l 1
 315 300 298 179 282 90 c 2
 261 -30 l 2
 256 -56 270 -80 300 -80 c 2
 334 -80 l 1
 313 -200 l 1
 223 -200 l 2
 141 -200 70 -159 87 -60 c 2
 120 125 l 2
 133 201 119 225 79 235 c 1
 99 345 l 1
 143 355 165 379 178 455 c 2
 211 640 l 2
 228 739 314 780 396 780 c 2
 486 780 l 1
 464 660 l 1
 430 660 l 2
 400 660 379 636 374 610 c 2
EndSplineSet
EndChar

StartChar: braceright
Encoding: 125 125 93
Width: 398
VWidth: 0
Flags: HW
LayerCount: 2
Fore
SplineSet
131 -30 m 2
 152 90 l 2
 168 179 193 300 333 300 c 1
 329 280 l 1
 189 280 206 401 222 490 c 2
 244 610 l 2
 249 636 234 660 204 660 c 2
 170 660 l 1
 192 780 l 1
 282 780 l 2
 364 780 434 739 417 640 c 2
 384 455 l 2
 371 379 385 355 425 345 c 1
 405 235 l 1
 361 225 339 201 326 125 c 2
 293 -60 l 2
 276 -159 191 -200 109 -200 c 2
 19 -200 l 1
 40 -80 l 1
 74 -80 l 2
 104 -80 126 -56 131 -30 c 2
EndSplineSet
EndChar

StartChar: asciitilde
Encoding: 126 126 94
Width: 575
VWidth: 0
Flags: HW
LayerCount: 2
Fore
SplineSet
185 164 m 1
 67 168 l 1
 66 175 66 183 68 192 c 0
 74 226 88 258 117 288 c 0
 150 322 188 346 255 346 c 0
 301 346 329 329 371 297 c 0
 398 276 418 262 436 262 c 0
 458 262 471 280 475 302 c 0
 477 313 477 326 475 336 c 1
 595 330 l 1
 596 322 596 312 594 302 c 0
 588 270 577 236 548 206 c 0
 516 172 482 153 427 153 c 0
 387 153 356 171 312 203 c 0
 285 224 260 238 235 238 c 0
 203 238 188 214 184 192 c 0
 182 178 183 172 185 164 c 1
EndSplineSet
EndChar

StartChar: exclamdown
Encoding: 161 161 95
Width: 343
VWidth: 0
Flags: HW
LayerCount: 2
Fore
SplineSet
225 -230 m 1
 37 -230 l 1
 152 240 l 1
 275 240 l 1
 225 -230 l 1
338 408 m 0
 329 358 284 322 229 322 c 0
 174 322 141 358 150 408 c 0
 159 458 204 495 259 495 c 0
 314 495 347 458 338 408 c 0
EndSplineSet
EndChar

StartChar: cent
Encoding: 162 162 96
Width: 580
VWidth: 0
Flags: HW
LayerCount: 2
Fore
SplineSet
243 38 m 1
 354 38 l 1
 336 -112 l 1
 207 -112 l 1
 243 38 l 1
246 230 m 0
 232 153 282 110 347 110 c 0
 409 110 461 142 496 180 c 1
 469 30 l 1
 432 4 377 -10 314 -10 c 0
 160 -10 65 84 91 230 c 0
 117 376 245 470 399 470 c 0
 462 470 512 454 540 430 c 1
 513 280 l 1
 492 318 452 350 390 350 c 0
 325 350 259 301 246 230 c 0
329 578 m 1
 458 578 l 1
 422 428 l 1
 311 428 l 1
 329 578 l 1
EndSplineSet
EndChar

StartChar: sterling
Encoding: 163 163 97
Width: 611
VWidth: 0
Flags: HW
LayerCount: 2
Fore
SplineSet
132 370 m 1
 511 370 l 1
 494 270 l 1
 115 270 l 1
 132 370 l 1
516 466 m 1
 522 520 510 576 436 576 c 0
 388 576 341 552 331 495 c 0
 316 410 404 382 384 270 c 0
 365 164 227 70 149 50 c 1
 217 140 l 1
 564 140 l 1
 539 0 l 1
 52 0 l 1
 168 102 221 186 239 286 c 0
 256 380 156 404 177 521 c 0
 198 640 321 710 453 710 c 0
 605 710 672 604 662 518 c 1
 516 466 l 1
EndSplineSet
EndChar

StartChar: currency
Encoding: 164 164 98
Width: 576
VWidth: 0
Flags: HW
LayerCount: 2
Fore
SplineSet
113 503 m 1
 186 566 l 1
 267 466 l 1
 195 404 l 1
 113 503 l 1
92 34 m 1
 41 97 l 1
 159 196 l 1
 209 134 l 1
 92 34 l 1
525 404 m 1
 474 466 l 1
 592 566 l 1
 642 503 l 1
 525 404 l 1
416 134 m 1
 489 196 l 1
 570 97 l 1
 498 34 l 1
 416 134 l 1
104 300 m 0
 129 439 249 540 384 540 c 0
 519 540 605 439 580 300 c 0
 555 161 435 60 300 60 c 0
 165 60 79 161 104 300 c 0
241 300 m 0
 230 238 265 198 324 198 c 0
 383 198 432 238 443 300 c 0
 454 362 419 402 360 402 c 0
 301 402 252 362 241 300 c 0
EndSplineSet
EndChar

StartChar: yen
Encoding: 165 165 99
Width: 669
VWidth: 0
Flags: HW
LayerCount: 2
Fore
SplineSet
311 360 m 1
 485 360 l 1
 422 0 l 1
 248 0 l 1
 311 360 l 1
595 700 m 1
 789 700 l 1
 358 138 l 1
 126 700 l 1
 321 700 l 1
 411 437 l 1
 595 700 l 1
65 115 m 1
 83 215 l 1
 658 215 l 1
 640 115 l 1
 65 115 l 1
92 265 m 1
 109 365 l 1
 684 365 l 1
 667 265 l 1
 92 265 l 1
EndSplineSet
EndChar

StartChar: brokenbar
Encoding: 166 166 100
Width: 352
VWidth: 0
Flags: HW
LayerCount: 2
Fore
SplineSet
223 695 m 1
 376 695 l 1
 329 430 l 1
 176 430 l 1
 223 695 l 1
301 270 m 1
 254 5 l 1
 101 5 l 1
 148 270 l 1
 301 270 l 1
EndSplineSet
EndChar

StartChar: section
Encoding: 167 167 101
Width: 577
VWidth: 0
Flags: HW
LayerCount: 2
Fore
SplineSet
497 549 m 1
 474 579 429 598 399 598 c 0
 365 598 347 587 344 569 c 0
 339 543 385 535 436 519 c 0
 508 497 560 452 547 378 c 0
 529 274 416 229 308 229 c 1
 316 270 l 1
 355 276 397 304 404 344 c 0
 414 398 347 416 299 436 c 0
 245 458 186 494 201 578 c 0
 218 674 323 724 413 724 c 0
 493 724 565 689 586 648 c 1
 497 549 l 1
159 174 m 1
 200 124 258 102 296 102 c 0
 334 102 353 115 357 136 c 0
 362 167 322 178 270 194 c 0
 198 214 129 257 143 334 c 0
 160 429 275 480 389 480 c 1
 382 442 l 1
 339 428 299 410 292 369 c 0
 281 309 360 299 407 278 c 0
 467 251 522 210 508 130 c 0
 489 24 381 -22 282 -22 c 0
 172 -22 104 20 69 76 c 1
 159 174 l 1
EndSplineSet
EndChar

StartChar: dieresis
Encoding: 168 168 102
Width: 511
VWidth: 0
Flags: HW
LayerCount: 2
Fore
SplineSet
394 632 m 0
 403 682 451 724 506 724 c 0
 561 724 592 682 583 632 c 0
 574 582 528 540 473 540 c 0
 418 540 385 582 394 632 c 0
151 632 m 0
 160 682 207 724 262 724 c 0
 317 724 348 682 339 632 c 0
 330 582 284 540 229 540 c 0
 174 540 142 582 151 632 c 0
EndSplineSet
EndChar

StartChar: copyright
Encoding: 169 169 103
Width: 800
VWidth: 0
Flags: HW
LayerCount: 2
Fore
SplineSet
351 350 m 0
 337 272 385 227 455 227 c 0
 514 227 558 252 590 282 c 1
 570 172 l 1
 531 146 492 130 431 130 c 0
 296 130 217 220 240 350 c 0
 263 480 374 570 509 570 c 0
 570 570 604 554 633 528 c 1
 614 418 l 1
 592 448 557 473 498 473 c 0
 428 473 365 428 351 350 c 0
157 350 m 0
 126 172 234 40 407 40 c 0
 580 40 736 172 767 350 c 0
 798 528 689 660 516 660 c 0
 343 660 188 528 157 350 c 0
102 350 m 0
 139 559 321 710 525 710 c 0
 729 710 859 559 822 350 c 0
 785 141 602 -10 398 -10 c 0
 194 -10 65 141 102 350 c 0
EndSplineSet
EndChar

StartChar: registered
Encoding: 174 174 104
Width: 800
VWidth: 0
Flags: HW
LayerCount: 2
Fore
SplineSet
435 328 m 1
 528 328 l 1
 615 150 l 1
 496 150 l 1
 435 328 l 1
355 570 m 1
 456 570 l 1
 381 150 l 1
 280 150 l 1
 355 570 l 1
402 484 m 1
 418 570 l 1
 508 570 l 2
 616 570 660 513 647 439 c 0
 633 359 568 302 460 302 c 2
 370 302 l 1
 384 380 l 1
 466 380 l 2
 507 380 535 398 541 433 c 0
 547 468 525 484 484 484 c 2
 402 484 l 1
157 350 m 0
 126 172 234 40 407 40 c 0
 580 40 736 172 767 350 c 0
 798 528 689 660 516 660 c 0
 343 660 188 528 157 350 c 0
102 350 m 0
 139 559 321 710 525 710 c 0
 729 710 859 559 822 350 c 0
 785 141 602 -10 398 -10 c 0
 194 -10 65 141 102 350 c 0
EndSplineSet
EndChar

StartChar: ordfeminine
Encoding: 170 170 105
Width: 270
VWidth: 0
Flags: HW
LayerCount: 2
Fore
SplineSet
187 530 m 0
 184 514 194 504 216 504 c 0
 242 504 270 517 276 553 c 1
 279 525 l 1
 271 481 229 455 181 455 c 0
 133 455 103 482 111 528 c 0
 119 574 167 603 223 603 c 0
 257 603 288 590 296 580 c 1
 290 542 l 1
 275 555 259 562 233 562 c 0
 209 562 190 548 187 530 c 0
174 625 m 1
 158 679 l 1
 186 691 226 705 268 705 c 0
 330 705 369 678 361 630 c 2
 331 460 l 1
 259 460 l 1
 286 610 l 2
 290 630 277 645 252 645 c 0
 219 645 186 632 174 625 c 1
EndSplineSet
EndChar

StartChar: ordmasculine
Encoding: 186 186 106
Width: 278
VWidth: 0
Flags: HW
LayerCount: 2
Fore
SplineSet
121 580 m 0
 134 652 197 700 273 700 c 0
 349 700 397 652 384 580 c 0
 371 508 307 460 231 460 c 0
 155 460 108 508 121 580 c 0
198 580 m 0
 192 544 212 523 242 523 c 0
 272 523 300 544 306 580 c 0
 312 616 292 638 262 638 c 0
 232 638 204 616 198 580 c 0
EndSplineSet
EndChar

StartChar: guillemotleft
Encoding: 171 171 107
Width: 541
VWidth: 0
Flags: HW
LayerCount: 2
Fore
SplineSet
170 235 m 1
 73 255 l 1
 295 509 l 1
 377 445 l 1
 170 235 l 1
73 255 m 1
 179 285 l 1
 310 65 l 1
 205 1 l 1
 73 255 l 1
373 235 m 1
 276 255 l 1
 499 509 l 1
 580 445 l 1
 373 235 l 1
276 255 m 1
 382 285 l 1
 513 65 l 1
 409 1 l 1
 276 255 l 1
EndSplineSet
EndChar

StartChar: guillemotright
Encoding: 187 187 108
Width: 541
VWidth: 0
Flags: HW
LayerCount: 2
Fore
SplineSet
460 275 m 1
 559 255 l 1
 336 1 l 1
 253 65 l 1
 460 275 l 1
559 255 m 1
 452 225 l 1
 320 445 l 1
 426 509 l 1
 559 255 l 1
257 275 m 1
 355 255 l 1
 132 1 l 1
 50 65 l 1
 257 275 l 1
355 255 m 1
 249 225 l 1
 117 445 l 1
 222 509 l 1
 355 255 l 1
EndSplineSet
EndChar

StartChar: uni00AD
Encoding: 173 173 109
Width: 210
VWidth: 0
Flags: HW
LayerCount: 2
Fore
SplineSet
40 200 m 1
 53 275 l 1
 253 275 l 1
 240 200 l 1
 40 200 l 1
EndSplineSet
EndChar

StartChar: logicalnot
Encoding: 172 172 110
Width: 650
VWidth: 0
Flags: HW
LayerCount: 2
Fore
SplineSet
113 272 m 1
 136 403 l 1
 657 403 l 1
 634 272 l 1
 113 272 l 1
546 375 m 1
 652 375 l 1
 617 175 l 1
 511 175 l 1
 546 375 l 1
EndSplineSet
EndChar

StartChar: macron
Encoding: 175 175 111
Width: 531
VWidth: 0
Flags: HW
LayerCount: 2
Fore
SplineSet
181 572 m 1
 204 703 l 1
 576 703 l 1
 553 572 l 1
 181 572 l 1
EndSplineSet
EndChar

StartChar: degree
Encoding: 176 176 112
Width: 296
VWidth: 0
Flags: HW
LayerCount: 2
Fore
SplineSet
122 597 m 0
 135 669 199 720 275 720 c 0
 351 720 398 669 385 597 c 0
 372 525 308 474 232 474 c 0
 156 474 109 525 122 597 c 0
196 597 m 0
 190 561 211 538 243 538 c 0
 275 538 304 561 310 597 c 0
 316 633 296 656 264 656 c 0
 232 656 202 633 196 597 c 0
EndSplineSet
EndChar

StartChar: plusminus
Encoding: 177 177 113
Width: 633
VWidth: 0
Flags: HW
LayerCount: 2
Fore
SplineSet
66 6 m 1
 89 136 l 1
 593 136 l 1
 570 6 l 1
 66 6 l 1
124 332 m 1
 148 468 l 1
 652 468 l 1
 628 332 l 1
 124 332 l 1
349 620 m 1
 503 620 l 1
 426 181 l 1
 272 181 l 1
 349 620 l 1
EndSplineSet
EndChar

StartChar: uni00B2
Encoding: 178 178 114
Width: 408
VWidth: 0
Flags: HW
LayerCount: 2
Fore
SplineSet
75 282 m 1
 296 476 l 2
 336 512 361 536 367 570 c 0
 372 597 358 624 320 624 c 0
 281 624 249 592 241 547 c 1
 142 547 l 1
 158 636 229 711 339 711 c 0
 443 711 484 641 472 575 c 0
 464 530 432 493 391 462 c 2
 279 375 l 1
 447 375 l 1
 431 282 l 1
 75 282 l 1
EndSplineSet
EndChar

StartChar: uni00B3
Encoding: 179 179 115
Width: 365
VWidth: 0
Flags: HW
LayerCount: 2
Fore
SplineSet
239 484 m 1
 247 529 l 1
 293 529 330 556 335 586 c 0
 339 611 327 627 295 627 c 0
 263 627 237 607 232 577 c 1
 138 577 l 1
 151 651 219 708 309 708 c 0
 403 708 447 656 436 592 c 0
 423 520 339 484 239 484 c 1
228 270 m 0
 126 270 78 340 91 414 c 1
 191 414 l 1
 184 372 211 352 246 352 c 0
 281 352 309 368 315 404 c 0
 321 439 298 464 236 464 c 1
 245 515 l 1
 356 515 428 479 413 394 c 0
 400 321 331 270 228 270 c 0
EndSplineSet
EndChar

StartChar: acute
Encoding: 180 180 116
Width: 375
VWidth: 0
Flags: HW
LayerCount: 2
Fore
SplineSet
434 654 m 1
 228 504 l 1
 149 546 l 1
 327 706 l 1
 434 654 l 1
EndSplineSet
EndChar

StartChar: mu
Encoding: 181 181 117
Width: 575
VWidth: 0
Flags: HW
LayerCount: 2
Fore
SplineSet
364 0 m 1
 445 460 l 1
 597 460 l 1
 516 0 l 1
 364 0 l 1
250 180 m 2
 240 126 251 96 301 96 c 0
 349 96 386 126 396 180 c 1
 427 186 l 1
 408 77 336 -10 222 -10 c 0
 108 -10 69 52 89 164 c 2
 141 460 l 1
 299 460 l 1
 250 180 l 2
141 460 m 1
 286 460 l 1
 149 -320 l 1
 4 -320 l 1
 141 460 l 1
EndSplineSet
EndChar

StartChar: paragraph
Encoding: 182 182 118
Width: 671
VWidth: 0
Flags: HW
LayerCount: 2
Fore
SplineSet
395 607 m 1
 411 700 l 1
 642 700 l 1
 626 607 l 1
 395 607 l 1
602 700 m 1
 735 700 l 1
 573 -220 l 1
 440 -220 l 1
 602 700 l 1
411 700 m 1
 543 700 l 1
 381 -220 l 1
 249 -220 l 1
 411 700 l 1
336 270 m 1
 211 270 121 346 146 485 c 0
 171 624 286 700 411 700 c 1
 336 270 l 1
EndSplineSet
EndChar

StartChar: periodcentered
Encoding: 183 183 119
Width: 322
VWidth: 0
Flags: HW
LayerCount: 2
Fore
SplineSet
114 268 m 0
 123 318 169 360 224 360 c 0
 279 360 312 318 303 268 c 0
 294 218 247 176 192 176 c 0
 137 176 105 218 114 268 c 0
EndSplineSet
EndChar

StartChar: uni00B9
Encoding: 185 185 120
Width: 482
VWidth: 0
Flags: HW
LayerCount: 2
Fore
SplineSet
234 572 m 1
 250 661 l 1
 460 702 l 1
 384 274 l 1
 286 274 l 1
 343 598 l 1
 234 572 l 1
EndSplineSet
EndChar

StartChar: cedilla
Encoding: 184 184 121
Width: 393
Flags: HW
LayerCount: 2
Fore
SplineSet
197 71 m 1
 306 68 l 1
 174 -79 l 1
 74 -124 l 1
 197 71 l 1
310 -148 m 1
 213 -140 l 1
 218 -114 190 -108 159 -108 c 0
 149 -108 113 -109 74 -124 c 1
 146 -79 l 1
 177 -54 203 -51 235 -51 c 0
 275 -51 322 -82 310 -148 c 1
310 -148 m 1
 297 -220 222 -258 159 -258 c 0
 103 -258 64 -248 22 -218 c 1
 80 -150 l 1
 103 -168 133 -175 153 -175 c 0
 187 -175 209 -164 213 -140 c 1
 310 -148 l 1
EndSplineSet
EndChar

StartChar: questiondown
Encoding: 191 191 122
Width: 627
VWidth: 0
Flags: HW
LayerCount: 2
Fore
SplineSet
541 641 m 0
 533 597 487 558 432 558 c 0
 377 558 344 597 352 641 c 0
 360 685 407 724 462 724 c 0
 517 724 549 685 541 641 c 0
472 320 m 1
 318 320 l 1
 360 499 l 1
 484 499 l 1
 472 320 l 1
241 200 m 0
 231 142 267 108 338 108 c 0
 398 108 464 140 512 196 c 1
 599 110 l 1
 514 28 424 -20 305 -20 c 0
 173 -20 65 62 89 200 c 0
 115 350 292 422 407 422 c 1
 439 320 l 1
 319 320 250 251 241 200 c 0
EndSplineSet
EndChar

StartChar: multiply
Encoding: 215 215 123
Width: 596
VWidth: 0
Flags: HW
LayerCount: 2
Fore
SplineSet
141 3 m 1
 63 97 l 1
 254 255 l 1
 119 413 l 1
 229 507 l 1
 359 344 l 1
 545 507 l 1
 623 413 l 1
 432 255 l 1
 567 97 l 1
 457 3 l 1
 327 166 l 1
 141 3 l 1
EndSplineSet
EndChar

StartChar: Oslash
Encoding: 216 216 124
Width: 790
VWidth: 0
Flags: HW
LayerCount: 2
Fore
SplineSet
275 350 m 0
 253 223 317 140 435 140 c 0
 553 140 648 223 670 350 c 0
 692 477 627 560 509 560 c 0
 391 560 297 477 275 350 c 0
96 350 m 0
 134 566 320 716 536 716 c 0
 752 716 888 566 850 350 c 0
 812 134 622 -22 406 -22 c 0
 190 -22 58 134 96 350 c 0
831 756 m 1
 893 704 l 1
 110 -56 l 1
 49 -4 l 1
 831 756 l 1
EndSplineSet
EndChar

StartChar: Thorn
Encoding: 222 222 125
Width: 612
VWidth: 0
Flags: HW
LayerCount: 2
Fore
SplineSet
333 128 m 1
 356 260 l 1
 433 260 482 286 494 353 c 0
 506 420 466 446 389 446 c 1
 412 579 l 1
 590 579 670 495 645 353 c 0
 620 211 511 128 333 128 c 1
197 128 m 1
 220 260 l 1
 356 260 l 1
 333 128 l 1
 197 128 l 1
253 446 m 1
 276 579 l 1
 412 579 l 1
 389 446 l 1
 253 446 l 1
203 700 m 1
 351 700 l 1
 228 0 l 1
 80 0 l 1
 203 700 l 1
EndSplineSet
EndChar

StartChar: divide
Encoding: 247 247 126
Width: 639
Flags: HW
LayerCount: 2
Fore
SplineSet
323 553 m 0
 332 603 379 646 434 646 c 0
 489 646 521 603 512 553 c 0
 503 503 456 460 401 460 c 0
 346 460 314 503 323 553 c 0
242 98 m 0
 251 148 299 190 354 190 c 0
 409 190 440 148 431 98 c 0
 422 48 376 6 321 6 c 0
 266 6 233 48 242 98 c 0
72 260 m 1
 96 396 l 1
 683 396 l 1
 659 260 l 1
 72 260 l 1
EndSplineSet
EndChar

StartChar: oslash
Encoding: 248 248 127
Width: 546
VWidth: 0
Flags: HW
LayerCount: 2
Fore
SplineSet
73 230 m 0
 100 382 230 470 378 470 c 0
 526 470 626 382 599 230 c 0
 572 78 441 -10 293 -10 c 0
 145 -10 46 78 73 230 c 0
217 230 m 0
 203 153 249 108 314 108 c 0
 379 108 441 153 455 230 c 0
 468 301 422 352 357 352 c 0
 292 352 230 301 217 230 c 0
545 506 m 1
 597 474 l 1
 114 -50 l 1
 63 -18 l 1
 545 506 l 1
EndSplineSet
EndChar

StartChar: circumflex
Encoding: 710 710 128
Width: 480
VWidth: 0
Flags: HW
LayerCount: 2
Fore
SplineSet
351 630 m 1
 245 544 l 1
 150 615 l 1
 373 755 l 1
 546 615 l 1
 427 544 l 1
 351 630 l 1
EndSplineSet
EndChar

StartChar: ogonek
Encoding: 731 731 129
Width: 260
VWidth: 0
Flags: HW
LayerCount: 2
Fore
SplineSet
174 -111 m 1
 195 -180 l 1
 176 -200 143 -220 87 -220 c 0
 22 -220 -23 -186 -11 -120 c 1
 91 -94 l 1
 87 -119 97 -131 121 -131 c 0
 141 -131 158 -124 174 -111 c 1
91 -94 m 1
 -11 -120 l 1
 1 -54 76 -11 152 25 c 1
 189 0 l 1
 132 -28 96 -64 91 -94 c 1
EndSplineSet
EndChar

StartChar: tilde
Encoding: 732 732 130
Width: 530
VWidth: 0
Flags: HW
LayerCount: 2
Fore
SplineSet
187 638 m 1
 206 687 259 732 323 732 c 0
 389 732 395 680 451 680 c 0
 477 680 499 701 525 733 c 1
 584 658 l 1
 561 621 497 573 435 573 c 0
 380 573 354 626 304 626 c 0
 266 626 251 591 248 576 c 1
 187 638 l 1
EndSplineSet
EndChar

StartChar: ring
Encoding: 730 730 131
Width: 328
VWidth: 0
Flags: HW
LayerCount: 2
Fore
SplineSet
175 770 m 0
 187 839 250 885 320 885 c 0
 390 885 437 839 425 770 c 0
 413 701 349 654 279 654 c 0
 209 654 163 701 175 770 c 0
254 770 m 0
 249 740 266 722 291 722 c 0
 316 722 341 740 346 770 c 0
 351 800 333 818 308 818 c 0
 283 818 259 800 254 770 c 0
EndSplineSet
EndChar

StartChar: dotaccent
Encoding: 729 729 132
Width: 300
VWidth: 0
Flags: HW
LayerCount: 2
Fore
SplineSet
200 815 m 0
 209 865 255 908 310 908 c 0
 365 908 397 865 388 815 c 0
 379 765 332 722 277 722 c 0
 222 722 191 765 200 815 c 0
EndSplineSet
EndChar

StartChar: uni2010
Encoding: 8208 8208 133
Width: 222
VWidth: 0
Flags: HW
LayerCount: 2
Fore
SplineSet
35 172 m 1
 58 303 l 1
 271 303 l 1
 248 172 l 1
 35 172 l 1
EndSplineSet
EndChar

StartChar: endash
Encoding: 8211 8211 134
Width: 783
VWidth: 0
Flags: HW
LayerCount: 2
Fore
SplineSet
100 172 m 1
 123 303 l 1
 761 303 l 1
 738 172 l 1
 100 172 l 1
EndSplineSet
EndChar

StartChar: figuredash
Encoding: 8210 8210 135
Width: 627
VWidth: 0
Flags: HW
LayerCount: 2
Fore
SplineSet
100 172 m 1
 123 303 l 1
 601 303 l 1
 578 172 l 1
 100 172 l 1
EndSplineSet
EndChar

StartChar: emdash
Encoding: 8212 8212 136
Width: 940
VWidth: 0
Flags: HW
LayerCount: 2
Fore
SplineSet
100 172 m 1
 123 303 l 1
 920 303 l 1
 897 172 l 1
 100 172 l 1
EndSplineSet
EndChar

StartChar: minus
Encoding: 8722 8722 137
Width: 593
VWidth: 0
Flags: HW
LayerCount: 2
Fore
SplineSet
88 172 m 1
 111 303 l 1
 589 303 l 1
 566 172 l 1
 88 172 l 1
EndSplineSet
EndChar

StartChar: quoteright
Encoding: 8217 8217 138
Width: 331
VWidth: 0
Flags: HW
LayerCount: 2
Fore
SplineSet
227 700 m 1
 385 700 l 1
 236 445 l 1
 128 445 l 1
 227 700 l 1
EndSplineSet
EndChar

StartChar: quoteleft
Encoding: 8216 8216 139
Width: 331
VWidth: 0
Flags: HW
LayerCount: 2
Fore
SplineSet
306 445 m 1
 148 445 l 1
 296 700 l 1
 405 700 l 1
 306 445 l 1
EndSplineSet
EndChar

StartChar: quotesinglbase
Encoding: 8218 8218 140
Width: 331
VWidth: 0
Flags: HW
LayerCount: 2
Fore
SplineSet
128 80 m 1
 286 80 l 1
 137 -175 l 1
 29 -175 l 1
 128 80 l 1
EndSplineSet
EndChar

StartChar: quotedblleft
Encoding: 8220 8220 141
Width: 562
VWidth: 0
Flags: HW
LayerCount: 2
Fore
SplineSet
306 445 m 1
 148 445 l 1
 296 700 l 1
 405 700 l 1
 306 445 l 1
536 445 m 1
 379 445 l 1
 527 700 l 1
 635 700 l 1
 536 445 l 1
EndSplineSet
EndChar

StartChar: quotedblright
Encoding: 8221 8221 142
Width: 562
VWidth: 0
Flags: HW
LayerCount: 2
Fore
SplineSet
227 700 m 1
 385 700 l 1
 236 445 l 1
 128 445 l 1
 227 700 l 1
458 700 m 1
 615 700 l 1
 468 445 l 1
 359 445 l 1
 458 700 l 1
EndSplineSet
EndChar

StartChar: perthousand
Encoding: 8240 8240 143
Width: 1374
VWidth: 0
Flags: HW
LayerCount: 2
Fore
SplineSet
1003 166 m 0
 1021 268 1117 351 1225 351 c 0
 1333 351 1399 268 1381 166 c 0
 1363 64 1268 -19 1160 -19 c 0
 1052 -19 985 64 1003 166 c 0
1127 166 m 0
 1121 130 1143 100 1181 100 c 0
 1219 100 1251 130 1257 166 c 0
 1263 202 1242 232 1204 232 c 0
 1166 232 1133 202 1127 166 c 0
116 534 m 0
 134 636 231 720 339 720 c 0
 447 720 513 636 495 534 c 0
 477 432 382 350 274 350 c 0
 166 350 98 432 116 534 c 0
241 534 m 0
 235 498 257 468 295 468 c 0
 333 468 364 498 370 534 c 0
 376 570 356 600 318 600 c 0
 280 600 247 570 241 534 c 0
548 166 m 0
 566 268 662 351 770 351 c 0
 878 351 944 268 926 166 c 0
 908 64 813 -19 705 -19 c 0
 597 -19 530 64 548 166 c 0
673 166 m 0
 667 130 688 100 726 100 c 0
 764 100 795 130 801 166 c 0
 807 202 787 232 749 232 c 0
 711 232 679 202 673 166 c 0
773 700 m 1
 930 700 l 1
 269 0 l 1
 113 0 l 1
 773 700 l 1
EndSplineSet
EndChar

StartChar: guilsinglleft
Encoding: 8249 8249 144
Width: 350
VWidth: 0
Flags: HW
LayerCount: 2
Fore
SplineSet
170 235 m 1
 73 255 l 1
 295 509 l 1
 377 445 l 1
 170 235 l 1
73 255 m 1
 179 285 l 1
 310 65 l 1
 205 1 l 1
 73 255 l 1
EndSplineSet
EndChar

StartChar: guilsinglright
Encoding: 8250 8250 145
Width: 350
VWidth: 0
Flags: HW
LayerCount: 2
Fore
SplineSet
269 275 m 1
 367 255 l 1
 145 1 l 1
 62 65 l 1
 269 275 l 1
367 255 m 1
 261 225 l 1
 129 445 l 1
 235 509 l 1
 367 255 l 1
EndSplineSet
EndChar

StartChar: uni2031
Encoding: 8241 8241 146
Width: 1829
VWidth: 0
Flags: HW
LayerCount: 2
Fore
SplineSet
1458 166 m 0
 1476 268 1572 351 1680 351 c 0
 1788 351 1854 268 1836 166 c 0
 1818 64 1723 -19 1615 -19 c 0
 1507 -19 1440 64 1458 166 c 0
1583 166 m 0
 1577 130 1598 100 1636 100 c 0
 1674 100 1705 130 1711 166 c 0
 1717 202 1697 232 1659 232 c 0
 1621 232 1589 202 1583 166 c 0
1003 166 m 0
 1021 268 1117 351 1225 351 c 0
 1333 351 1399 268 1381 166 c 0
 1363 64 1268 -19 1160 -19 c 0
 1052 -19 985 64 1003 166 c 0
1127 166 m 0
 1121 130 1143 100 1181 100 c 0
 1219 100 1251 130 1257 166 c 0
 1263 202 1242 232 1204 232 c 0
 1166 232 1133 202 1127 166 c 0
116 534 m 0
 134 636 231 720 339 720 c 0
 447 720 513 636 495 534 c 0
 477 432 382 350 274 350 c 0
 166 350 98 432 116 534 c 0
241 534 m 0
 235 498 257 468 295 468 c 0
 333 468 364 498 370 534 c 0
 376 570 356 600 318 600 c 0
 280 600 247 570 241 534 c 0
548 166 m 0
 566 268 662 351 770 351 c 0
 878 351 944 268 926 166 c 0
 908 64 813 -19 705 -19 c 0
 597 -19 530 64 548 166 c 0
673 166 m 0
 667 130 688 100 726 100 c 0
 764 100 795 130 801 166 c 0
 807 202 787 232 749 232 c 0
 711 232 679 202 673 166 c 0
773 700 m 1
 930 700 l 1
 269 0 l 1
 113 0 l 1
 773 700 l 1
EndSplineSet
EndChar

StartChar: uni203D
Encoding: 8253 8253 147
Width: 627
VWidth: 0
Flags: HW
LayerCount: 2
Fore
SplineSet
519 481 m 0
 532 555 484 592 404 592 c 0
 344 592 281 566 239 504 c 1
 152 590 l 1
 210 660 317 718 443 718 c 0
 575 718 686 638 662 500 c 0
 636 350 458 278 343 278 c 1
 336 348 l 1
 418 348 506 405 519 481 c 0
305 504 m 1
 449 504 l 1
 368 201 l 1
 278 201 l 1
 305 504 l 1
209 62 m 0
 218 111 265 148 320 148 c 0
 375 148 410 111 401 62 c 0
 392 13 345 -24 290 -24 c 0
 235 -24 200 13 209 62 c 0
EndSplineSet
EndChar

StartChar: Euro
Encoding: 8364 8364 148
Width: 655
VWidth: 0
Flags: HW
LayerCount: 2
Fore
SplineSet
121 382 m 1
 136 465 l 1
 628 465 l 1
 613 382 l 1
 121 382 l 1
84 250 m 1
 99 334 l 1
 585 334 l 1
 570 250 l 1
 84 250 l 1
310 350 m 0
 284 200 338 120 435 120 c 0
 492 120 548 142 596 182 c 1
 568 22 l 1
 518 -4 464 -20 410 -20 c 0
 217 -20 126 141 163 350 c 0
 200 559 348 720 541 720 c 0
 595 720 644 705 684 679 c 1
 655 518 l 1
 621 558 573 580 516 580 c 0
 419 580 336 500 310 350 c 0
EndSplineSet
EndChar

StartChar: fraction
Encoding: 8260 8260 149
Width: 730
VWidth: 0
Flags: HW
LayerCount: 2
Fore
SplineSet
703 700 m 1
 825 700 l 1
 182 0 l 1
 60 0 l 1
 703 700 l 1
EndSplineSet
EndChar

StartChar: onequarter
Encoding: 188 188 150
Width: 822
VWidth: 0
Flags: HW
LayerCount: 2
Fore
SplineSet
753 700 m 1
 849 700 l 1
 206 0 l 1
 110 0 l 1
 753 700 l 1
125 572 m 1
 141 661 l 1
 350 702 l 1
 274 274 l 1
 176 274 l 1
 233 598 l 1
 125 572 l 1
420 74 m 1
 516 148 l 1
 702 148 l 0
 714 161 l 0
 820 161 l 1
 805 74 l 1
 420 74 l 1
528 104 m 1
 420 74 l 1
 725 420 l 25
 800 420 l 1
 726 0 l 1
 621 0 l 1
 638 96 l 0
 650 102 l 0
 680 274 l 1
 528 104 l 1
EndSplineSet
EndChar

StartChar: onehalf
Encoding: 189 189 151
Width: 894
VWidth: 0
Flags: HW
LayerCount: 2
Fore
SplineSet
753 700 m 1
 849 700 l 1
 206 0 l 1
 110 0 l 1
 753 700 l 1
125 572 m 1
 141 661 l 1
 350 702 l 1
 274 274 l 1
 176 274 l 1
 233 598 l 1
 125 572 l 1
506 2 m 1
 728 196 l 2
 768 232 792 256 798 290 c 0
 803 317 790 344 752 344 c 0
 713 344 681 312 673 267 c 1
 573 267 l 1
 589 356 660 431 770 431 c 0
 874 431 916 361 904 295 c 0
 896 250 864 213 823 182 c 2
 711 95 l 1
 879 95 l 1
 862 2 l 1
 506 2 l 1
EndSplineSet
EndChar

StartChar: threequarters
Encoding: 190 190 152
Width: 879
VWidth: 0
Flags: HW
LayerCount: 2
Fore
SplineSet
817 700 m 1
 913 700 l 1
 270 0 l 1
 174 0 l 1
 817 700 l 1
247 484 m 1
 255 529 l 1
 301 529 338 556 343 586 c 0
 347 611 335 627 303 627 c 0
 271 627 245 607 240 577 c 1
 146 577 l 1
 159 651 227 708 317 708 c 0
 411 708 455 656 444 592 c 0
 431 520 347 484 247 484 c 1
236 270 m 0
 134 270 86 340 99 414 c 1
 199 414 l 1
 192 372 219 352 254 352 c 0
 289 352 317 368 323 404 c 0
 329 439 306 464 244 464 c 1
 253 515 l 1
 364 515 436 479 421 394 c 0
 408 321 339 270 236 270 c 0
477 74 m 1
 574 148 l 1
 760 148 l 0
 772 161 l 0
 878 161 l 1
 863 74 l 1
 477 74 l 1
585 104 m 1
 477 74 l 1
 782 420 l 25
 858 420 l 1
 784 0 l 1
 678 0 l 1
 695 96 l 0
 708 102 l 0
 738 274 l 1
 585 104 l 1
EndSplineSet
EndChar

StartChar: uni2150
Encoding: 8528 8528 153
Width: 942
VWidth: 0
Flags: HW
LayerCount: 2
Fore
SplineSet
729 700 m 1
 849 700 l 1
 206 0 l 1
 86 0 l 1
 729 700 l 1
125 572 m 1
 141 661 l 1
 350 702 l 1
 274 274 l 1
 176 274 l 1
 233 598 l 1
 125 572 l 1
635 325 m 1
 652 420 l 1
 994 420 l 1
 718 0 l 1
 608 0 l 1
 828 325 l 1
 635 325 l 1
EndSplineSet
EndChar

StartChar: uni2151
Encoding: 8529 8529 154
Width: 884
VWidth: 0
Flags: HW
LayerCount: 2
Fore
SplineSet
722 700 m 1
 843 700 l 1
 200 0 l 1
 79 0 l 1
 722 700 l 1
125 572 m 1
 141 661 l 1
 350 702 l 1
 274 274 l 1
 176 274 l 1
 233 598 l 1
 125 572 l 1
808 274 m 0
 816 317 791 345 751 345 c 0
 711 345 676 317 668 274 c 0
 660 231 686 203 726 203 c 0
 766 203 800 231 808 274 c 0
693 4 m 1
 563 4 l 1
 726 156 l 1
 748 164 l 1
 722 142 703 138 673 138 c 0
 611 138 553 190 568 274 c 0
 586 377 672 432 766 432 c 0
 860 432 928 377 910 274 c 0
 902 229 873 192 840 158 c 2
 693 4 l 1
EndSplineSet
EndChar

StartChar: uni2152
Encoding: 8530 8530 155
Width: 1211
VWidth: 0
Flags: HW
LayerCount: 2
Fore
SplineSet
722 700 m 1
 843 700 l 1
 200 0 l 1
 79 0 l 1
 722 700 l 1
125 572 m 1
 141 661 l 1
 350 702 l 1
 274 274 l 1
 176 274 l 1
 233 598 l 1
 125 572 l 1
603 299 m 1
 618 388 l 1
 828 429 l 1
 752 1 l 1
 654 1 l 1
 711 326 l 1
 603 299 l 1
963 210 m 0
 949 131 972 80 1018 80 c 0
 1064 80 1103 131 1117 210 c 0
 1131 289 1110 340 1064 340 c 0
 1018 340 977 289 963 210 c 0
865 210 m 0
 889 346 976 428 1079 428 c 0
 1186 428 1239 346 1215 210 c 0
 1191 74 1110 -8 1003 -8 c 0
 900 -8 841 74 865 210 c 0
EndSplineSet
EndChar

StartChar: onethird
Encoding: 8531 8531 156
Width: 873
VWidth: 0
Flags: HW
LayerCount: 2
Fore
SplineSet
721 700 m 1
 843 700 l 1
 200 0 l 1
 78 0 l 1
 721 700 l 1
125 572 m 1
 141 661 l 1
 350 702 l 1
 274 274 l 1
 176 274 l 1
 233 598 l 1
 125 572 l 1
695 204 m 1
 703 249 l 1
 749 249 785 276 790 306 c 0
 794 331 782 347 750 347 c 0
 718 347 691 327 686 297 c 1
 592 297 l 1
 605 371 675 428 765 428 c 0
 859 428 903 376 892 312 c 0
 879 240 795 204 695 204 c 1
682 -10 m 0
 580 -10 533 60 546 134 c 1
 647 134 l 1
 640 92 666 72 701 72 c 0
 736 72 764 88 770 124 c 0
 776 159 753 184 691 184 c 1
 700 235 l 1
 811 235 884 199 869 114 c 0
 856 41 785 -10 682 -10 c 0
EndSplineSet
EndChar

StartChar: twothirds
Encoding: 8532 8532 157
Width: 1007
VWidth: 0
Flags: HW
LayerCount: 2
Fore
SplineSet
868 700 m 1
 989 700 l 1
 346 0 l 1
 225 0 l 1
 868 700 l 1
80 282 m 1
 302 476 l 2
 342 512 367 536 373 570 c 0
 378 597 364 624 326 624 c 0
 287 624 254 592 246 547 c 1
 146 547 l 1
 162 636 233 711 343 711 c 0
 447 711 489 641 477 575 c 0
 469 530 438 493 397 462 c 2
 284 375 l 1
 452 375 l 1
 436 282 l 1
 80 282 l 1
828 204 m 1
 836 249 l 1
 882 249 919 276 924 306 c 0
 928 331 915 347 883 347 c 0
 851 347 825 327 820 297 c 1
 726 297 l 1
 739 371 807 428 897 428 c 0
 991 428 1036 376 1025 312 c 0
 1012 240 928 204 828 204 c 1
816 -10 m 0
 714 -10 667 60 680 134 c 1
 780 134 l 1
 773 92 800 72 835 72 c 0
 870 72 898 88 904 124 c 0
 910 159 886 184 824 184 c 1
 833 235 l 1
 944 235 1017 199 1002 114 c 0
 989 41 919 -10 816 -10 c 0
EndSplineSet
EndChar

StartChar: uni2155
Encoding: 8533 8533 158
Width: 862
VWidth: 0
Flags: HW
LayerCount: 2
Fore
SplineSet
722 700 m 1
 843 700 l 1
 200 0 l 1
 79 0 l 1
 722 700 l 1
125 572 m 1
 141 661 l 1
 350 702 l 1
 274 274 l 1
 176 274 l 1
 233 598 l 1
 125 572 l 1
863 132 m 0
 846 34 749 -10 668 -10 c 0
 591 -10 544 15 510 44 c 1
 565 129 l 1
 594 101 632 83 663 83 c 0
 713 83 747 103 754 144 c 0
 761 185 725 202 684 202 c 0
 652 202 608 196 561 175 c 1
 640 226 l 1
 678 260 718 270 760 270 c 0
 826 270 878 218 863 132 c 0
721 330 m 1
 668 226 l 1
 561 175 l 1
 662 418 l 1
 905 418 l 1
 889 330 l 1
 721 330 l 1
EndSplineSet
EndChar

StartChar: uni2156
Encoding: 8534 8534 159
Width: 1005
VWidth: 0
Flags: HW
LayerCount: 2
Fore
SplineSet
868 700 m 1
 989 700 l 1
 346 0 l 1
 225 0 l 1
 868 700 l 1
80 282 m 1
 302 476 l 2
 342 512 367 536 373 570 c 0
 378 597 364 624 326 624 c 0
 287 624 254 592 246 547 c 1
 146 547 l 1
 162 636 233 711 343 711 c 0
 447 711 489 641 477 575 c 0
 469 530 438 493 397 462 c 2
 284 375 l 1
 452 375 l 1
 436 282 l 1
 80 282 l 1
996 132 m 0
 979 34 883 -10 802 -10 c 0
 725 -10 678 15 644 44 c 1
 698 129 l 1
 727 101 765 83 796 83 c 0
 846 83 880 103 887 144 c 0
 894 185 858 202 817 202 c 0
 785 202 742 196 695 175 c 1
 774 226 l 1
 812 260 852 270 894 270 c 0
 960 270 1011 218 996 132 c 0
854 330 m 1
 801 226 l 1
 695 175 l 1
 796 418 l 1
 1038 418 l 1
 1022 330 l 1
 854 330 l 1
EndSplineSet
EndChar

StartChar: uni2157
Encoding: 8535 8535 160
Width: 931
VWidth: 0
Flags: HW
LayerCount: 2
Fore
SplineSet
797 700 m 1
 918 700 l 1
 275 0 l 1
 154 0 l 1
 797 700 l 1
244 484 m 1
 252 529 l 1
 298 529 334 556 339 586 c 0
 343 611 332 627 300 627 c 0
 268 627 241 607 236 577 c 1
 142 577 l 1
 155 651 225 708 315 708 c 0
 409 708 453 656 442 592 c 0
 429 520 344 484 244 484 c 1
232 270 m 0
 130 270 82 340 95 414 c 1
 196 414 l 1
 189 372 215 352 250 352 c 0
 285 352 313 368 319 404 c 0
 325 439 303 464 241 464 c 1
 250 515 l 1
 361 515 434 479 419 394 c 0
 406 321 335 270 232 270 c 0
919 132 m 0
 902 34 805 -10 724 -10 c 0
 647 -10 600 15 566 44 c 1
 621 129 l 1
 650 101 688 83 719 83 c 0
 769 83 803 103 810 144 c 0
 817 185 781 202 740 202 c 0
 708 202 664 196 617 175 c 1
 696 226 l 1
 734 260 774 270 816 270 c 0
 882 270 934 218 919 132 c 0
776 330 m 1
 724 226 l 1
 617 175 l 1
 718 418 l 1
 961 418 l 1
 945 330 l 1
 776 330 l 1
EndSplineSet
EndChar

StartChar: uni2158
Encoding: 8536 8536 161
Width: 1016
VWidth: 0
Flags: HW
LayerCount: 2
Fore
SplineSet
857 700 m 1
 978 700 l 1
 335 0 l 1
 214 0 l 1
 857 700 l 1
84 354 m 1
 180 428 l 1
 366 428 l 0
 379 441 l 0
 486 441 l 1
 470 354 l 1
 84 354 l 1
192 384 m 1
 84 354 l 1
 389 700 l 25
 465 700 l 1
 391 280 l 1
 285 280 l 1
 302 376 l 0
 315 382 l 0
 346 554 l 1
 192 384 l 1
1009 132 m 0
 992 34 896 -10 815 -10 c 0
 738 -10 692 15 658 44 c 1
 711 128 l 1
 740 100 777 82 808 82 c 0
 858 82 894 102 901 143 c 0
 908 184 871 202 830 202 c 0
 798 202 755 195 708 174 c 1
 788 226 l 1
 826 260 864 269 906 269 c 0
 972 269 1024 218 1009 132 c 0
868 330 m 1
 815 225 l 1
 708 174 l 1
 809 418 l 1
 1052 418 l 1
 1036 330 l 1
 868 330 l 1
EndSplineSet
EndChar

StartChar: uni2159
Encoding: 8537 8537 162
Width: 871
VWidth: 0
Flags: HW
LayerCount: 2
Fore
SplineSet
741 700 m 1
 863 700 l 1
 220 0 l 1
 98 0 l 1
 741 700 l 1
125 572 m 1
 141 661 l 1
 350 702 l 1
 274 274 l 1
 176 274 l 1
 233 598 l 1
 125 572 l 1
628 146 m 0
 620 103 645 75 685 75 c 0
 725 75 761 103 769 146 c 0
 777 189 750 217 710 217 c 0
 670 217 636 189 628 146 c 0
745 416 m 1
 873 416 l 1
 711 264 l 1
 689 256 l 1
 715 278 734 282 764 282 c 0
 826 282 885 230 870 146 c 0
 852 43 764 -12 670 -12 c 0
 576 -12 510 43 528 146 c 0
 536 191 563 228 596 262 c 2
 745 416 l 1
EndSplineSet
EndChar

StartChar: uni215A
Encoding: 8538 8538 163
Width: 931
VWidth: 0
Flags: HW
LayerCount: 2
Fore
SplineSet
819 700 m 1
 941 700 l 1
 298 0 l 1
 176 0 l 1
 819 700 l 1
440 412 m 0
 423 314 327 270 246 270 c 0
 169 270 121 295 87 324 c 1
 142 409 l 1
 171 381 209 363 240 363 c 0
 290 363 324 383 331 424 c 0
 338 465 302 482 261 482 c 0
 229 482 185 476 138 455 c 1
 217 506 l 1
 255 540 295 550 337 550 c 0
 403 550 455 498 440 412 c 0
298 610 m 1
 245 506 l 1
 138 455 l 1
 239 698 l 1
 481 698 l 1
 466 610 l 1
 298 610 l 1
688 146 m 0
 680 103 705 75 745 75 c 0
 785 75 820 103 828 146 c 0
 836 189 810 217 770 217 c 0
 730 217 696 189 688 146 c 0
804 416 m 1
 933 416 l 1
 771 264 l 1
 749 256 l 1
 775 278 793 282 823 282 c 0
 885 282 944 230 929 146 c 0
 911 43 824 -12 730 -12 c 0
 636 -12 569 43 587 146 c 0
 595 191 623 228 656 262 c 2
 804 416 l 1
EndSplineSet
EndChar

StartChar: oneeighth
Encoding: 8539 8539 164
Width: 891
VWidth: 0
Flags: HW
LayerCount: 2
Fore
SplineSet
741 700 m 1
 863 700 l 1
 220 0 l 1
 98 0 l 1
 741 700 l 1
125 572 m 1
 141 661 l 1
 350 702 l 1
 274 274 l 1
 176 274 l 1
 233 598 l 1
 125 572 l 1
617 319 m 0
 629 389 703 430 780 430 c 0
 857 430 914 389 902 319 c 0
 889 243 809 206 740 206 c 0
 671 206 604 243 617 319 c 0
712 310 m 0
 707 281 724 261 750 261 c 0
 776 261 800 281 805 310 c 0
 810 339 795 356 767 356 c 0
 739 356 717 339 712 310 c 0
566 114 m 0
 582 202 677 238 746 238 c 0
 815 238 896 202 880 114 c 0
 867 38 784 -10 702 -10 c 0
 620 -10 553 38 566 114 c 0
671 130 m 0
 664 93 686 72 717 72 c 0
 748 72 775 93 782 130 c 0
 787 161 767 184 736 184 c 0
 705 184 676 161 671 130 c 0
EndSplineSet
EndChar

StartChar: threeeighths
Encoding: 8540 8540 165
Width: 953
VWidth: 0
Flags: HW
LayerCount: 2
Fore
SplineSet
803 700 m 1
 924 700 l 1
 281 0 l 1
 160 0 l 1
 803 700 l 1
244 484 m 1
 252 529 l 1
 298 529 334 556 339 586 c 0
 343 611 332 627 300 627 c 0
 268 627 241 607 236 577 c 1
 142 577 l 1
 155 651 225 708 315 708 c 0
 409 708 453 656 442 592 c 0
 429 520 344 484 244 484 c 1
232 270 m 0
 130 270 82 340 95 414 c 1
 196 414 l 1
 189 372 215 352 250 352 c 0
 285 352 313 368 319 404 c 0
 325 439 303 464 241 464 c 1
 250 515 l 1
 361 515 434 479 419 394 c 0
 406 321 335 270 232 270 c 0
679 319 m 0
 691 389 765 430 842 430 c 0
 919 430 976 389 964 319 c 0
 951 243 871 206 802 206 c 0
 733 206 666 243 679 319 c 0
774 310 m 0
 769 281 786 261 812 261 c 0
 838 261 862 281 867 310 c 0
 872 339 857 356 829 356 c 0
 801 356 779 339 774 310 c 0
628 114 m 0
 644 202 739 238 808 238 c 0
 877 238 958 202 942 114 c 0
 929 38 846 -10 764 -10 c 0
 682 -10 615 38 628 114 c 0
733 130 m 0
 726 93 748 72 779 72 c 0
 810 72 837 93 844 130 c 0
 849 161 829 184 798 184 c 0
 767 184 738 161 733 130 c 0
EndSplineSet
EndChar

StartChar: fiveeighths
Encoding: 8541 8541 166
Width: 969
VWidth: 0
Flags: HW
LayerCount: 2
Fore
SplineSet
819 700 m 1
 941 700 l 1
 298 0 l 1
 176 0 l 1
 819 700 l 1
434 412 m 0
 417 314 321 270 240 270 c 0
 163 270 115 295 81 324 c 1
 135 409 l 1
 164 381 202 363 233 363 c 0
 283 363 318 383 325 424 c 0
 332 465 295 482 254 482 c 0
 222 482 179 476 132 455 c 1
 211 506 l 1
 249 540 289 550 331 550 c 0
 397 550 449 498 434 412 c 0
292 610 m 1
 239 506 l 1
 132 455 l 1
 233 698 l 1
 475 698 l 1
 460 610 l 1
 292 610 l 1
696 319 m 0
 708 389 781 430 858 430 c 0
 935 430 992 389 980 319 c 0
 967 243 887 206 818 206 c 0
 749 206 683 243 696 319 c 0
790 310 m 0
 785 281 802 261 828 261 c 0
 854 261 878 281 883 310 c 0
 888 339 873 356 845 356 c 0
 817 356 795 339 790 310 c 0
644 114 m 0
 660 202 755 238 824 238 c 0
 893 238 975 202 959 114 c 0
 946 38 862 -10 780 -10 c 0
 698 -10 631 38 644 114 c 0
749 130 m 0
 742 93 764 72 795 72 c 0
 826 72 854 93 861 130 c 0
 866 161 845 184 814 184 c 0
 783 184 754 161 749 130 c 0
EndSplineSet
EndChar

StartChar: seveneighths
Encoding: 8542 8542 167
Width: 859
VWidth: 0
Flags: HW
LayerCount: 2
Fore
SplineSet
703 700 m 1
 825 700 l 1
 182 0 l 1
 60 0 l 1
 703 700 l 1
130 605 m 1
 146 700 l 1
 489 700 l 1
 212 280 l 1
 103 280 l 1
 324 605 l 1
 130 605 l 1
586 319 m 0
 598 389 671 430 748 430 c 0
 825 430 882 389 870 319 c 0
 857 243 777 206 708 206 c 0
 639 206 573 243 586 319 c 0
680 310 m 0
 675 281 692 261 718 261 c 0
 744 261 768 281 773 310 c 0
 778 339 763 356 735 356 c 0
 707 356 685 339 680 310 c 0
534 114 m 0
 550 202 645 238 714 238 c 0
 783 238 865 202 849 114 c 0
 836 38 752 -10 670 -10 c 0
 588 -10 521 38 534 114 c 0
639 130 m 0
 632 93 654 72 685 72 c 0
 716 72 744 93 751 130 c 0
 756 161 735 184 704 184 c 0
 673 184 644 161 639 130 c 0
EndSplineSet
EndChar

StartChar: uni2074
Encoding: 8308 8308 168
Width: 426
VWidth: 0
Flags: HW
LayerCount: 2
Fore
SplineSet
78 354 m 1
 174 428 l 1
 359 428 l 0
 372 441 l 0
 479 441 l 1
 463 354 l 1
 78 354 l 1
186 384 m 1
 78 354 l 1
 383 700 l 25
 458 700 l 1
 384 280 l 1
 279 280 l 1
 296 376 l 0
 308 382 l 0
 339 554 l 1
 186 384 l 1
EndSplineSet
EndChar

StartChar: uni2075
Encoding: 8309 8309 169
Width: 387
VWidth: 0
Flags: HW
LayerCount: 2
Fore
SplineSet
434 412 m 0
 417 314 321 270 240 270 c 0
 163 270 115 295 81 324 c 1
 135 409 l 1
 164 381 202 363 233 363 c 0
 283 363 318 383 325 424 c 0
 332 465 295 482 254 482 c 0
 222 482 179 476 132 455 c 1
 211 506 l 1
 249 540 289 550 331 550 c 0
 397 550 449 498 434 412 c 0
292 610 m 1
 239 506 l 1
 132 455 l 1
 233 698 l 1
 475 698 l 1
 460 610 l 1
 292 610 l 1
EndSplineSet
EndChar

StartChar: uni2076
Encoding: 8310 8310 170
Width: 383
VWidth: 0
Flags: HW
LayerCount: 2
Fore
SplineSet
197 426 m 0
 189 383 217 355 257 355 c 0
 297 355 331 383 339 426 c 0
 347 469 322 497 282 497 c 0
 242 497 205 469 197 426 c 0
315 696 m 1
 444 696 l 1
 281 544 l 1
 259 536 l 1
 285 558 303 562 333 562 c 0
 395 562 454 510 439 426 c 0
 421 323 335 268 241 268 c 0
 147 268 79 323 97 426 c 0
 105 471 134 508 167 542 c 2
 315 696 l 1
EndSplineSet
EndChar

StartChar: uni2077
Encoding: 8311 8311 171
Width: 379
VWidth: 0
Flags: HW
LayerCount: 2
Fore
SplineSet
130 605 m 1
 146 700 l 1
 489 700 l 1
 212 280 l 1
 103 280 l 1
 324 605 l 1
 130 605 l 1
EndSplineSet
EndChar

StartChar: uni2078
Encoding: 8312 8312 172
Width: 362
VWidth: 0
Flags: HW
LayerCount: 2
Fore
SplineSet
144 599 m 0
 156 669 228 710 305 710 c 0
 382 710 440 669 428 599 c 0
 415 523 335 486 266 486 c 0
 197 486 131 523 144 599 c 0
238 590 m 0
 233 561 249 541 275 541 c 0
 301 541 325 561 330 590 c 0
 335 619 320 636 292 636 c 0
 264 636 243 619 238 590 c 0
91 394 m 0
 107 482 202 518 271 518 c 0
 340 518 422 482 406 394 c 0
 393 318 310 270 228 270 c 0
 146 270 78 318 91 394 c 0
196 410 m 0
 189 373 211 352 242 352 c 0
 273 352 301 373 308 410 c 0
 313 441 293 464 262 464 c 0
 231 464 201 441 196 410 c 0
EndSplineSet
EndChar

StartChar: uni2079
Encoding: 8313 8313 173
Width: 380
VWidth: 0
Flags: HW
LayerCount: 2
Fore
SplineSet
362 554 m 0
 370 597 344 625 304 625 c 0
 264 625 230 597 222 554 c 0
 214 511 239 483 279 483 c 0
 319 483 354 511 362 554 c 0
246 284 m 1
 116 284 l 1
 279 436 l 1
 301 444 l 1
 275 422 257 418 227 418 c 0
 165 418 106 470 121 554 c 0
 139 657 226 712 320 712 c 0
 414 712 482 657 464 554 c 0
 456 509 426 472 393 438 c 2
 246 284 l 1
EndSplineSet
EndChar

StartChar: uni2070
Encoding: 8304 8304 174
Width: 390
VWidth: 0
Flags: HW
LayerCount: 2
Fore
SplineSet
204 490 m 0
 190 411 213 360 259 360 c 0
 305 360 344 411 358 490 c 0
 372 569 351 620 305 620 c 0
 259 620 218 569 204 490 c 0
106 490 m 0
 130 626 218 708 321 708 c 0
 428 708 480 626 456 490 c 0
 432 354 351 272 244 272 c 0
 141 272 82 354 106 490 c 0
EndSplineSet
EndChar

StartChar: uni2080
Encoding: 8320 8320 175
Width: 390
VWidth: 0
Flags: HW
LayerCount: 2
Fore
SplineSet
155 210 m 0
 141 131 164 80 210 80 c 0
 256 80 295 131 309 210 c 0
 323 289 302 340 256 340 c 0
 210 340 169 289 155 210 c 0
57 210 m 0
 81 346 168 428 271 428 c 0
 378 428 431 346 407 210 c 0
 383 74 302 -8 195 -8 c 0
 92 -8 33 74 57 210 c 0
EndSplineSet
EndChar

StartChar: uni2084
Encoding: 8324 8324 176
Width: 431
VWidth: 0
Flags: HW
LayerCount: 2
Fore
SplineSet
27 74 m 1
 124 148 l 1
 310 148 l 0
 322 161 l 0
 428 161 l 1
 413 74 l 1
 27 74 l 1
135 104 m 1
 27 74 l 1
 332 420 l 25
 408 420 l 1
 334 0 l 1
 228 0 l 1
 245 96 l 0
 258 102 l 0
 288 274 l 1
 135 104 l 1
EndSplineSet
EndChar

StartChar: uni2085
Encoding: 8325 8325 177
Width: 396
VWidth: 0
Flags: HW
LayerCount: 2
Fore
SplineSet
387 132 m 0
 370 34 273 -10 192 -10 c 0
 115 -10 69 15 35 44 c 1
 89 129 l 1
 118 101 156 83 187 83 c 0
 237 83 272 103 279 144 c 0
 286 185 249 202 208 202 c 0
 176 202 132 196 85 175 c 1
 165 226 l 1
 203 260 242 270 284 270 c 0
 350 270 402 218 387 132 c 0
245 330 m 1
 192 226 l 1
 85 175 l 1
 186 418 l 1
 430 418 l 1
 414 330 l 1
 245 330 l 1
EndSplineSet
EndChar

StartChar: uni2086
Encoding: 8326 8326 178
Width: 394
VWidth: 0
Flags: HW
LayerCount: 2
Fore
SplineSet
152 146 m 0
 144 103 170 75 210 75 c 0
 250 75 285 103 293 146 c 0
 301 189 275 217 235 217 c 0
 195 217 160 189 152 146 c 0
269 416 m 1
 397 416 l 1
 235 264 l 1
 213 256 l 1
 239 278 258 282 288 282 c 0
 350 282 409 230 394 146 c 0
 376 43 289 -12 195 -12 c 0
 101 -12 34 43 52 146 c 0
 60 191 87 228 120 262 c 2
 269 416 l 1
EndSplineSet
EndChar

StartChar: uni2087
Encoding: 8327 8327 179
Width: 384
VWidth: 0
Flags: HW
LayerCount: 2
Fore
SplineSet
84 325 m 1
 101 420 l 1
 444 420 l 1
 166 0 l 1
 58 0 l 1
 277 325 l 1
 84 325 l 1
EndSplineSet
EndChar

StartChar: uni2088
Encoding: 8328 8328 180
Width: 368
VWidth: 0
Flags: HW
LayerCount: 2
Fore
SplineSet
98 319 m 0
 110 389 183 430 260 430 c 0
 337 430 394 389 382 319 c 0
 369 243 289 206 220 206 c 0
 151 206 85 243 98 319 c 0
193 310 m 0
 188 281 204 261 230 261 c 0
 256 261 280 281 285 310 c 0
 290 339 275 356 247 356 c 0
 219 356 198 339 193 310 c 0
47 114 m 0
 63 202 157 238 226 238 c 0
 295 238 378 202 362 114 c 0
 349 38 264 -10 182 -10 c 0
 100 -10 34 38 47 114 c 0
151 130 m 0
 144 93 166 72 197 72 c 0
 228 72 256 93 263 130 c 0
 268 161 247 184 216 184 c 0
 185 184 156 161 151 130 c 0
EndSplineSet
EndChar

StartChar: uni2089
Encoding: 8329 8329 181
Width: 398
VWidth: 0
Flags: HW
LayerCount: 2
Fore
SplineSet
314 274 m 0
 322 317 297 345 257 345 c 0
 217 345 181 317 173 274 c 0
 165 231 192 203 232 203 c 0
 272 203 306 231 314 274 c 0
199 4 m 1
 69 4 l 1
 232 156 l 1
 254 164 l 1
 228 142 208 138 178 138 c 0
 116 138 58 190 73 274 c 0
 91 377 178 432 272 432 c 0
 366 432 434 377 416 274 c 0
 408 229 379 192 346 158 c 2
 199 4 l 1
EndSplineSet
EndChar

StartChar: uni2081
Encoding: 8321 8321 182
Width: 360
VWidth: 0
Flags: HW
LayerCount: 2
Fore
SplineSet
143 299 m 1
 158 388 l 1
 368 429 l 1
 292 1 l 1
 194 1 l 1
 251 326 l 1
 143 299 l 1
EndSplineSet
EndChar

StartChar: uni2082
Encoding: 8322 8322 183
Width: 411
VWidth: 0
Flags: HW
LayerCount: 2
Fore
SplineSet
28 2 m 1
 251 196 l 2
 291 232 315 256 321 290 c 0
 326 317 313 344 275 344 c 0
 236 344 203 312 195 267 c 1
 95 267 l 1
 111 356 182 431 292 431 c 0
 396 431 438 361 426 295 c 0
 418 250 387 213 346 182 c 2
 233 95 l 1
 401 95 l 1
 384 2 l 1
 28 2 l 1
EndSplineSet
EndChar

StartChar: uni2083
Encoding: 8323 8323 184
Width: 372
VWidth: 0
Flags: HW
LayerCount: 2
Fore
SplineSet
194 204 m 1
 202 249 l 1
 248 249 285 276 290 306 c 0
 294 331 281 347 249 347 c 0
 217 347 191 327 186 297 c 1
 92 297 l 1
 105 371 174 428 264 428 c 0
 358 428 403 376 392 312 c 0
 379 240 294 204 194 204 c 1
182 -10 m 0
 80 -10 33 60 46 134 c 1
 146 134 l 1
 139 92 166 72 201 72 c 0
 236 72 264 88 270 124 c 0
 276 159 252 184 190 184 c 1
 199 235 l 1
 310 235 384 199 369 114 c 0
 356 41 285 -10 182 -10 c 0
EndSplineSet
EndChar

StartChar: Agrave
Encoding: 192 192 185
Width: 735
VWidth: 0
Flags: HW
LayerCount: 2
Fore
SplineSet
208 135 m 1
 243 264 l 1
 591 264 l 1
 578 135 l 1
 208 135 l 1
446 442 m 1
 308 217 l 1
 309 179 l 1
 190 0 l 1
 -2 0 l 1
 499 744 l 1
 736 0 l 1
 544 0 l 1
 490 172 l 1
 504 216 l 1
 446 442 l 1
374 954 m 1
 500 1007 l 1
 621 847 l 1
 528 804 l 1
 374 954 l 1
EndSplineSet
EndChar

StartChar: Aacute
Encoding: 193 193 186
Width: 735
VWidth: 0
Flags: HW
LayerCount: 2
Fore
SplineSet
208 135 m 1
 243 264 l 1
 591 264 l 1
 578 135 l 1
 208 135 l 1
446 442 m 1
 308 217 l 1
 309 179 l 1
 190 0 l 1
 -2 0 l 1
 499 744 l 1
 736 0 l 1
 544 0 l 1
 490 172 l 1
 504 216 l 1
 446 442 l 1
694 954 m 1
 488 804 l 1
 409 847 l 1
 588 1007 l 1
 694 954 l 1
EndSplineSet
EndChar

StartChar: Acircumflex
Encoding: 194 194 187
Width: 735
VWidth: 0
Flags: HW
LayerCount: 2
Fore
SplineSet
208 135 m 1
 243 264 l 1
 591 264 l 1
 578 135 l 1
 208 135 l 1
446 442 m 1
 308 217 l 1
 309 179 l 1
 190 0 l 1
 -2 0 l 1
 499 744 l 1
 736 0 l 1
 544 0 l 1
 490 172 l 1
 504 216 l 1
 446 442 l 1
522 875 m 1
 415 790 l 1
 322 860 l 1
 544 1000 l 1
 717 860 l 1
 598 790 l 1
 522 875 l 1
EndSplineSet
EndChar

StartChar: Atilde
Encoding: 195 195 188
Width: 735
VWidth: 0
Flags: HW
LayerCount: 2
Fore
SplineSet
208 135 m 1
 243 264 l 1
 591 264 l 1
 578 135 l 1
 208 135 l 1
446 442 m 1
 308 217 l 1
 309 179 l 1
 190 0 l 1
 -2 0 l 1
 499 744 l 1
 736 0 l 1
 544 0 l 1
 490 172 l 1
 504 216 l 1
 446 442 l 1
324 862 m 1
 343 911 396 957 460 957 c 0
 526 957 532 905 588 905 c 0
 614 905 635 926 661 958 c 1
 720 884 l 1
 697 847 633 798 571 798 c 0
 516 798 490 852 440 852 c 0
 402 852 387 815 384 800 c 1
 324 862 l 1
EndSplineSet
EndChar

StartChar: Adieresis
Encoding: 196 196 189
Width: 735
VWidth: 0
Flags: HW
LayerCount: 2
Fore
SplineSet
208 135 m 1
 243 264 l 1
 591 264 l 1
 578 135 l 1
 208 135 l 1
446 442 m 1
 308 217 l 1
 309 179 l 1
 190 0 l 1
 -2 0 l 1
 499 744 l 1
 736 0 l 1
 544 0 l 1
 490 172 l 1
 504 216 l 1
 446 442 l 1
572 828 m 0
 581 878 627 920 682 920 c 0
 737 920 770 878 761 828 c 0
 752 778 705 736 650 736 c 0
 595 736 563 778 572 828 c 0
266 828 m 0
 275 878 321 920 376 920 c 0
 431 920 463 878 454 828 c 0
 445 778 399 736 344 736 c 0
 289 736 257 778 266 828 c 0
EndSplineSet
EndChar

StartChar: Aring
Encoding: 197 197 190
Width: 735
VWidth: 0
Flags: HW
LayerCount: 2
Fore
SplineSet
208 135 m 1
 243 264 l 1
 591 264 l 1
 578 135 l 1
 208 135 l 1
446 442 m 1
 308 217 l 1
 309 179 l 1
 190 0 l 1
 -2 0 l 1
 499 744 l 1
 736 0 l 1
 544 0 l 1
 490 172 l 1
 504 216 l 1
 446 442 l 1
383 800 m 0
 395 869 459 916 529 916 c 0
 599 916 645 869 633 800 c 0
 621 731 558 685 488 685 c 0
 418 685 371 731 383 800 c 0
462 800 m 0
 457 770 475 753 500 753 c 0
 525 753 550 770 555 800 c 0
 560 830 542 848 517 848 c 0
 492 848 467 830 462 800 c 0
EndSplineSet
EndChar

StartChar: AE
Encoding: 198 198 191
Width: 1085
VWidth: 0
Flags: HW
LayerCount: 2
Fore
SplineSet
296 150 m 1
 330 306 l 1
 630 306 l 1
 602 150 l 1
 296 150 l 1
561 700 m 1
 717 660 l 1
 228 0 l 1
 14 0 l 1
 561 700 l 1
630 0 m 1
 655 140 l 1
 1040 140 l 1
 1015 0 l 1
 630 0 l 1
737 560 m 1
 561 700 l 1
 1138 700 l 1
 1114 560 l 1
 737 560 l 1
683 300 m 1
 707 436 l 1
 1072 436 l 1
 1048 300 l 1
 683 300 l 1
673 700 m 1
 855 700 l 1
 732 0 l 1
 550 0 l 1
 673 700 l 1
EndSplineSet
EndChar

StartChar: Ccedilla
Encoding: 199 199 192
Width: 700
VWidth: 0
Flags: HW
LayerCount: 2
Fore
SplineSet
281 350 m 0
 258 222 341 145 454 145 c 0
 553 145 624 188 679 238 c 1
 647 54 l 1
 583 11 517 -16 415 -16 c 0
 190 -16 58 132 96 350 c 0
 134 568 319 716 544 716 c 0
 646 716 703 689 751 646 c 1
 718 462 l 1
 681 512 625 555 526 555 c 0
 413 555 304 478 281 350 c 0
377 60 m 1
 486 56 l 1
 354 -90 l 1
 254 -134 l 1
 377 60 l 1
490 -160 m 1
 394 -151 l 1
 399 -125 370 -118 339 -118 c 0
 329 -118 293 -119 254 -134 c 1
 326 -90 l 1
 357 -65 383 -62 415 -62 c 0
 455 -62 502 -94 490 -160 c 1
490 -160 m 1
 477 -232 402 -268 339 -268 c 0
 283 -268 243 -260 201 -230 c 1
 260 -160 l 1
 283 -178 313 -186 333 -186 c 0
 367 -186 390 -175 394 -151 c 1
 490 -160 l 1
EndSplineSet
EndChar

StartChar: Egrave
Encoding: 200 200 193
Width: 603
VWidth: 0
Flags: HW
LayerCount: 2
Fore
SplineSet
186 0 m 1
 211 140 l 1
 565 140 l 1
 540 0 l 1
 186 0 l 1
285 560 m 1
 309 700 l 1
 663 700 l 1
 639 560 l 1
 285 560 l 1
239 300 m 1
 263 436 l 1
 597 436 l 1
 573 300 l 1
 239 300 l 1
197 700 m 1
 360 700 l 1
 237 0 l 1
 74 0 l 1
 197 700 l 1
309 932 m 1
 434 985 l 1
 555 825 l 1
 463 782 l 1
 309 932 l 1
EndSplineSet
EndChar

StartChar: Eacute
Encoding: 201 201 194
Width: 603
VWidth: 0
Flags: HW
LayerCount: 2
Fore
SplineSet
186 0 m 1
 211 140 l 1
 565 140 l 1
 540 0 l 1
 186 0 l 1
285 560 m 1
 309 700 l 1
 663 700 l 1
 639 560 l 1
 285 560 l 1
239 300 m 1
 263 436 l 1
 597 436 l 1
 573 300 l 1
 239 300 l 1
197 700 m 1
 360 700 l 1
 237 0 l 1
 74 0 l 1
 197 700 l 1
629 932 m 1
 423 782 l 1
 345 825 l 1
 524 985 l 1
 629 932 l 1
EndSplineSet
EndChar

StartChar: Ecircumflex
Encoding: 202 202 195
Width: 603
VWidth: 0
Flags: HW
LayerCount: 2
Fore
SplineSet
186 0 m 1
 211 140 l 1
 565 140 l 1
 540 0 l 1
 186 0 l 1
285 560 m 1
 309 700 l 1
 663 700 l 1
 639 560 l 1
 285 560 l 1
239 300 m 1
 263 436 l 1
 597 436 l 1
 573 300 l 1
 239 300 l 1
197 700 m 1
 360 700 l 1
 237 0 l 1
 74 0 l 1
 197 700 l 1
466 884 m 1
 339 789 l 1
 296 829 l 1
 481 969 l 1
 616 829 l 1
 559 789 l 1
 466 884 l 1
EndSplineSet
EndChar

StartChar: Edieresis
Encoding: 203 203 196
Width: 603
VWidth: 0
Flags: HW
LayerCount: 2
Fore
SplineSet
186 0 m 1
 211 140 l 1
 565 140 l 1
 540 0 l 1
 186 0 l 1
285 560 m 1
 309 700 l 1
 663 700 l 1
 639 560 l 1
 285 560 l 1
239 300 m 1
 263 436 l 1
 597 436 l 1
 573 300 l 1
 239 300 l 1
197 700 m 1
 360 700 l 1
 237 0 l 1
 74 0 l 1
 197 700 l 1
492 876 m 0
 501 926 548 969 603 969 c 0
 658 969 690 926 681 876 c 0
 672 826 625 784 570 784 c 0
 515 784 483 826 492 876 c 0
248 876 m 0
 257 926 305 969 360 969 c 0
 415 969 446 926 437 876 c 0
 428 826 382 784 327 784 c 0
 272 784 239 826 248 876 c 0
EndSplineSet
EndChar

StartChar: Igrave
Encoding: 204 204 197
Width: 320
VWidth: 0
Flags: HW
LayerCount: 2
Fore
SplineSet
197 700 m 1
 369 700 l 1
 246 0 l 1
 74 0 l 1
 197 700 l 1
156 932 m 1
 282 985 l 1
 403 825 l 1
 310 782 l 1
 156 932 l 1
EndSplineSet
EndChar

StartChar: Iacute
Encoding: 205 205 198
Width: 320
VWidth: 0
Flags: HW
LayerCount: 2
Fore
SplineSet
197 700 m 1
 369 700 l 1
 246 0 l 1
 74 0 l 1
 197 700 l 1
476 932 m 1
 270 782 l 1
 192 825 l 1
 371 985 l 1
 476 932 l 1
EndSplineSet
EndChar

StartChar: Icircumflex
Encoding: 206 206 199
Width: 320
VWidth: 0
Flags: HW
LayerCount: 2
Fore
SplineSet
197 700 m 1
 369 700 l 1
 246 0 l 1
 74 0 l 1
 197 700 l 1
309 884 m 1
 182 789 l 1
 139 829 l 1
 324 969 l 1
 459 829 l 1
 402 789 l 1
 309 884 l 1
EndSplineSet
EndChar

StartChar: Idieresis
Encoding: 207 207 200
Width: 320
VWidth: 0
Flags: HW
LayerCount: 2
Fore
SplineSet
197 700 m 1
 369 700 l 1
 246 0 l 1
 74 0 l 1
 197 700 l 1
341 868 m 0
 350 918 396 961 451 961 c 0
 506 961 539 918 530 868 c 0
 521 818 474 776 419 776 c 0
 364 776 332 818 341 868 c 0
97 868 m 0
 106 918 152 961 207 961 c 0
 262 961 295 918 286 868 c 0
 277 818 230 776 175 776 c 0
 120 776 88 818 97 868 c 0
EndSplineSet
EndChar

StartChar: Ntilde
Encoding: 209 209 201
Width: 793
VWidth: 0
Flags: HW
LayerCount: 2
Fore
SplineSet
170 524 m 1
 204 735 l 1
 746 176 l 1
 714 -35 l 1
 170 524 l 1
680 700 m 1
 843 700 l 1
 714 -35 l 1
 583 150 l 1
 680 700 l 1
204 735 m 1
 334 550 l 1
 237 0 l 1
 74 0 l 1
 204 735 l 1
373 840 m 1
 392 889 447 922 492 922 c 0
 557 922 553 874 607 874 c 0
 626 874 646 890 672 922 c 1
 710 880 l 1
 687 843 641 806 591 806 c 0
 536 806 524 854 479 854 c 0
 438 854 422 817 419 802 c 1
 373 840 l 1
EndSplineSet
EndChar

StartChar: Eth
Encoding: 208 208 202
Width: 733
VWidth: 0
Flags: HW
LayerCount: 2
Fore
SplineSet
283 550 m 1
 309 700 l 1
 447 700 l 2
 676 700 800 566 762 350 c 1
 586 350 l 1
 612 500 523 550 415 550 c 2
 283 550 l 1
324 0 m 2
 186 0 l 1
 212 150 l 1
 344 150 l 2
 452 150 560 200 586 350 c 1
 762 350 l 1
 724 134 553 0 324 0 c 2
197 700 m 1
 371 700 l 1
 248 0 l 1
 74 0 l 1
 197 700 l 1
59 302 m 1
 77 402 l 1
 427 402 l 1
 409 302 l 1
 59 302 l 1
EndSplineSet
EndChar

StartChar: Ograve
Encoding: 210 210 203
Width: 821
VWidth: 0
Flags: HW
LayerCount: 2
Fore
SplineSet
275 350 m 0
 253 226 317 140 435 140 c 0
 553 140 648 226 670 350 c 0
 692 474 631 560 509 560 c 0
 391 560 297 474 275 350 c 0
96 350 m 0
 134 566 322 716 536 716 c 0
 752 716 888 566 850 350 c 0
 812 134 626 -22 406 -22 c 0
 186 -22 58 134 96 350 c 0
426 932 m 1
 552 985 l 1
 673 825 l 1
 580 782 l 1
 426 932 l 1
EndSplineSet
EndChar

StartChar: Oacute
Encoding: 211 211 204
Width: 821
VWidth: 0
Flags: HW
LayerCount: 2
Fore
SplineSet
275 350 m 0
 253 226 317 140 435 140 c 0
 553 140 648 226 670 350 c 0
 692 474 631 560 509 560 c 0
 391 560 297 474 275 350 c 0
96 350 m 0
 134 566 322 716 536 716 c 0
 752 716 888 566 850 350 c 0
 812 134 626 -22 406 -22 c 0
 186 -22 58 134 96 350 c 0
738 932 m 1
 532 782 l 1
 454 825 l 1
 633 985 l 1
 738 932 l 1
EndSplineSet
EndChar

StartChar: Ocircumflex
Encoding: 212 212 205
Width: 821
VWidth: 0
Flags: HW
LayerCount: 2
Fore
SplineSet
275 350 m 0
 253 226 317 140 435 140 c 0
 553 140 648 226 670 350 c 0
 692 474 631 560 509 560 c 0
 391 560 297 474 275 350 c 0
96 350 m 0
 134 566 322 716 536 716 c 0
 752 716 888 566 850 350 c 0
 812 134 626 -22 406 -22 c 0
 186 -22 58 134 96 350 c 0
576 884 m 1
 449 789 l 1
 406 829 l 1
 591 969 l 1
 726 829 l 1
 669 789 l 1
 576 884 l 1
EndSplineSet
EndChar

StartChar: Otilde
Encoding: 213 213 206
Width: 821
VWidth: 0
Flags: HW
LayerCount: 2
Fore
SplineSet
275 350 m 0
 253 226 317 140 435 140 c 0
 553 140 648 226 670 350 c 0
 692 474 631 560 509 560 c 0
 391 560 297 474 275 350 c 0
96 350 m 0
 134 566 322 716 536 716 c 0
 752 716 888 566 850 350 c 0
 812 134 626 -22 406 -22 c 0
 186 -22 58 134 96 350 c 0
397 842 m 1
 416 891 471 924 516 924 c 0
 581 924 578 877 632 877 c 0
 651 877 670 893 696 925 c 1
 735 882 l 1
 712 845 666 809 616 809 c 0
 561 809 548 856 503 856 c 0
 462 856 447 820 444 805 c 1
 397 842 l 1
EndSplineSet
EndChar

StartChar: Odieresis
Encoding: 214 214 207
Width: 821
VWidth: 0
Flags: HW
LayerCount: 2
Fore
SplineSet
275 350 m 0
 253 226 317 140 435 140 c 0
 553 140 648 226 670 350 c 0
 692 474 631 560 509 560 c 0
 391 560 297 474 275 350 c 0
96 350 m 0
 134 566 322 716 536 716 c 0
 752 716 888 566 850 350 c 0
 812 134 626 -22 406 -22 c 0
 186 -22 58 134 96 350 c 0
592 818 m 0
 601 868 648 911 703 911 c 0
 758 911 789 868 780 818 c 0
 771 768 725 726 670 726 c 0
 615 726 583 768 592 818 c 0
348 818 m 0
 357 868 404 911 459 911 c 0
 514 911 545 868 536 818 c 0
 527 768 481 726 426 726 c 0
 371 726 339 768 348 818 c 0
EndSplineSet
EndChar

StartChar: Ugrave
Encoding: 217 217 208
Width: 701
VWidth: 0
Flags: HW
LayerCount: 2
Fore
SplineSet
191 700 m 1
 361 700 l 1
 281 242 l 2
 268 171 297 123 372 123 c 0
 447 123 493 171 506 242 c 2
 586 700 l 1
 755 700 l 1
 673 230 l 2
 642 54 503 -29 345 -29 c 0
 187 -29 78 54 109 230 c 2
 191 700 l 1
353 926 m 1
 478 979 l 1
 599 819 l 1
 507 776 l 1
 353 926 l 1
EndSplineSet
EndChar

StartChar: Uacute
Encoding: 218 218 209
Width: 701
VWidth: 0
Flags: HW
LayerCount: 2
Fore
SplineSet
191 700 m 1
 361 700 l 1
 281 242 l 2
 268 171 297 123 372 123 c 0
 447 123 493 171 506 242 c 2
 586 700 l 1
 755 700 l 1
 673 230 l 2
 642 54 503 -29 345 -29 c 0
 187 -29 78 54 109 230 c 2
 191 700 l 1
675 926 m 1
 469 776 l 1
 390 819 l 1
 569 979 l 1
 675 926 l 1
EndSplineSet
EndChar

StartChar: Ucircumflex
Encoding: 219 219 210
Width: 701
VWidth: 0
Flags: HW
LayerCount: 2
Fore
SplineSet
191 700 m 1
 361 700 l 1
 281 242 l 2
 268 171 297 123 372 123 c 0
 447 123 493 171 506 242 c 2
 586 700 l 1
 755 700 l 1
 673 230 l 2
 642 54 503 -29 345 -29 c 0
 187 -29 78 54 109 230 c 2
 191 700 l 1
502 862 m 1
 397 776 l 1
 303 848 l 1
 524 988 l 1
 698 848 l 1
 579 776 l 1
 502 862 l 1
EndSplineSet
EndChar

StartChar: Udieresis
Encoding: 220 220 211
Width: 701
VWidth: 0
Flags: HW
LayerCount: 2
Fore
SplineSet
191 700 m 1
 361 700 l 1
 281 242 l 2
 268 171 297 123 372 123 c 0
 447 123 493 171 506 242 c 2
 586 700 l 1
 755 700 l 1
 673 230 l 2
 642 54 503 -29 345 -29 c 0
 187 -29 78 54 109 230 c 2
 191 700 l 1
544 868 m 0
 553 918 600 961 655 961 c 0
 710 961 742 918 733 868 c 0
 724 818 678 776 623 776 c 0
 568 776 535 818 544 868 c 0
274 868 m 0
 283 918 330 961 385 961 c 0
 440 961 472 918 463 868 c 0
 454 818 408 776 353 776 c 0
 298 776 265 818 274 868 c 0
EndSplineSet
EndChar

StartChar: Yacute
Encoding: 221 221 212
Width: 660
VWidth: 0
Flags: HW
LayerCount: 2
Fore
SplineSet
307 360 m 1
 479 360 l 1
 416 0 l 1
 244 0 l 1
 307 360 l 1
589 700 m 1
 785 700 l 1
 354 138 l 1
 121 700 l 1
 317 700 l 1
 407 437 l 1
 589 700 l 1
654 926 m 1
 448 776 l 1
 370 819 l 1
 549 979 l 1
 654 926 l 1
EndSplineSet
EndChar

StartChar: agrave
Encoding: 224 224 213
Width: 544
VWidth: 0
Flags: HW
LayerCount: 2
Fore
SplineSet
200 138 m 0
 194 104 218 89 258 89 c 0
 313 89 365 112 378 186 c 1
 384 130 l 1
 368 41 284 -10 189 -10 c 0
 87 -10 32 41 47 128 c 0
 64 222 154 279 272 279 c 0
 341 279 403 252 419 230 c 1
 406 158 l 1
 377 184 345 197 293 197 c 0
 241 197 206 174 200 138 c 0
174 318 m 1
 140 420 l 1
 197 445 276 473 359 473 c 0
 483 473 564 420 547 324 c 2
 490 0 l 1
 345 0 l 1
 397 294 l 2
 404 333 377 358 327 358 c 0
 261 358 198 331 174 318 c 1
224 683 m 1
 350 736 l 1
 472 576 l 1
 378 533 l 1
 224 683 l 1
EndSplineSet
Substitution2: "alt a" agrave.alt
EndChar

StartChar: aacute
Encoding: 225 225 214
Width: 544
VWidth: 0
Flags: HW
LayerCount: 2
Fore
SplineSet
200 138 m 0
 194 104 218 89 258 89 c 0
 313 89 365 112 378 186 c 1
 384 130 l 1
 368 41 284 -10 189 -10 c 0
 87 -10 32 41 47 128 c 0
 64 222 154 279 272 279 c 0
 341 279 403 252 419 230 c 1
 406 158 l 1
 377 184 345 197 293 197 c 0
 241 197 206 174 200 138 c 0
174 318 m 1
 140 420 l 1
 197 445 276 473 359 473 c 0
 483 473 564 420 547 324 c 2
 490 0 l 1
 345 0 l 1
 397 294 l 2
 404 333 377 358 327 358 c 0
 261 358 198 331 174 318 c 1
568 683 m 1
 362 533 l 1
 285 576 l 1
 463 736 l 1
 568 683 l 1
EndSplineSet
Substitution2: "alt a" aacute.alt
EndChar

StartChar: acircumflex
Encoding: 226 226 215
Width: 544
VWidth: 0
Flags: HW
LayerCount: 2
Fore
SplineSet
200 138 m 0
 194 104 218 89 258 89 c 0
 313 89 365 112 378 186 c 1
 384 130 l 1
 368 41 284 -10 189 -10 c 0
 87 -10 32 41 47 128 c 0
 64 222 154 279 272 279 c 0
 341 279 403 252 419 230 c 1
 406 158 l 1
 377 184 345 197 293 197 c 0
 241 197 206 174 200 138 c 0
174 318 m 1
 140 420 l 1
 197 445 276 473 359 473 c 0
 483 473 564 420 547 324 c 2
 490 0 l 1
 345 0 l 1
 397 294 l 2
 404 333 377 358 327 358 c 0
 261 358 198 331 174 318 c 1
385 618 m 1
 279 533 l 1
 185 604 l 1
 407 744 l 1
 581 604 l 1
 462 533 l 1
 385 618 l 1
EndSplineSet
Substitution2: "alt a" acircumflex.alt
EndChar

StartChar: atilde
Encoding: 227 227 216
Width: 544
VWidth: 0
Flags: HW
LayerCount: 2
Fore
SplineSet
200 138 m 0
 194 104 218 89 258 89 c 0
 313 89 365 112 378 186 c 1
 384 130 l 1
 368 41 284 -10 189 -10 c 0
 87 -10 32 41 47 128 c 0
 64 222 154 279 272 279 c 0
 341 279 403 252 419 230 c 1
 406 158 l 1
 377 184 345 197 293 197 c 0
 241 197 206 174 200 138 c 0
174 318 m 1
 140 420 l 1
 197 445 276 473 359 473 c 0
 483 473 564 420 547 324 c 2
 490 0 l 1
 345 0 l 1
 397 294 l 2
 404 333 377 358 327 358 c 0
 261 358 198 331 174 318 c 1
186 599 m 1
 205 648 258 694 322 694 c 0
 388 694 393 642 449 642 c 0
 475 642 498 662 524 694 c 1
 581 620 l 1
 558 583 494 534 432 534 c 0
 377 534 352 588 302 588 c 0
 264 588 250 552 247 537 c 1
 186 599 l 1
EndSplineSet
Substitution2: "alt a" atilde.alt
EndChar

StartChar: adieresis
Encoding: 228 228 217
Width: 544
VWidth: 0
Flags: HW
LayerCount: 2
Fore
SplineSet
200 138 m 0
 194 104 218 89 258 89 c 0
 313 89 365 112 378 186 c 1
 384 130 l 1
 368 41 284 -10 189 -10 c 0
 87 -10 32 41 47 128 c 0
 64 222 154 279 272 279 c 0
 341 279 403 252 419 230 c 1
 406 158 l 1
 377 184 345 197 293 197 c 0
 241 197 206 174 200 138 c 0
174 318 m 1
 140 420 l 1
 197 445 276 473 359 473 c 0
 483 473 564 420 547 324 c 2
 490 0 l 1
 345 0 l 1
 397 294 l 2
 404 333 377 358 327 358 c 0
 261 358 198 331 174 318 c 1
414 626 m 0
 423 676 470 718 525 718 c 0
 580 718 611 676 602 626 c 0
 593 576 547 533 492 533 c 0
 437 533 405 576 414 626 c 0
170 626 m 0
 179 676 226 718 281 718 c 0
 336 718 367 676 358 626 c 0
 349 576 303 533 248 533 c 0
 193 533 161 576 170 626 c 0
EndSplineSet
Substitution2: "alt a" adieresis.alt
EndChar

StartChar: aring
Encoding: 229 229 218
Width: 544
VWidth: 0
Flags: HW
LayerCount: 2
Fore
SplineSet
200 138 m 0
 194 104 218 89 258 89 c 0
 313 89 365 112 378 186 c 1
 384 130 l 1
 368 41 284 -10 189 -10 c 0
 87 -10 32 41 47 128 c 0
 64 222 154 279 272 279 c 0
 341 279 403 252 419 230 c 1
 406 158 l 1
 377 184 345 197 293 197 c 0
 241 197 206 174 200 138 c 0
174 318 m 1
 140 420 l 1
 197 445 276 473 359 473 c 0
 483 473 564 420 547 324 c 2
 490 0 l 1
 345 0 l 1
 397 294 l 2
 404 333 377 358 327 358 c 0
 261 358 198 331 174 318 c 1
265 649 m 0
 277 718 341 764 411 764 c 0
 481 764 527 718 515 649 c 0
 503 580 440 533 370 533 c 0
 300 533 253 580 265 649 c 0
344 649 m 0
 339 619 357 602 382 602 c 0
 407 602 431 619 436 649 c 0
 441 679 424 696 399 696 c 0
 374 696 349 679 344 649 c 0
EndSplineSet
Substitution2: "alt a" aring.alt
EndChar

StartChar: germandbls
Encoding: 223 223 219
Width: 591
VWidth: 0
Flags: HW
LayerCount: 2
Fore
SplineSet
162 606 m 1
 304 587 l 1
 200 0 l 1
 55 0 l 1
 162 606 l 1
341 412 m 1
 357 505 l 1
 442 505 471 540 479 584 c 0
 487 631 461 658 402 658 c 0
 348 658 312 632 304 587 c 1
 162 606 l 1
 184 728 302 796 426 796 c 0
 580 796 648 715 629 606 c 0
 608 487 509 412 341 412 c 1
305 128 m 1
 385 128 448 179 461 254 c 0
 472 315 443 368 333 368 c 1
 351 472 l 1
 519 472 635 377 608 225 c 0
 581 73 452 -10 280 -10 c 1
 305 128 l 1
EndSplineSet
EndChar

StartChar: ae
Encoding: 230 230 220
Width: 896
VWidth: 0
Flags: HW
LayerCount: 2
Fore
SplineSet
200 138 m 0
 194 104 218 89 258 89 c 0
 313 89 365 112 378 186 c 1
 439 130 l 1
 423 41 342 -10 216 -10 c 0
 94 -10 32 41 47 128 c 0
 64 222 154 279 272 279 c 0
 341 279 403 252 419 230 c 1
 406 158 l 1
 377 184 345 197 293 197 c 0
 241 197 206 174 200 138 c 0
174 318 m 1
 140 420 l 1
 197 445 276 473 359 473 c 0
 483 473 514 420 497 324 c 2
 463 130 l 1
 368 130 l 1
 396 290 l 2
 403 329 377 358 327 358 c 0
 261 358 198 331 174 318 c 1
453 198 m 1
 468 282 l 1
 894 282 l 1
 895 198 l 1
 453 198 l 1
745 244 m 2
 759 324 740 369 675 369 c 0
 614 369 567 328 554 254 c 1
 548 230 l 1
 531 136 573 100 632 100 c 0
 686 100 727 120 756 158 c 1
 885 126 l 1
 825 44 746 -10 614 -10 c 0
 446 -10 406 91 431 230 c 0
 434 247 440 263 446 279 c 0
 485 392 581 470 719 470 c 0
 854 470 930 382 904 237 c 0
 903 229 900 214 895 198 c 1
 740 218 l 1
 745 244 l 2
EndSplineSet
EndChar

StartChar: ccedilla
Encoding: 231 231 221
Width: 493
VWidth: 0
Flags: HW
LayerCount: 2
Fore
SplineSet
227 230 m 0
 214 156 259 110 327 110 c 0
 382 110 440 135 476 179 c 1
 450 32 l 1
 413 6 364 -10 294 -10 c 0
 140 -10 45 84 71 230 c 0
 97 376 225 470 379 470 c 0
 449 470 492 452 520 430 c 1
 494 282 l 1
 474 326 419 350 370 350 c 0
 302 350 239 298 227 230 c 0
246 85 m 1
 355 82 l 1
 225 -65 l 1
 124 -110 l 1
 246 85 l 1
359 -134 m 1
 264 -126 l 1
 269 -100 240 -94 209 -94 c 0
 199 -94 163 -95 124 -110 c 1
 196 -66 l 1
 227 -41 253 -37 285 -37 c 0
 325 -37 371 -68 359 -134 c 1
359 -134 m 1
 346 -206 272 -244 209 -244 c 0
 153 -244 114 -234 72 -204 c 1
 130 -136 l 1
 153 -154 184 -161 204 -161 c 0
 238 -161 260 -150 264 -126 c 1
 359 -134 l 1
EndSplineSet
EndChar

StartChar: egrave
Encoding: 232 232 222
Width: 573
VWidth: 0
Flags: HW
LayerCount: 2
Fore
SplineSet
131 198 m 1
 146 282 l 1
 572 282 l 1
 573 198 l 1
 131 198 l 1
423 244 m 2
 437 324 418 369 353 369 c 0
 292 369 245 328 232 254 c 1
 226 230 l 1
 209 136 250 100 309 100 c 0
 363 100 404 120 433 158 c 1
 563 126 l 1
 503 44 424 -10 292 -10 c 0
 124 -10 48 91 73 230 c 0
 76 247 79 263 85 279 c 0
 124 392 224 470 374 470 c 0
 535 470 608 382 582 237 c 0
 581 229 578 214 573 198 c 1
 418 218 l 1
 423 244 l 2
252 688 m 1
 377 740 l 1
 499 580 l 1
 406 538 l 1
 252 688 l 1
EndSplineSet
EndChar

StartChar: eacute
Encoding: 233 233 223
Width: 573
VWidth: 0
Flags: HW
LayerCount: 2
Fore
SplineSet
131 198 m 1
 146 282 l 1
 572 282 l 1
 573 198 l 1
 131 198 l 1
423 244 m 2
 437 324 418 369 353 369 c 0
 292 369 245 328 232 254 c 1
 226 230 l 1
 209 136 250 100 309 100 c 0
 363 100 404 120 433 158 c 1
 563 126 l 1
 503 44 424 -10 292 -10 c 0
 124 -10 48 91 73 230 c 0
 76 247 79 263 85 279 c 0
 124 392 224 470 374 470 c 0
 535 470 608 382 582 237 c 0
 581 229 578 214 573 198 c 1
 418 218 l 1
 423 244 l 2
572 688 m 1
 366 538 l 1
 288 580 l 1
 466 740 l 1
 572 688 l 1
EndSplineSet
EndChar

StartChar: ecircumflex
Encoding: 234 234 224
Width: 573
VWidth: 0
Flags: HW
LayerCount: 2
Fore
SplineSet
131 198 m 1
 146 282 l 1
 572 282 l 1
 573 198 l 1
 131 198 l 1
423 244 m 2
 437 324 418 369 353 369 c 0
 292 369 245 328 232 254 c 1
 226 230 l 1
 209 136 250 100 309 100 c 0
 363 100 404 120 433 158 c 1
 563 126 l 1
 503 44 424 -10 292 -10 c 0
 124 -10 48 91 73 230 c 0
 76 247 79 263 85 279 c 0
 124 392 224 470 374 470 c 0
 535 470 608 382 582 237 c 0
 581 229 578 214 573 198 c 1
 418 218 l 1
 423 244 l 2
400 616 m 1
 293 530 l 1
 200 602 l 1
 422 742 l 1
 594 602 l 1
 475 530 l 1
 400 616 l 1
EndSplineSet
EndChar

StartChar: edieresis
Encoding: 235 235 225
Width: 573
VWidth: 0
Flags: HW
LayerCount: 2
Fore
SplineSet
131 198 m 1
 146 282 l 1
 572 282 l 1
 573 198 l 1
 131 198 l 1
423 244 m 2
 437 324 418 369 353 369 c 0
 292 369 245 328 232 254 c 1
 226 230 l 1
 209 136 250 100 309 100 c 0
 363 100 404 120 433 158 c 1
 563 126 l 1
 503 44 424 -10 292 -10 c 0
 124 -10 48 91 73 230 c 0
 76 247 79 263 85 279 c 0
 124 392 224 470 374 470 c 0
 535 470 608 382 582 237 c 0
 581 229 578 214 573 198 c 1
 418 218 l 1
 423 244 l 2
428 623 m 0
 437 673 484 716 539 716 c 0
 594 716 627 673 618 623 c 0
 609 573 561 530 506 530 c 0
 451 530 419 573 428 623 c 0
185 623 m 0
 194 673 241 716 296 716 c 0
 351 716 383 673 374 623 c 0
 365 573 318 530 263 530 c 0
 208 530 176 573 185 623 c 0
EndSplineSet
EndChar

StartChar: igrave
Encoding: 236 236 226
Width: 276
VWidth: 0
Flags: HW
LayerCount: 2
Fore
SplineSet
145 460 m 1
 292 460 l 1
 211 0 l 1
 64 0 l 1
 145 460 l 1
79 688 m 1
 203 740 l 1
 325 580 l 1
 233 538 l 1
 79 688 l 1
EndSplineSet
EndChar

StartChar: dotlessi
Encoding: 305 305 227
Width: 276
VWidth: 0
Flags: HW
LayerCount: 2
Fore
SplineSet
145 460 m 1
 292 460 l 1
 211 0 l 1
 64 0 l 1
 145 460 l 1
EndSplineSet
EndChar

StartChar: kgreenlandic
Encoding: 312 312 228
Width: 577
VWidth: 0
Flags: HW
LayerCount: 2
Fore
SplineSet
139 460 m 1
 284 460 l 1
 203 0 l 1
 58 0 l 1
 139 460 l 1
451 460 m 1
 632 460 l 1
 402 270 l 1
 571 0 l 1
 393 0 l 1
 222 270 l 1
 451 460 l 1
EndSplineSet
EndChar

StartChar: iacute
Encoding: 237 237 229
Width: 276
VWidth: 0
Flags: HW
LayerCount: 2
Fore
SplineSet
145 460 m 1
 292 460 l 1
 211 0 l 1
 64 0 l 1
 145 460 l 1
431 688 m 1
 225 538 l 1
 146 580 l 1
 324 740 l 1
 431 688 l 1
EndSplineSet
EndChar

StartChar: icircumflex
Encoding: 238 238 230
Width: 276
VWidth: 0
Flags: HW
LayerCount: 2
Fore
SplineSet
145 460 m 1
 292 460 l 1
 211 0 l 1
 64 0 l 1
 145 460 l 1
247 620 m 1
 140 534 l 1
 47 606 l 1
 270 746 l 1
 442 606 l 1
 323 534 l 1
 247 620 l 1
EndSplineSet
EndChar

StartChar: idieresis
Encoding: 239 239 231
Width: 276
VWidth: 0
Flags: HW
LayerCount: 2
Fore
SplineSet
145 460 m 1
 292 460 l 1
 211 0 l 1
 64 0 l 1
 145 460 l 1
278 634 m 0
 287 684 333 727 388 727 c 0
 443 727 475 684 466 634 c 0
 457 584 411 542 356 542 c 0
 301 542 269 584 278 634 c 0
34 634 m 0
 43 684 89 727 144 727 c 0
 199 727 231 684 222 634 c 0
 213 584 167 542 112 542 c 0
 57 542 25 584 34 634 c 0
EndSplineSet
EndChar

StartChar: ntilde
Encoding: 241 241 232
Width: 575
VWidth: 0
Flags: HW
LayerCount: 2
Fore
SplineSet
293 460 m 1
 212 0 l 1
 60 0 l 1
 141 460 l 1
 293 460 l 1
407 280 m 2
 417 334 405 364 355 364 c 0
 307 364 271 334 261 280 c 1
 230 274 l 1
 249 383 321 470 435 470 c 0
 549 470 588 408 568 296 c 2
 516 0 l 1
 358 0 l 1
 407 280 l 2
197 596 m 1
 216 645 269 691 333 691 c 0
 399 691 404 639 460 639 c 0
 486 639 509 660 535 692 c 1
 593 618 l 1
 570 581 506 532 444 532 c 0
 389 532 363 586 313 586 c 0
 275 586 260 549 257 534 c 1
 197 596 l 1
EndSplineSet
EndChar

StartChar: ograve
Encoding: 242 242 233
Width: 589
VWidth: 0
Flags: HW
LayerCount: 2
Fore
SplineSet
73 230 m 0
 99 376 228 470 378 470 c 0
 528 470 625 376 599 230 c 0
 573 84 443 -10 293 -10 c 0
 143 -10 47 84 73 230 c 0
229 230 m 0
 216 159 256 115 315 115 c 0
 374 115 430 159 443 230 c 0
 456 301 415 346 356 346 c 0
 297 346 242 301 229 230 c 0
256 688 m 1
 380 740 l 1
 502 580 l 1
 410 538 l 1
 256 688 l 1
EndSplineSet
EndChar

StartChar: oacute
Encoding: 243 243 234
Width: 589
VWidth: 0
Flags: HW
LayerCount: 2
Fore
SplineSet
73 230 m 0
 99 376 228 470 378 470 c 0
 528 470 625 376 599 230 c 0
 573 84 443 -10 293 -10 c 0
 143 -10 47 84 73 230 c 0
229 230 m 0
 216 159 256 115 315 115 c 0
 374 115 430 159 443 230 c 0
 456 301 415 346 356 346 c 0
 297 346 242 301 229 230 c 0
576 688 m 1
 370 538 l 1
 291 580 l 1
 469 740 l 1
 576 688 l 1
EndSplineSet
EndChar

StartChar: ocircumflex
Encoding: 244 244 235
Width: 589
VWidth: 0
Flags: HW
LayerCount: 2
Fore
SplineSet
73 230 m 0
 99 376 228 470 378 470 c 0
 528 470 625 376 599 230 c 0
 573 84 443 -10 293 -10 c 0
 143 -10 47 84 73 230 c 0
229 230 m 0
 216 159 256 115 315 115 c 0
 374 115 430 159 443 230 c 0
 456 301 415 346 356 346 c 0
 297 346 242 301 229 230 c 0
405 624 m 1
 299 538 l 1
 206 610 l 1
 427 750 l 1
 600 610 l 1
 481 538 l 1
 405 624 l 1
EndSplineSet
EndChar

StartChar: otilde
Encoding: 245 245 236
Width: 589
VWidth: 0
Flags: HW
LayerCount: 2
Fore
SplineSet
73 230 m 0
 99 376 228 470 378 470 c 0
 528 470 625 376 599 230 c 0
 573 84 443 -10 293 -10 c 0
 143 -10 47 84 73 230 c 0
229 230 m 0
 216 159 256 115 315 115 c 0
 374 115 430 159 443 230 c 0
 456 301 415 346 356 346 c 0
 297 346 242 301 229 230 c 0
203 596 m 1
 222 645 276 691 340 691 c 0
 406 691 412 639 468 639 c 0
 494 639 516 660 542 692 c 1
 600 618 l 1
 577 581 513 532 451 532 c 0
 396 532 371 586 321 586 c 0
 283 586 267 549 264 534 c 1
 203 596 l 1
EndSplineSet
EndChar

StartChar: odieresis
Encoding: 246 246 237
Width: 589
VWidth: 0
Flags: HW
LayerCount: 2
Fore
SplineSet
73 230 m 0
 99 376 228 470 378 470 c 0
 528 470 625 376 599 230 c 0
 573 84 443 -10 293 -10 c 0
 143 -10 47 84 73 230 c 0
229 230 m 0
 216 159 256 115 315 115 c 0
 374 115 430 159 443 230 c 0
 456 301 415 346 356 346 c 0
 297 346 242 301 229 230 c 0
434 634 m 0
 443 684 489 727 544 727 c 0
 599 727 632 684 623 634 c 0
 614 584 567 542 512 542 c 0
 457 542 425 584 434 634 c 0
190 634 m 0
 199 684 246 727 301 727 c 0
 356 727 389 684 380 634 c 0
 371 584 324 542 269 542 c 0
 214 542 181 584 190 634 c 0
EndSplineSet
EndChar

StartChar: ugrave
Encoding: 249 249 238
Width: 575
VWidth: 0
Flags: HW
LayerCount: 2
Fore
SplineSet
364 0 m 1
 445 460 l 1
 597 460 l 1
 516 0 l 1
 364 0 l 1
250 180 m 2
 240 126 251 96 301 96 c 0
 349 96 386 126 396 180 c 1
 427 186 l 1
 408 77 336 -10 222 -10 c 0
 108 -10 69 52 89 164 c 2
 141 460 l 1
 299 460 l 1
 250 180 l 2
263 688 m 1
 388 740 l 1
 510 580 l 1
 417 538 l 1
 263 688 l 1
EndSplineSet
EndChar

StartChar: uacute
Encoding: 250 250 239
Width: 575
VWidth: 0
Flags: HW
LayerCount: 2
Fore
SplineSet
364 0 m 1
 445 460 l 1
 597 460 l 1
 516 0 l 1
 364 0 l 1
250 180 m 2
 240 126 251 96 301 96 c 0
 349 96 386 126 396 180 c 1
 427 186 l 1
 408 77 336 -10 222 -10 c 0
 108 -10 69 52 89 164 c 2
 141 460 l 1
 299 460 l 1
 250 180 l 2
553 688 m 1
 347 538 l 1
 269 580 l 1
 447 740 l 1
 553 688 l 1
EndSplineSet
EndChar

StartChar: ucircumflex
Encoding: 251 251 240
Width: 575
VWidth: 0
Flags: HW
LayerCount: 2
Fore
SplineSet
364 0 m 1
 445 460 l 1
 597 460 l 1
 516 0 l 1
 364 0 l 1
250 180 m 2
 240 126 251 96 301 96 c 0
 349 96 386 126 396 180 c 1
 427 186 l 1
 408 77 336 -10 222 -10 c 0
 108 -10 69 52 89 164 c 2
 141 460 l 1
 299 460 l 1
 250 180 l 2
397 624 m 1
 291 538 l 1
 198 610 l 1
 419 750 l 1
 592 610 l 1
 473 538 l 1
 397 624 l 1
EndSplineSet
EndChar

StartChar: udieresis
Encoding: 252 252 241
Width: 575
VWidth: 0
Flags: HW
LayerCount: 2
Fore
SplineSet
364 0 m 1
 445 460 l 1
 597 460 l 1
 516 0 l 1
 364 0 l 1
250 180 m 2
 240 126 251 96 301 96 c 0
 349 96 386 126 396 180 c 1
 427 186 l 1
 408 77 336 -10 222 -10 c 0
 108 -10 69 52 89 164 c 2
 141 460 l 1
 299 460 l 1
 250 180 l 2
427 630 m 0
 436 680 482 723 537 723 c 0
 592 723 624 680 615 630 c 0
 606 580 560 538 505 538 c 0
 450 538 418 580 427 630 c 0
183 630 m 0
 192 680 238 723 293 723 c 0
 348 723 380 680 371 630 c 0
 362 580 316 538 261 538 c 0
 206 538 174 580 183 630 c 0
EndSplineSet
EndChar

StartChar: yacute
Encoding: 253 253 242
Width: 521
VWidth: 0
Flags: HW
LayerCount: 2
Fore
SplineSet
611 460 m 1
 191 -220 l 1
 39 -220 l 1
 197 37 l 1
 71 460 l 1
 239 460 l 1
 322 90 l 1
 244 92 l 1
 456 460 l 1
 611 460 l 1
543 688 m 1
 337 538 l 1
 258 580 l 1
 436 740 l 1
 543 688 l 1
EndSplineSet
EndChar

StartChar: thorn
Encoding: 254 254 243
Width: 616
VWidth: 0
Flags: HW
LayerCount: 2
Fore
SplineSet
281 405 m 1
 141 -220 l 1
 85 155 l 1
 226 780 l 1
 281 405 l 1
626 230 m 0
 598 74 476 -10 364 -10 c 0
 249 -10 182 81 208 230 c 0
 234 379 334 470 449 470 c 0
 561 470 654 386 626 230 c 0
467 230 m 0
 480 302 437 348 377 348 c 0
 326 348 264 305 251 230 c 0
 238 155 285 112 336 112 c 0
 396 112 454 158 467 230 c 0
EndSplineSet
EndChar

StartChar: ydieresis
Encoding: 255 255 244
Width: 521
VWidth: 0
Flags: HW
LayerCount: 2
Fore
SplineSet
611 460 m 1
 191 -220 l 1
 39 -220 l 1
 197 37 l 1
 71 460 l 1
 239 460 l 1
 322 90 l 1
 244 92 l 1
 456 460 l 1
 611 460 l 1
398 623 m 0
 407 673 453 716 508 716 c 0
 563 716 596 673 587 623 c 0
 578 573 530 530 475 530 c 0
 420 530 389 573 398 623 c 0
154 623 m 0
 163 673 210 716 265 716 c 0
 320 716 352 673 343 623 c 0
 334 573 287 530 232 530 c 0
 177 530 145 573 154 623 c 0
EndSplineSet
EndChar

StartChar: Amacron
Encoding: 256 256 245
Width: 735
VWidth: 0
Flags: HW
LayerCount: 2
Fore
SplineSet
208 135 m 1
 243 264 l 1
 591 264 l 1
 578 135 l 1
 208 135 l 1
446 442 m 1
 308 217 l 1
 309 179 l 1
 190 0 l 1
 -2 0 l 1
 499 744 l 1
 736 0 l 1
 544 0 l 1
 490 172 l 1
 504 216 l 1
 446 442 l 1
324 804 m 1
 347 936 l 1
 718 936 l 1
 695 804 l 1
 324 804 l 1
EndSplineSet
EndChar

StartChar: amacron
Encoding: 257 257 246
Width: 544
VWidth: 0
Flags: HW
LayerCount: 2
Fore
SplineSet
200 138 m 0
 194 104 218 89 258 89 c 0
 313 89 365 112 378 186 c 1
 384 130 l 1
 368 41 284 -10 189 -10 c 0
 87 -10 32 41 47 128 c 0
 64 222 154 279 272 279 c 0
 341 279 403 252 419 230 c 1
 406 158 l 1
 377 184 345 197 293 197 c 0
 241 197 206 174 200 138 c 0
174 318 m 1
 140 420 l 1
 197 445 276 473 359 473 c 0
 483 473 564 420 547 324 c 2
 490 0 l 1
 345 0 l 1
 397 294 l 2
 404 333 377 358 327 358 c 0
 261 358 198 331 174 318 c 1
185 540 m 1
 208 672 l 1
 580 672 l 1
 557 540 l 1
 185 540 l 1
EndSplineSet
Substitution2: "alt a" amacron.alt
EndChar

StartChar: breve
Encoding: 728 728 247
Width: 546
VWidth: 0
Flags: HW
LayerCount: 2
Fore
SplineSet
258 850 m 1
 358 850 l 1
 352 814 373 790 412 790 c 0
 451 790 482 814 488 850 c 1
 588 850 l 1
 574 768 502 704 397 704 c 0
 292 704 244 768 258 850 c 1
EndSplineSet
EndChar

StartChar: Abreve
Encoding: 258 258 248
Width: 735
VWidth: 0
Flags: HW
LayerCount: 2
Fore
SplineSet
208 135 m 1
 243 264 l 1
 591 264 l 1
 578 135 l 1
 208 135 l 1
446 442 m 1
 308 217 l 1
 309 179 l 1
 190 0 l 1
 -2 0 l 1
 499 744 l 1
 736 0 l 1
 544 0 l 1
 490 172 l 1
 504 216 l 1
 446 442 l 1
371 950 m 1
 470 950 l 1
 464 914 486 891 525 891 c 0
 564 891 594 914 600 950 c 1
 700 950 l 1
 686 868 615 804 510 804 c 0
 405 804 357 868 371 950 c 1
EndSplineSet
EndChar

StartChar: abreve
Encoding: 259 259 249
Width: 544
VWidth: 0
Flags: HW
LayerCount: 2
Fore
SplineSet
200 138 m 0
 194 104 218 89 258 89 c 0
 313 89 365 112 378 186 c 1
 384 130 l 1
 368 41 284 -10 189 -10 c 0
 87 -10 32 41 47 128 c 0
 64 222 154 279 272 279 c 0
 341 279 403 252 419 230 c 1
 406 158 l 1
 377 184 345 197 293 197 c 0
 241 197 206 174 200 138 c 0
174 318 m 1
 140 420 l 1
 197 445 276 473 359 473 c 0
 483 473 564 420 547 324 c 2
 490 0 l 1
 345 0 l 1
 397 294 l 2
 404 333 377 358 327 358 c 0
 261 358 198 331 174 318 c 1
232 680 m 1
 331 680 l 1
 325 644 346 620 385 620 c 0
 424 620 456 644 462 680 c 1
 560 680 l 1
 546 598 475 533 370 533 c 0
 265 533 218 598 232 680 c 1
EndSplineSet
Substitution2: "alt a" abreve.alt
EndChar

StartChar: Aogonek
Encoding: 260 260 250
Width: 735
VWidth: 0
Flags: HW
LayerCount: 2
Fore
SplineSet
208 135 m 1
 243 264 l 1
 591 264 l 1
 578 135 l 1
 208 135 l 1
446 442 m 1
 308 217 l 1
 309 179 l 1
 190 0 l 1
 -2 0 l 1
 499 744 l 1
 736 0 l 1
 544 0 l 1
 490 172 l 1
 504 216 l 1
 446 442 l 1
686 -103 m 1
 706 -172 l 1
 687 -192 655 -212 599 -212 c 0
 534 -212 488 -178 500 -112 c 1
 603 -86 l 1
 599 -111 608 -123 632 -123 c 0
 652 -123 670 -116 686 -103 c 1
603 -86 m 1
 500 -112 l 1
 512 -46 588 -3 664 33 c 1
 699 8 l 1
 642 -20 608 -56 603 -86 c 1
EndSplineSet
EndChar

StartChar: aogonek
Encoding: 261 261 251
Width: 544
VWidth: 0
Flags: HW
LayerCount: 2
Fore
SplineSet
200 138 m 0
 194 104 218 89 258 89 c 0
 313 89 365 112 378 186 c 1
 384 130 l 1
 368 41 284 -10 189 -10 c 0
 87 -10 32 41 47 128 c 0
 64 222 154 279 272 279 c 0
 341 279 403 252 419 230 c 1
 406 158 l 1
 377 184 345 197 293 197 c 0
 241 197 206 174 200 138 c 0
174 318 m 1
 140 420 l 1
 197 445 276 473 359 473 c 0
 483 473 564 420 547 324 c 2
 490 0 l 1
 345 0 l 1
 397 294 l 2
 404 333 377 358 327 358 c 0
 261 358 198 331 174 318 c 1
454 -110 m 1
 475 -178 l 1
 456 -198 424 -218 368 -218 c 0
 303 -218 256 -184 268 -118 c 1
 372 -92 l 1
 368 -117 376 -130 400 -130 c 0
 420 -130 438 -123 454 -110 c 1
372 -92 m 1
 268 -118 l 1
 280 -52 356 -9 432 27 c 1
 468 2 l 1
 411 -26 377 -62 372 -92 c 1
EndSplineSet
Substitution2: "alt a" aogonek.alt
EndChar

StartChar: Cacute
Encoding: 262 262 252
Width: 700
VWidth: 0
Flags: HW
LayerCount: 2
Fore
SplineSet
281 350 m 0
 258 222 341 145 454 145 c 0
 553 145 624 188 679 238 c 1
 647 54 l 1
 583 11 517 -16 415 -16 c 0
 190 -16 58 132 96 350 c 0
 134 568 319 716 544 716 c 0
 646 716 703 689 751 646 c 1
 718 462 l 1
 681 512 625 555 526 555 c 0
 413 555 304 478 281 350 c 0
711 926 m 1
 505 776 l 1
 426 819 l 1
 605 979 l 1
 711 926 l 1
EndSplineSet
EndChar

StartChar: cacute
Encoding: 263 263 253
Width: 493
VWidth: 0
Flags: HW
LayerCount: 2
Fore
SplineSet
227 230 m 0
 214 156 259 110 327 110 c 0
 382 110 440 135 476 179 c 1
 450 32 l 1
 413 6 364 -10 294 -10 c 0
 140 -10 45 84 71 230 c 0
 97 376 225 470 379 470 c 0
 449 470 492 452 520 430 c 1
 494 282 l 1
 474 326 419 350 370 350 c 0
 302 350 239 298 227 230 c 0
546 680 m 1
 339 530 l 1
 261 573 l 1
 439 733 l 1
 546 680 l 1
EndSplineSet
EndChar

StartChar: Ccircumflex
Encoding: 264 264 254
Width: 700
VWidth: 0
Flags: HW
LayerCount: 2
Fore
SplineSet
281 350 m 0
 258 222 341 145 454 145 c 0
 553 145 624 188 679 238 c 1
 647 54 l 1
 583 11 517 -16 415 -16 c 0
 190 -16 58 132 96 350 c 0
 134 568 319 716 544 716 c 0
 646 716 703 689 751 646 c 1
 718 462 l 1
 681 512 625 555 526 555 c 0
 413 555 304 478 281 350 c 0
570 862 m 1
 464 776 l 1
 370 848 l 1
 592 988 l 1
 766 848 l 1
 647 776 l 1
 570 862 l 1
EndSplineSet
EndChar

StartChar: ccircumflex
Encoding: 265 265 255
Width: 493
VWidth: 0
Flags: HW
LayerCount: 2
Fore
SplineSet
227 230 m 0
 214 156 259 110 327 110 c 0
 382 110 440 135 476 179 c 1
 450 32 l 1
 413 6 364 -10 294 -10 c 0
 140 -10 45 84 71 230 c 0
 97 376 225 470 379 470 c 0
 449 470 492 452 520 430 c 1
 494 282 l 1
 474 326 419 350 370 350 c 0
 302 350 239 298 227 230 c 0
374 616 m 1
 267 530 l 1
 174 602 l 1
 396 742 l 1
 568 602 l 1
 449 530 l 1
 374 616 l 1
EndSplineSet
EndChar

StartChar: Cdotaccent
Encoding: 266 266 256
Width: 700
VWidth: 0
Flags: HW
LayerCount: 2
Fore
SplineSet
281 350 m 0
 258 222 341 145 454 145 c 0
 553 145 624 188 679 238 c 1
 647 54 l 1
 583 11 517 -16 415 -16 c 0
 190 -16 58 132 96 350 c 0
 134 568 319 716 544 716 c 0
 646 716 703 689 751 646 c 1
 718 462 l 1
 681 512 625 555 526 555 c 0
 413 555 304 478 281 350 c 0
477 868 m 0
 486 918 532 961 587 961 c 0
 642 961 674 918 665 868 c 0
 656 818 610 776 555 776 c 0
 500 776 468 818 477 868 c 0
EndSplineSet
EndChar

StartChar: cdotaccent
Encoding: 267 267 257
Width: 493
VWidth: 0
Flags: HW
LayerCount: 2
Fore
SplineSet
227 230 m 0
 214 156 259 110 327 110 c 0
 382 110 440 135 476 179 c 1
 450 32 l 1
 413 6 364 -10 294 -10 c 0
 140 -10 45 84 71 230 c 0
 97 376 225 470 379 470 c 0
 449 470 492 452 520 430 c 1
 494 282 l 1
 474 326 419 350 370 350 c 0
 302 350 239 298 227 230 c 0
295 636 m 0
 304 686 351 728 406 728 c 0
 461 728 493 686 484 636 c 0
 475 586 429 543 374 543 c 0
 319 543 286 586 295 636 c 0
EndSplineSet
EndChar

StartChar: Ccaron
Encoding: 268 268 258
Width: 700
VWidth: 0
Flags: HW
LayerCount: 2
Fore
SplineSet
281 350 m 0
 258 222 341 145 454 145 c 0
 553 145 624 188 679 238 c 1
 647 54 l 1
 583 11 517 -16 415 -16 c 0
 190 -16 58 132 96 350 c 0
 134 568 319 716 544 716 c 0
 646 716 703 689 751 646 c 1
 718 462 l 1
 681 512 625 555 526 555 c 0
 413 555 304 478 281 350 c 0
577 902 m 1
 684 988 l 1
 778 916 l 1
 555 776 l 1
 382 916 l 1
 501 988 l 1
 577 902 l 1
EndSplineSet
EndChar

StartChar: ccaron
Encoding: 269 269 259
Width: 493
VWidth: 0
Flags: HW
LayerCount: 2
Fore
SplineSet
227 230 m 0
 214 156 259 110 327 110 c 0
 382 110 440 135 476 179 c 1
 450 32 l 1
 413 6 364 -10 294 -10 c 0
 140 -10 45 84 71 230 c 0
 97 376 225 470 379 470 c 0
 449 470 492 452 520 430 c 1
 494 282 l 1
 474 326 419 350 370 350 c 0
 302 350 239 298 227 230 c 0
381 656 m 1
 487 742 l 1
 580 670 l 1
 358 530 l 1
 186 670 l 1
 305 742 l 1
 381 656 l 1
EndSplineSet
EndChar

StartChar: Dcaron
Encoding: 270 270 260
Width: 733
VWidth: 0
Flags: HW
LayerCount: 2
Fore
SplineSet
283 550 m 1
 309 700 l 1
 447 700 l 2
 676 700 800 566 762 350 c 1
 586 350 l 1
 612 500 523 550 415 550 c 2
 283 550 l 1
324 0 m 2
 186 0 l 1
 212 150 l 1
 344 150 l 2
 452 150 560 200 586 350 c 1
 762 350 l 1
 724 134 553 0 324 0 c 2
197 700 m 1
 371 700 l 1
 248 0 l 1
 74 0 l 1
 197 700 l 1
523 902 m 1
 629 988 l 1
 723 916 l 1
 501 776 l 1
 328 916 l 1
 446 988 l 1
 523 902 l 1
EndSplineSet
EndChar

StartChar: dcaron
Encoding: 271 271 261
Width: 616
VWidth: 0
Flags: HW
LayerCount: 2
Fore
SplineSet
546 780 m 1
 698 780 l 1
 560 0 l 1
 408 0 l 1
 546 780 l 1
73 230 m 0
 101 386 221 470 333 470 c 0
 448 470 517 379 491 230 c 0
 465 81 363 -10 248 -10 c 0
 136 -10 45 74 73 230 c 0
232 230 m 0
 219 158 261 112 321 112 c 0
 372 112 436 155 449 230 c 0
 462 305 413 348 362 348 c 0
 302 348 245 302 232 230 c 0
816 780 m 1
 961 748 l 1
 792 498 l 1
 682 521 l 1
 816 780 l 1
EndSplineSet
EndChar

StartChar: Dcroat
Encoding: 272 272 262
Width: 733
VWidth: 0
Flags: HW
LayerCount: 2
Fore
SplineSet
283 550 m 1
 309 700 l 1
 447 700 l 2
 676 700 800 566 762 350 c 1
 586 350 l 1
 612 500 523 550 415 550 c 2
 283 550 l 1
324 0 m 2
 186 0 l 1
 212 150 l 1
 344 150 l 2
 452 150 560 200 586 350 c 1
 762 350 l 1
 724 134 553 0 324 0 c 2
197 700 m 1
 371 700 l 1
 248 0 l 1
 74 0 l 1
 197 700 l 1
58 298 m 1
 75 398 l 1
 418 398 l 1
 401 298 l 1
 58 298 l 1
EndSplineSet
EndChar

StartChar: dcroat
Encoding: 273 273 263
Width: 616
VWidth: 0
Flags: HW
LayerCount: 2
Fore
SplineSet
395 565 m 1
 412 665 l 1
 769 665 l 1
 752 565 l 1
 395 565 l 1
546 780 m 1
 698 780 l 1
 560 0 l 1
 408 0 l 1
 546 780 l 1
73 230 m 0
 101 386 221 470 333 470 c 0
 448 470 517 379 491 230 c 0
 465 81 363 -10 248 -10 c 0
 136 -10 45 74 73 230 c 0
232 230 m 0
 219 158 261 112 321 112 c 0
 372 112 436 155 449 230 c 0
 462 305 413 348 362 348 c 0
 302 348 245 302 232 230 c 0
EndSplineSet
EndChar

StartChar: Emacron
Encoding: 274 274 264
Width: 603
VWidth: 0
Flags: HW
LayerCount: 2
Fore
SplineSet
186 0 m 1
 211 140 l 1
 565 140 l 1
 540 0 l 1
 186 0 l 1
285 560 m 1
 309 700 l 1
 663 700 l 1
 639 560 l 1
 285 560 l 1
239 300 m 1
 263 436 l 1
 597 436 l 1
 573 300 l 1
 239 300 l 1
197 700 m 1
 360 700 l 1
 237 0 l 1
 74 0 l 1
 197 700 l 1
257 776 m 1
 280 908 l 1
 652 908 l 1
 629 776 l 1
 257 776 l 1
EndSplineSet
EndChar

StartChar: emacron
Encoding: 275 275 265
Width: 573
VWidth: 0
Flags: HW
LayerCount: 2
Fore
SplineSet
131 198 m 1
 146 282 l 1
 572 282 l 1
 573 198 l 1
 131 198 l 1
423 244 m 2
 437 324 418 369 353 369 c 0
 292 369 245 328 232 254 c 1
 226 230 l 1
 209 136 250 100 309 100 c 0
 363 100 404 120 433 158 c 1
 563 126 l 1
 503 44 424 -10 292 -10 c 0
 124 -10 48 91 73 230 c 0
 76 247 79 263 85 279 c 0
 124 392 224 470 374 470 c 0
 535 470 608 382 582 237 c 0
 581 229 578 214 573 198 c 1
 418 218 l 1
 423 244 l 2
199 530 m 1
 223 662 l 1
 594 662 l 1
 570 530 l 1
 199 530 l 1
EndSplineSet
EndChar

StartChar: Ebreve
Encoding: 276 276 266
Width: 603
VWidth: 0
Flags: HW
LayerCount: 2
Fore
SplineSet
186 0 m 1
 211 140 l 1
 565 140 l 1
 540 0 l 1
 186 0 l 1
285 560 m 1
 309 700 l 1
 663 700 l 1
 639 560 l 1
 285 560 l 1
239 300 m 1
 263 436 l 1
 597 436 l 1
 573 300 l 1
 239 300 l 1
197 700 m 1
 360 700 l 1
 237 0 l 1
 74 0 l 1
 197 700 l 1
305 922 m 1
 404 922 l 1
 398 886 419 863 458 863 c 0
 497 863 529 886 535 922 c 1
 633 922 l 1
 619 840 548 776 443 776 c 0
 338 776 291 840 305 922 c 1
EndSplineSet
EndChar

StartChar: ebreve
Encoding: 277 277 267
Width: 573
VWidth: 0
Flags: HW
LayerCount: 2
Fore
SplineSet
131 198 m 1
 146 282 l 1
 572 282 l 1
 573 198 l 1
 131 198 l 1
423 244 m 2
 437 324 418 369 353 369 c 0
 292 369 245 328 232 254 c 1
 226 230 l 1
 209 136 250 100 309 100 c 0
 363 100 404 120 433 158 c 1
 563 126 l 1
 503 44 424 -10 292 -10 c 0
 124 -10 48 91 73 230 c 0
 76 247 79 263 85 279 c 0
 124 392 224 470 374 470 c 0
 535 470 608 382 582 237 c 0
 581 229 578 214 573 198 c 1
 418 218 l 1
 423 244 l 2
246 677 m 1
 345 677 l 1
 339 641 361 618 400 618 c 0
 439 618 469 641 475 677 c 1
 575 677 l 1
 561 595 489 530 384 530 c 0
 279 530 232 595 246 677 c 1
EndSplineSet
EndChar

StartChar: Edotaccent
Encoding: 278 278 268
Width: 603
VWidth: 0
Flags: HW
LayerCount: 2
Fore
SplineSet
186 0 m 1
 211 140 l 1
 565 140 l 1
 540 0 l 1
 186 0 l 1
285 560 m 1
 309 700 l 1
 663 700 l 1
 639 560 l 1
 285 560 l 1
239 300 m 1
 263 436 l 1
 597 436 l 1
 573 300 l 1
 239 300 l 1
197 700 m 1
 360 700 l 1
 237 0 l 1
 74 0 l 1
 197 700 l 1
365 868 m 0
 374 918 420 961 475 961 c 0
 530 961 562 918 553 868 c 0
 544 818 498 776 443 776 c 0
 388 776 356 818 365 868 c 0
EndSplineSet
EndChar

StartChar: edotaccent
Encoding: 279 279 269
Width: 573
VWidth: 0
Flags: HW
LayerCount: 2
Fore
SplineSet
131 198 m 1
 146 282 l 1
 572 282 l 1
 573 198 l 1
 131 198 l 1
423 244 m 2
 437 324 418 369 353 369 c 0
 292 369 245 328 232 254 c 1
 226 230 l 1
 209 136 250 100 309 100 c 0
 363 100 404 120 433 158 c 1
 563 126 l 1
 503 44 424 -10 292 -10 c 0
 124 -10 48 91 73 230 c 0
 76 247 79 263 85 279 c 0
 124 392 224 470 374 470 c 0
 535 470 608 382 582 237 c 0
 581 229 578 214 573 198 c 1
 418 218 l 1
 423 244 l 2
307 623 m 0
 316 673 362 716 417 716 c 0
 472 716 505 673 496 623 c 0
 487 573 439 530 384 530 c 0
 329 530 298 573 307 623 c 0
EndSplineSet
EndChar

StartChar: Eogonek
Encoding: 280 280 270
Width: 603
VWidth: 0
Flags: HW
LayerCount: 2
Fore
SplineSet
186 0 m 1
 211 140 l 1
 565 140 l 1
 540 0 l 1
 186 0 l 1
285 560 m 1
 309 700 l 1
 663 700 l 1
 639 560 l 1
 285 560 l 1
239 300 m 1
 263 436 l 1
 597 436 l 1
 573 300 l 1
 239 300 l 1
197 700 m 1
 360 700 l 1
 237 0 l 1
 74 0 l 1
 197 700 l 1
497 -110 m 1
 518 -178 l 1
 499 -198 466 -218 410 -218 c 0
 345 -218 298 -184 310 -118 c 1
 414 -92 l 1
 410 -117 419 -130 443 -130 c 0
 463 -130 481 -123 497 -110 c 1
414 -92 m 1
 310 -118 l 1
 322 -52 399 -10 475 26 c 1
 511 2 l 1
 454 -26 419 -62 414 -92 c 1
EndSplineSet
EndChar

StartChar: eogonek
Encoding: 281 281 271
Width: 573
VWidth: 0
Flags: HW
LayerCount: 2
Fore
SplineSet
131 198 m 1
 146 282 l 1
 572 282 l 1
 573 198 l 1
 131 198 l 1
423 244 m 2
 437 324 418 369 353 369 c 0
 292 369 245 328 232 254 c 1
 226 230 l 1
 209 136 250 100 309 100 c 0
 363 100 404 120 433 158 c 1
 563 126 l 1
 503 44 424 -10 292 -10 c 0
 124 -10 48 91 73 230 c 0
 76 247 79 263 85 279 c 0
 124 392 224 470 374 470 c 0
 535 470 608 382 582 237 c 0
 581 229 578 214 573 198 c 1
 418 218 l 1
 423 244 l 2
314 -116 m 1
 333 -186 l 1
 314 -206 282 -226 226 -226 c 0
 161 -226 115 -192 127 -126 c 1
 230 -100 l 1
 226 -125 236 -136 260 -136 c 0
 280 -136 298 -129 314 -116 c 1
230 -100 m 1
 127 -126 l 1
 139 -60 216 -16 292 20 c 1
 327 -6 l 1
 270 -34 235 -70 230 -100 c 1
EndSplineSet
EndChar

StartChar: Ecaron
Encoding: 282 282 272
Width: 603
VWidth: 0
Flags: HW
LayerCount: 2
Fore
SplineSet
186 0 m 1
 211 140 l 1
 565 140 l 1
 540 0 l 1
 186 0 l 1
285 560 m 1
 309 700 l 1
 663 700 l 1
 639 560 l 1
 285 560 l 1
239 300 m 1
 263 436 l 1
 597 436 l 1
 573 300 l 1
 239 300 l 1
197 700 m 1
 360 700 l 1
 237 0 l 1
 74 0 l 1
 197 700 l 1
465 902 m 1
 572 988 l 1
 666 916 l 1
 443 776 l 1
 271 916 l 1
 389 988 l 1
 465 902 l 1
EndSplineSet
EndChar

StartChar: ecaron
Encoding: 283 283 273
Width: 573
VWidth: 0
Flags: HW
LayerCount: 2
Fore
SplineSet
131 198 m 1
 146 282 l 1
 572 282 l 1
 573 198 l 1
 131 198 l 1
423 244 m 2
 437 324 418 369 353 369 c 0
 292 369 245 328 232 254 c 1
 226 230 l 1
 209 136 250 100 309 100 c 0
 363 100 404 120 433 158 c 1
 563 126 l 1
 503 44 424 -10 292 -10 c 0
 124 -10 48 91 73 230 c 0
 76 247 79 263 85 279 c 0
 124 392 224 470 374 470 c 0
 535 470 608 382 582 237 c 0
 581 229 578 214 573 198 c 1
 418 218 l 1
 423 244 l 2
407 656 m 1
 513 742 l 1
 606 670 l 1
 384 530 l 1
 212 670 l 1
 331 742 l 1
 407 656 l 1
EndSplineSet
EndChar

StartChar: Gcircumflex
Encoding: 284 284 274
Width: 814
VWidth: 0
Flags: HW
LayerCount: 2
Fore
SplineSet
465 253 m 1
 488 383 l 1
 843 383 l 1
 731 253 l 1
 465 253 l 1
843 383 m 1
 816 161 652 -22 413 -22 c 0
 190 -22 57 128 96 350 c 0
 135 572 326 716 549 716 c 0
 697 716 787 647 836 550 c 1
 671 472 l 1
 649 527 605 568 523 568 c 0
 406 568 297 488 273 350 c 0
 249 212 322 125 445 125 c 0
 601 125 667 245 691 380 c 1
 843 383 l 1
575 862 m 1
 469 776 l 1
 376 848 l 1
 597 988 l 1
 770 848 l 1
 651 776 l 1
 575 862 l 1
EndSplineSet
EndChar

StartChar: gcircumflex
Encoding: 285 285 275
Width: 610
VWidth: 0
Flags: HW
LayerCount: 2
Fore
SplineSet
492 236 m 1
 450 236 l 1
 463 311 413 348 362 348 c 0
 302 348 246 308 233 236 c 1
 74 236 l 1
 102 392 221 470 333 470 c 0
 448 470 518 385 492 236 c 1
450 236 m 1
 492 236 l 1
 466 87 365 2 250 2 c 0
 138 2 46 80 74 236 c 1
 233 236 l 1
 220 164 263 124 323 124 c 0
 374 124 437 161 450 236 c 1
36 -33 m 1
 182 -33 l 1
 177 -89 213 -118 272 -118 c 0
 336 -118 395 -75 410 10 c 2
 489 460 l 1
 634 460 l 1
 555 10 l 2
 524 -168 398 -240 258 -240 c 0
 86 -240 25 -155 36 -33 c 1
415 616 m 1
 309 530 l 1
 216 602 l 1
 437 742 l 1
 610 602 l 1
 491 530 l 1
 415 616 l 1
EndSplineSet
EndChar

StartChar: Gbreve
Encoding: 286 286 276
Width: 814
VWidth: 0
Flags: HW
LayerCount: 2
Fore
SplineSet
465 253 m 1
 488 383 l 1
 843 383 l 1
 731 253 l 1
 465 253 l 1
843 383 m 1
 816 161 652 -22 413 -22 c 0
 190 -22 57 128 96 350 c 0
 135 572 326 716 549 716 c 0
 697 716 787 647 836 550 c 1
 671 472 l 1
 649 527 605 568 523 568 c 0
 406 568 297 488 273 350 c 0
 249 212 322 125 445 125 c 0
 601 125 667 245 691 380 c 1
 843 383 l 1
422 922 m 1
 521 922 l 1
 515 886 536 863 575 863 c 0
 614 863 645 886 651 922 c 1
 751 922 l 1
 737 840 665 776 560 776 c 0
 455 776 408 840 422 922 c 1
EndSplineSet
EndChar

StartChar: gbreve
Encoding: 287 287 277
Width: 610
VWidth: 0
Flags: HW
LayerCount: 2
Fore
SplineSet
492 236 m 1
 450 236 l 1
 463 311 413 348 362 348 c 0
 302 348 246 308 233 236 c 1
 74 236 l 1
 102 392 221 470 333 470 c 0
 448 470 518 385 492 236 c 1
450 236 m 1
 492 236 l 1
 466 87 365 2 250 2 c 0
 138 2 46 80 74 236 c 1
 233 236 l 1
 220 164 263 124 323 124 c 0
 374 124 437 161 450 236 c 1
36 -33 m 1
 182 -33 l 1
 177 -89 213 -118 272 -118 c 0
 336 -118 395 -75 410 10 c 2
 489 460 l 1
 634 460 l 1
 555 10 l 2
 524 -168 398 -240 258 -240 c 0
 86 -240 25 -155 36 -33 c 1
267 677 m 1
 367 677 l 1
 361 641 383 618 422 618 c 0
 461 618 491 641 497 677 c 1
 597 677 l 1
 583 595 511 530 406 530 c 0
 301 530 253 595 267 677 c 1
EndSplineSet
EndChar

StartChar: Gdotaccent
Encoding: 288 288 278
Width: 814
VWidth: 0
Flags: HW
LayerCount: 2
Fore
SplineSet
465 253 m 1
 488 383 l 1
 843 383 l 1
 731 253 l 1
 465 253 l 1
843 383 m 1
 816 161 652 -22 413 -22 c 0
 190 -22 57 128 96 350 c 0
 135 572 326 716 549 716 c 0
 697 716 787 647 836 550 c 1
 671 472 l 1
 649 527 605 568 523 568 c 0
 406 568 297 488 273 350 c 0
 249 212 322 125 445 125 c 0
 601 125 667 245 691 380 c 1
 843 383 l 1
482 868 m 0
 491 918 537 961 592 961 c 0
 647 961 680 918 671 868 c 0
 662 818 615 776 560 776 c 0
 505 776 473 818 482 868 c 0
EndSplineSet
EndChar

StartChar: gdotaccent
Encoding: 289 289 279
Width: 610
VWidth: 0
Flags: HW
LayerCount: 2
Fore
SplineSet
492 236 m 1
 450 236 l 1
 463 311 413 348 362 348 c 0
 302 348 246 308 233 236 c 1
 74 236 l 1
 102 392 221 470 333 470 c 0
 448 470 518 385 492 236 c 1
450 236 m 1
 492 236 l 1
 466 87 365 2 250 2 c 0
 138 2 46 80 74 236 c 1
 233 236 l 1
 220 164 263 124 323 124 c 0
 374 124 437 161 450 236 c 1
36 -33 m 1
 182 -33 l 1
 177 -89 213 -118 272 -118 c 0
 336 -118 395 -75 410 10 c 2
 489 460 l 1
 634 460 l 1
 555 10 l 2
 524 -168 398 -240 258 -240 c 0
 86 -240 25 -155 36 -33 c 1
322 623 m 0
 331 673 377 716 432 716 c 0
 487 716 520 673 511 623 c 0
 502 573 454 530 399 530 c 0
 344 530 313 573 322 623 c 0
EndSplineSet
EndChar

StartChar: uni0122
Encoding: 290 290 280
Width: 814
VWidth: 0
Flags: HW
LayerCount: 2
Fore
SplineSet
465 253 m 1
 488 383 l 1
 843 383 l 1
 731 253 l 1
 465 253 l 1
843 383 m 1
 816 161 652 -22 413 -22 c 0
 190 -22 57 128 96 350 c 0
 135 572 326 716 549 716 c 0
 697 716 787 647 836 550 c 1
 671 472 l 1
 649 527 605 568 523 568 c 0
 406 568 297 488 273 350 c 0
 249 212 322 125 445 125 c 0
 601 125 667 245 691 380 c 1
 843 383 l 1
340 -82 m 1
 486 -115 l 1
 316 -365 l 1
 206 -342 l 1
 340 -82 l 1
EndSplineSet
EndChar

StartChar: Hcircumflex
Encoding: 292 292 281
Width: 786
VWidth: 0
Flags: HW
LayerCount: 2
Fore
SplineSet
172 293 m 1
 198 445 l 1
 728 445 l 1
 702 293 l 1
 172 293 l 1
667 700 m 1
 836 700 l 1
 713 0 l 1
 544 0 l 1
 667 700 l 1
197 700 m 1
 366 700 l 1
 243 0 l 1
 74 0 l 1
 197 700 l 1
546 862 m 1
 439 776 l 1
 346 848 l 1
 568 988 l 1
 741 848 l 1
 622 776 l 1
 546 862 l 1
EndSplineSet
EndChar

StartChar: hcircumflex
Encoding: 293 293 282
Width: 568
VWidth: 0
Flags: HW
LayerCount: 2
Fore
SplineSet
350 780 m 1
 212 0 l 1
 60 0 l 1
 198 780 l 1
 350 780 l 1
407 280 m 2
 417 334 405 364 355 364 c 0
 307 364 271 334 261 280 c 1
 231 280 l 1
 250 389 322 477 436 477 c 0
 550 477 583 414 563 302 c 2
 510 0 l 1
 358 0 l 1
 407 280 l 2
395 926 m 1
 289 840 l 1
 195 911 l 1
 417 1051 l 1
 591 911 l 1
 471 840 l 1
 395 926 l 1
EndSplineSet
EndChar

StartChar: Itilde
Encoding: 296 296 283
Width: 320
VWidth: 0
Flags: HW
LayerCount: 2
Fore
SplineSet
197 700 m 1
 369 700 l 1
 246 0 l 1
 74 0 l 1
 197 700 l 1
112 842 m 1
 131 891 184 936 248 936 c 0
 314 936 320 884 376 884 c 0
 402 884 425 906 451 938 c 1
 509 864 l 1
 486 827 421 778 359 778 c 0
 304 778 280 831 230 831 c 0
 192 831 177 795 174 780 c 1
 112 842 l 1
EndSplineSet
EndChar

StartChar: itilde
Encoding: 297 297 284
Width: 276
VWidth: 0
Flags: HW
LayerCount: 2
Fore
SplineSet
145 460 m 1
 292 460 l 1
 211 0 l 1
 64 0 l 1
 145 460 l 1
47 596 m 1
 66 645 119 691 183 691 c 0
 249 691 255 639 311 639 c 0
 337 639 360 660 386 692 c 1
 443 618 l 1
 420 581 356 532 294 532 c 0
 239 532 213 586 163 586 c 0
 125 586 110 549 107 534 c 1
 47 596 l 1
EndSplineSet
EndChar

StartChar: Imacron
Encoding: 298 298 285
Width: 320
VWidth: 0
Flags: HW
LayerCount: 2
Fore
SplineSet
197 700 m 1
 369 700 l 1
 246 0 l 1
 74 0 l 1
 197 700 l 1
111 776 m 1
 134 908 l 1
 506 908 l 1
 483 776 l 1
 111 776 l 1
EndSplineSet
EndChar

StartChar: imacron
Encoding: 299 299 286
Width: 276
VWidth: 0
Flags: HW
LayerCount: 2
Fore
SplineSet
145 460 m 1
 292 460 l 1
 211 0 l 1
 64 0 l 1
 145 460 l 1
45 530 m 1
 69 662 l 1
 441 662 l 1
 417 530 l 1
 45 530 l 1
EndSplineSet
EndChar

StartChar: Ibreve
Encoding: 300 300 287
Width: 320
VWidth: 0
Flags: HW
LayerCount: 2
Fore
SplineSet
197 700 m 1
 369 700 l 1
 246 0 l 1
 74 0 l 1
 197 700 l 1
159 922 m 1
 258 922 l 1
 252 886 273 863 312 863 c 0
 351 863 382 886 388 922 c 1
 487 922 l 1
 473 840 402 776 297 776 c 0
 192 776 145 840 159 922 c 1
EndSplineSet
EndChar

StartChar: ibreve
Encoding: 301 301 288
Width: 276
VWidth: 0
Flags: HW
LayerCount: 2
Fore
SplineSet
145 460 m 1
 292 460 l 1
 211 0 l 1
 64 0 l 1
 145 460 l 1
92 677 m 1
 191 677 l 1
 185 641 208 618 247 618 c 0
 286 618 315 641 321 677 c 1
 421 677 l 1
 407 595 336 530 231 530 c 0
 126 530 78 595 92 677 c 1
EndSplineSet
EndChar

StartChar: Iogonek
Encoding: 302 302 289
Width: 320
VWidth: 0
Flags: HW
LayerCount: 2
Fore
SplineSet
197 700 m 1
 369 700 l 1
 246 0 l 1
 74 0 l 1
 197 700 l 1
204 -116 m 1
 226 -184 l 1
 207 -204 175 -224 119 -224 c 0
 54 -224 6 -190 18 -124 c 1
 122 -98 l 1
 118 -123 126 -136 150 -136 c 0
 170 -136 188 -129 204 -116 c 1
122 -98 m 1
 18 -124 l 1
 30 -58 106 -16 182 20 c 1
 219 -4 l 1
 162 -32 127 -68 122 -98 c 1
EndSplineSet
EndChar

StartChar: iogonek
Encoding: 303 303 290
Width: 276
VWidth: 0
Flags: HW
LayerCount: 2
Fore
SplineSet
161 632 m 0
 169 680 215 714 264 714 c 0
 313 714 345 680 337 632 c 0
 329 584 284 550 235 550 c 0
 186 550 153 584 161 632 c 0
145 460 m 1
 292 460 l 1
 211 0 l 1
 64 0 l 1
 145 460 l 1
182 -116 m 1
 204 -184 l 1
 185 -204 153 -224 97 -224 c 0
 32 -224 -16 -190 -4 -124 c 1
 100 -98 l 1
 96 -123 104 -136 128 -136 c 0
 148 -136 166 -129 182 -116 c 1
100 -98 m 1
 -4 -124 l 1
 8 -58 84 -16 160 20 c 1
 197 -4 l 1
 140 -32 105 -68 100 -98 c 1
EndSplineSet
EndChar

StartChar: Idotaccent
Encoding: 304 304 291
Width: 320
VWidth: 0
Flags: HW
LayerCount: 2
Fore
SplineSet
197 700 m 1
 369 700 l 1
 246 0 l 1
 74 0 l 1
 197 700 l 1
218 868 m 0
 227 918 274 961 329 961 c 0
 384 961 416 918 407 868 c 0
 398 818 352 776 297 776 c 0
 242 776 209 818 218 868 c 0
EndSplineSet
EndChar

StartChar: uni0136
Encoding: 310 310 292
Width: 700
VWidth: 0
Flags: HW
LayerCount: 2
Fore
SplineSet
197 700 m 1
 373 700 l 1
 250 0 l 1
 74 0 l 1
 197 700 l 1
610 700 m 1
 809 700 l 1
 468 372 l 1
 701 0 l 1
 496 0 l 1
 265 367 l 1
 610 700 l 1
319 -60 m 1
 467 -92 l 1
 296 -342 l 1
 186 -319 l 1
 319 -60 l 1
EndSplineSet
EndChar

StartChar: uni0137
Encoding: 311 311 293
Width: 577
VWidth: 0
Flags: HW
LayerCount: 2
Fore
SplineSet
196 780 m 1
 341 780 l 1
 203 0 l 1
 58 0 l 1
 196 780 l 1
451 460 m 1
 632 460 l 1
 402 270 l 1
 571 0 l 1
 393 0 l 1
 222 270 l 1
 451 460 l 1
246 -60 m 1
 394 -92 l 1
 224 -342 l 1
 113 -319 l 1
 246 -60 l 1
EndSplineSet
EndChar

StartChar: Lacute
Encoding: 313 313 294
Width: 528
VWidth: 0
Flags: HW
LayerCount: 2
Fore
SplineSet
186 0 m 1
 212 146 l 1
 550 146 l 1
 524 0 l 1
 186 0 l 1
197 700 m 1
 366 700 l 1
 243 0 l 1
 74 0 l 1
 197 700 l 1
623 926 m 1
 417 776 l 1
 338 819 l 1
 517 979 l 1
 623 926 l 1
EndSplineSet
EndChar

StartChar: lacute
Encoding: 314 314 295
Width: 270
VWidth: 0
Flags: HW
LayerCount: 2
Fore
SplineSet
198 780 m 1
 350 780 l 1
 212 0 l 1
 60 0 l 1
 198 780 l 1
472 990 m 1
 265 840 l 1
 187 882 l 1
 365 1042 l 1
 472 990 l 1
EndSplineSet
EndChar

StartChar: uni013B
Encoding: 315 315 296
Width: 528
VWidth: 0
Flags: HW
LayerCount: 2
Fore
SplineSet
186 0 m 1
 212 146 l 1
 550 146 l 1
 524 0 l 1
 186 0 l 1
197 700 m 1
 366 700 l 1
 243 0 l 1
 74 0 l 1
 197 700 l 1
256 -60 m 1
 403 -92 l 1
 234 -342 l 1
 123 -319 l 1
 256 -60 l 1
EndSplineSet
EndChar

StartChar: uni013C
Encoding: 316 316 297
Width: 270
VWidth: 0
Flags: HW
LayerCount: 2
Fore
SplineSet
198 780 m 1
 350 780 l 1
 212 0 l 1
 60 0 l 1
 198 780 l 1
93 -60 m 1
 240 -92 l 1
 70 -342 l 1
 -40 -319 l 1
 93 -60 l 1
EndSplineSet
EndChar

StartChar: Lcaron
Encoding: 317 317 298
Width: 528
VWidth: 0
Flags: HW
LayerCount: 2
Fore
SplineSet
186 0 m 1
 212 146 l 1
 550 146 l 1
 524 0 l 1
 186 0 l 1
197 700 m 1
 366 700 l 1
 243 0 l 1
 74 0 l 1
 197 700 l 1
516 716 m 1
 663 684 l 1
 493 434 l 1
 383 458 l 1
 516 716 l 1
EndSplineSet
EndChar

StartChar: lcaron
Encoding: 318 318 299
Width: 270
VWidth: 0
Flags: HW
LayerCount: 2
Fore
SplineSet
198 780 m 1
 350 780 l 1
 212 0 l 1
 60 0 l 1
 198 780 l 1
488 780 m 1
 633 748 l 1
 464 498 l 1
 354 521 l 1
 488 780 l 1
EndSplineSet
EndChar

StartChar: Ldot
Encoding: 319 319 300
Width: 528
VWidth: 0
Flags: HW
LayerCount: 2
Fore
SplineSet
186 0 m 1
 212 146 l 1
 550 146 l 1
 524 0 l 1
 186 0 l 1
197 700 m 1
 366 700 l 1
 243 0 l 1
 74 0 l 1
 197 700 l 1
388 418 m 0
 397 468 444 510 499 510 c 0
 554 510 586 468 577 418 c 0
 568 368 521 326 466 326 c 0
 411 326 379 368 388 418 c 0
EndSplineSet
EndChar

StartChar: ldot
Encoding: 320 320 301
Width: 476
VWidth: 0
Flags: HW
LayerCount: 2
Fore
SplineSet
198 780 m 1
 350 780 l 1
 212 0 l 1
 60 0 l 1
 198 780 l 1
324 408 m 0
 333 458 380 501 435 501 c 0
 490 501 523 458 514 408 c 0
 505 358 458 316 403 316 c 0
 348 316 315 358 324 408 c 0
EndSplineSet
EndChar

StartChar: eth
Encoding: 240 240 302
Width: 669
VWidth: 0
Flags: HW
LayerCount: 2
Fore
SplineSet
495 246 m 0
 508 317 466 365 399 365 c 0
 332 365 274 317 261 246 c 0
 248 175 291 128 358 128 c 0
 425 128 482 175 495 246 c 0
459 697 m 1
 616 440 l 2
 652 384 676 322 663 246 c 0
 633 74 489 -16 332 -16 c 0
 175 -16 63 74 93 246 c 0
 118 388 246 474 350 474 c 0
 400 474 428 465 460 429 c 1
 426 444 l 1
 245 697 l 1
 459 697 l 1
228 520 m 1
 241 598 l 1
 679 598 l 1
 666 520 l 1
 228 520 l 1
EndSplineSet
EndChar

StartChar: racute
Encoding: 341 341 303
Width: 411
VWidth: 0
Flags: HW
LayerCount: 2
Fore
SplineSet
289 460 m 1
 208 0 l 1
 60 0 l 1
 141 460 l 1
 289 460 l 1
394 303 m 1
 381 319 366 330 340 330 c 0
 296 330 260 293 248 227 c 1
 221 280 l 1
 240 389 329 471 407 471 c 0
 440 471 471 456 483 433 c 1
 394 303 l 1
514 681 m 1
 308 531 l 1
 230 574 l 1
 408 734 l 1
 514 681 l 1
EndSplineSet
EndChar

StartChar: rcaron
Encoding: 345 345 304
Width: 411
VWidth: 0
Flags: HW
LayerCount: 2
Fore
SplineSet
289 460 m 1
 208 0 l 1
 60 0 l 1
 141 460 l 1
 289 460 l 1
394 303 m 1
 381 319 366 330 340 330 c 0
 296 330 260 293 248 227 c 1
 221 280 l 1
 240 389 329 471 407 471 c 0
 440 471 471 456 483 433 c 1
 394 303 l 1
349 657 m 1
 455 742 l 1
 548 671 l 1
 327 531 l 1
 154 671 l 1
 273 742 l 1
 349 657 l 1
EndSplineSet
EndChar

StartChar: Rcaron
Encoding: 344 344 305
Width: 647
VWidth: 0
Flags: HW
LayerCount: 2
Fore
SplineSet
304 317 m 1
 481 317 l 1
 644 0 l 1
 445 0 l 1
 304 317 l 1
197 700 m 1
 366 700 l 1
 243 0 l 1
 74 0 l 1
 197 700 l 1
278 556 m 1
 303 700 l 1
 453 700 l 2
 631 700 709 607 685 471 c 0
 661 335 551 242 373 242 c 2
 223 242 l 1
 246 374 l 1
 383 374 l 2
 451 374 498 407 508 465 c 0
 518 523 483 556 415 556 c 2
 278 556 l 1
472 902 m 1
 578 988 l 1
 672 916 l 1
 450 776 l 1
 278 916 l 1
 396 988 l 1
 472 902 l 1
EndSplineSet
EndChar

StartChar: uni0213
Encoding: 531 531 306
Width: 411
VWidth: 0
Flags: HW
LayerCount: 2
Fore
SplineSet
289 460 m 1
 208 0 l 1
 60 0 l 1
 141 460 l 1
 289 460 l 1
394 303 m 1
 381 319 366 330 340 330 c 0
 296 330 260 293 248 227 c 1
 221 280 l 1
 240 389 329 471 407 471 c 0
 440 471 471 456 483 433 c 1
 394 303 l 1
163 531 m 1
 262 531 l 1
 268 567 299 590 338 590 c 0
 377 590 398 567 392 531 c 1
 492 531 l 1
 506 613 459 678 354 678 c 0
 249 678 177 613 163 531 c 1
EndSplineSet
EndChar

StartChar: uni0212
Encoding: 530 530 307
Width: 647
VWidth: 0
Flags: HW
LayerCount: 2
Fore
SplineSet
304 317 m 1
 481 317 l 1
 644 0 l 1
 445 0 l 1
 304 317 l 1
197 700 m 1
 366 700 l 1
 243 0 l 1
 74 0 l 1
 197 700 l 1
278 556 m 1
 303 700 l 1
 453 700 l 2
 631 700 709 607 685 471 c 0
 661 335 551 242 373 242 c 2
 223 242 l 1
 246 374 l 1
 383 374 l 2
 451 374 498 407 508 465 c 0
 518 523 483 556 415 556 c 2
 278 556 l 1
299 776 m 1
 399 776 l 1
 405 812 435 836 474 836 c 0
 513 836 535 812 529 776 c 1
 628 776 l 1
 642 858 595 922 490 922 c 0
 385 922 313 858 299 776 c 1
EndSplineSet
EndChar

StartChar: OE
Encoding: 338 338 308
Width: 985
VWidth: 0
Flags: HW
LayerCount: 2
Fore
SplineSet
615 300 m 1
 639 436 l 1
 1007 436 l 1
 983 300 l 1
 615 300 l 1
602 670 m 1
 765 670 l 1
 652 30 l 1
 489 30 l 1
 602 670 l 1
975 140 m 1
 950 0 l 1
 390 0 l 2
 187 0 59 141 96 350 c 0
 133 559 309 700 513 700 c 2
 1073 700 l 1
 1049 560 l 1
 667 560 l 1
 648 551 l 1
 518 551 l 2
 379 551 295 482 272 350 c 0
 249 218 309 149 447 149 c 2
 574 149 l 1
 597 140 l 1
 975 140 l 1
EndSplineSet
EndChar

StartChar: oe
Encoding: 339 339 309
Width: 900
VWidth: 0
Flags: HW
LayerCount: 2
Fore
SplineSet
749 250 m 2
 762 324 741 369 682 369 c 0
 627 369 575 334 562 260 c 1
 555 230 l 1
 540 143 571 96 636 96 c 0
 690 96 727 121 760 159 c 1
 888 126 l 1
 835 50 739 -10 640 -10 c 0
 515 -10 446 91 471 230 c 0
 474 247 477 263 483 279 c 0
 522 392 622 470 741 470 c 0
 851 470 932 379 906 234 c 0
 905 226 900 206 898 198 c 1
 746 230 l 1
 749 250 l 2
516 198 m 1
 531 281 l 1
 894 281 l 1
 898 198 l 1
 516 198 l 1
76 230 m 0
 102 379 221 470 346 470 c 0
 471 470 533 379 507 230 c 0
 481 81 386 -10 261 -10 c 0
 136 -10 50 81 76 230 c 0
226 230 m 0
 213 155 252 115 312 115 c 0
 370 115 419 155 432 230 c 0
 445 305 411 345 353 345 c 0
 293 345 239 305 226 230 c 0
EndSplineSet
EndChar

StartChar: a.alt
Encoding: 65536 -1 310
Width: 616
VWidth: 0
Flags: HW
LayerCount: 2
Fore
SplineSet
491 460 m 1
 641 460 l 1
 560 0 l 1
 410 0 l 1
 491 460 l 1
73 230 m 0
 102 392 222 476 334 476 c 0
 456 476 511 379 485 230 c 0
 459 81 369 -16 247 -16 c 0
 135 -16 44 68 73 230 c 0
232 230 m 0
 219 158 262 118 322 118 c 0
 373 118 436 155 449 230 c 0
 462 305 412 342 361 342 c 0
 301 342 245 302 232 230 c 0
EndSplineSet
EndChar

StartChar: Jcircumflex
Encoding: 308 308 312
Width: 330
VWidth: 0
Flags: HW
LayerCount: 2
Fore
SplineSet
-83 -64 m 1
 -66 -82 -38 -96 -8 -96 c 0
 22 -96 60 -76 71 -16 c 2
 197 700 l 1
 380 700 l 1
 247 -54 l 2
 223 -188 109 -239 -16 -239 c 0
 -94 -239 -161 -208 -196 -182 c 1
 -83 -64 l 1
317 862 m 1
 211 776 l 1
 118 848 l 1
 339 988 l 1
 512 848 l 1
 393 776 l 1
 317 862 l 1
EndSplineSet
EndChar

StartChar: jcircumflex
Encoding: 309 309 313
Width: 271
VWidth: 0
Flags: HW
LayerCount: 2
Fore
SplineSet
-48 -77 m 1
 -37 -95 -23 -102 -5 -102 c 0
 25 -102 47 -81 55 -34 c 2
 142 460 l 1
 288 460 l 1
 194 -72 l 2
 176 -174 107 -239 -8 -239 c 0
 -76 -239 -109 -208 -127 -188 c 1
 -48 -77 l 1
243 616 m 1
 135 530 l 1
 42 602 l 1
 265 742 l 1
 437 602 l 1
 318 530 l 1
 243 616 l 1
EndSplineSet
EndChar

StartChar: Nacute
Encoding: 323 323 314
Width: 793
VWidth: 0
Flags: HW
LayerCount: 2
Fore
SplineSet
170 524 m 1
 204 735 l 1
 746 176 l 1
 714 -35 l 1
 170 524 l 1
680 700 m 1
 843 700 l 1
 714 -35 l 1
 583 150 l 1
 680 700 l 1
204 735 m 1
 334 550 l 1
 237 0 l 1
 74 0 l 1
 204 735 l 1
697 915 m 1
 491 765 l 1
 412 808 l 1
 591 968 l 1
 697 915 l 1
EndSplineSet
EndChar

StartChar: nacute
Encoding: 324 324 315
Width: 575
VWidth: 0
Flags: HW
LayerCount: 2
Fore
SplineSet
293 460 m 1
 212 0 l 1
 60 0 l 1
 141 460 l 1
 293 460 l 1
407 280 m 2
 417 334 405 364 355 364 c 0
 307 364 271 334 261 280 c 1
 230 274 l 1
 249 383 321 470 435 470 c 0
 549 470 588 408 568 296 c 2
 516 0 l 1
 358 0 l 1
 407 280 l 2
568 680 m 1
 361 530 l 1
 284 573 l 1
 462 733 l 1
 568 680 l 1
EndSplineSet
EndChar

StartChar: uni0145
Encoding: 325 325 316
Width: 793
VWidth: 0
Flags: HW
LayerCount: 2
Fore
SplineSet
170 524 m 1
 204 735 l 1
 746 176 l 1
 714 -35 l 1
 170 524 l 1
680 700 m 1
 843 700 l 1
 714 -35 l 1
 583 150 l 1
 680 700 l 1
204 735 m 1
 334 550 l 1
 237 0 l 1
 74 0 l 1
 204 735 l 1
354 -54 m 1
 499 -86 l 1
 331 -336 l 1
 221 -313 l 1
 354 -54 l 1
EndSplineSet
EndChar

StartChar: uni0146
Encoding: 326 326 317
Width: 575
VWidth: 0
Flags: HW
LayerCount: 2
Fore
SplineSet
293 460 m 1
 212 0 l 1
 60 0 l 1
 141 460 l 1
 293 460 l 1
407 280 m 2
 417 334 405 364 355 364 c 0
 307 364 271 334 261 280 c 1
 230 274 l 1
 249 383 321 470 435 470 c 0
 549 470 588 408 568 296 c 2
 516 0 l 1
 358 0 l 1
 407 280 l 2
245 -60 m 1
 391 -92 l 1
 222 -342 l 1
 112 -319 l 1
 245 -60 l 1
EndSplineSet
EndChar

StartChar: Ncaron
Encoding: 327 327 318
Width: 793
VWidth: 0
Flags: HW
LayerCount: 2
Fore
SplineSet
170 524 m 1
 204 735 l 1
 746 176 l 1
 714 -35 l 1
 170 524 l 1
680 700 m 1
 843 700 l 1
 714 -35 l 1
 583 150 l 1
 680 700 l 1
204 735 m 1
 334 550 l 1
 237 0 l 1
 74 0 l 1
 204 735 l 1
534 902 m 1
 640 988 l 1
 734 916 l 1
 512 776 l 1
 340 916 l 1
 458 988 l 1
 534 902 l 1
EndSplineSet
EndChar

StartChar: ncaron
Encoding: 328 328 319
Width: 575
VWidth: 0
Flags: HW
LayerCount: 2
Fore
SplineSet
293 460 m 1
 212 0 l 1
 60 0 l 1
 141 460 l 1
 293 460 l 1
407 280 m 2
 417 334 405 364 355 364 c 0
 307 364 271 334 261 280 c 1
 230 274 l 1
 249 383 321 470 435 470 c 0
 549 470 588 408 568 296 c 2
 516 0 l 1
 358 0 l 1
 407 280 l 2
403 656 m 1
 509 742 l 1
 602 670 l 1
 380 530 l 1
 208 670 l 1
 327 742 l 1
 403 656 l 1
EndSplineSet
EndChar

StartChar: Omacron
Encoding: 332 332 320
Width: 821
VWidth: 0
Flags: HW
LayerCount: 2
Fore
SplineSet
275 350 m 0
 253 226 317 140 435 140 c 0
 553 140 648 226 670 350 c 0
 692 474 631 560 509 560 c 0
 391 560 297 474 275 350 c 0
96 350 m 0
 134 566 322 716 536 716 c 0
 752 716 888 566 850 350 c 0
 812 134 626 -22 406 -22 c 0
 186 -22 58 134 96 350 c 0
362 776 m 1
 385 908 l 1
 756 908 l 1
 733 776 l 1
 362 776 l 1
EndSplineSet
EndChar

StartChar: omacron
Encoding: 333 333 321
Width: 589
VWidth: 0
Flags: HW
LayerCount: 2
Fore
SplineSet
73 230 m 0
 99 376 228 470 378 470 c 0
 528 470 625 376 599 230 c 0
 573 84 443 -10 293 -10 c 0
 143 -10 47 84 73 230 c 0
229 230 m 0
 216 159 256 115 315 115 c 0
 374 115 430 159 443 230 c 0
 456 301 415 346 356 346 c 0
 297 346 242 301 229 230 c 0
202 530 m 1
 226 662 l 1
 597 662 l 1
 573 530 l 1
 202 530 l 1
EndSplineSet
EndChar

StartChar: Obreve
Encoding: 334 334 322
Width: 821
VWidth: 0
Flags: HW
LayerCount: 2
Fore
SplineSet
275 350 m 0
 253 226 317 140 435 140 c 0
 553 140 648 226 670 350 c 0
 692 474 631 560 509 560 c 0
 391 560 297 474 275 350 c 0
96 350 m 0
 134 566 322 716 536 716 c 0
 752 716 888 566 850 350 c 0
 812 134 626 -22 406 -22 c 0
 186 -22 58 134 96 350 c 0
409 922 m 1
 509 922 l 1
 503 886 523 863 562 863 c 0
 601 863 633 886 639 922 c 1
 738 922 l 1
 724 840 652 776 547 776 c 0
 442 776 395 840 409 922 c 1
EndSplineSet
EndChar

StartChar: obreve
Encoding: 335 335 323
Width: 589
VWidth: 0
Flags: HW
LayerCount: 2
Fore
SplineSet
73 230 m 0
 99 376 228 470 378 470 c 0
 528 470 625 376 599 230 c 0
 573 84 443 -10 293 -10 c 0
 143 -10 47 84 73 230 c 0
229 230 m 0
 216 159 256 115 315 115 c 0
 374 115 430 159 443 230 c 0
 456 301 415 346 356 346 c 0
 297 346 242 301 229 230 c 0
249 677 m 1
 349 677 l 1
 343 641 365 618 404 618 c 0
 443 618 473 641 479 677 c 1
 578 677 l 1
 564 595 493 530 388 530 c 0
 283 530 235 595 249 677 c 1
EndSplineSet
EndChar

StartChar: Racute
Encoding: 340 340 324
Width: 647
VWidth: 0
Flags: HW
LayerCount: 2
Fore
SplineSet
304 317 m 1
 481 317 l 1
 644 0 l 1
 445 0 l 1
 304 317 l 1
197 700 m 1
 366 700 l 1
 243 0 l 1
 74 0 l 1
 197 700 l 1
278 556 m 1
 303 700 l 1
 453 700 l 2
 631 700 709 607 685 471 c 0
 661 335 551 242 373 242 c 2
 223 242 l 1
 246 374 l 1
 383 374 l 2
 451 374 498 407 508 465 c 0
 518 523 483 556 415 556 c 2
 278 556 l 1
633 926 m 1
 427 776 l 1
 348 819 l 1
 527 979 l 1
 633 926 l 1
EndSplineSet
EndChar

StartChar: uni0156
Encoding: 342 342 325
Width: 647
VWidth: 0
Flags: HW
LayerCount: 2
Fore
SplineSet
304 317 m 1
 481 317 l 1
 644 0 l 1
 445 0 l 1
 304 317 l 1
197 700 m 1
 366 700 l 1
 243 0 l 1
 74 0 l 1
 197 700 l 1
278 556 m 1
 303 700 l 1
 453 700 l 2
 631 700 709 607 685 471 c 0
 661 335 551 242 373 242 c 2
 223 242 l 1
 246 374 l 1
 383 374 l 2
 451 374 498 407 508 465 c 0
 518 523 483 556 415 556 c 2
 278 556 l 1
316 -60 m 1
 462 -92 l 1
 294 -342 l 1
 183 -319 l 1
 316 -60 l 1
EndSplineSet
EndChar

StartChar: uni0157
Encoding: 343 343 326
Width: 411
VWidth: 0
Flags: HW
LayerCount: 2
Fore
SplineSet
289 460 m 1
 208 0 l 1
 60 0 l 1
 141 460 l 1
 289 460 l 1
394 303 m 1
 381 319 366 330 340 330 c 0
 296 330 260 293 248 227 c 1
 221 280 l 1
 240 389 329 471 407 471 c 0
 440 471 471 456 483 433 c 1
 394 303 l 1
91 -60 m 1
 238 -92 l 1
 68 -342 l 1
 -42 -319 l 1
 91 -60 l 1
EndSplineSet
EndChar

StartChar: Scedilla
Encoding: 350 350 327
Width: 625
VWidth: 0
Flags: HW
LayerCount: 2
Fore
SplineSet
197 251 m 1
 230 167 271 125 345 125 c 0
 400 125 434 148 442 193 c 0
 452 252 391 270 317 302 c 0
 253 329 142 384 166 520 c 0
 187 638 302 716 447 716 c 0
 597 716 661 633 676 562 c 1
 536 489 l 1
 515 541 483 572 429 572 c 0
 380 572 345 550 339 514 c 0
 331 466 403 443 481 413 c 0
 573 379 642 316 621 196 c 0
 596 54 479 -22 315 -22 c 0
 187 -22 88 53 64 168 c 1
 197 251 l 1
302 61 m 1
 411 57 l 1
 280 -90 l 1
 180 -134 l 1
 302 61 l 1
415 -159 m 1
 320 -150 l 1
 325 -124 296 -118 265 -118 c 0
 255 -118 219 -119 180 -134 c 1
 252 -90 l 1
 283 -65 309 -61 341 -61 c 0
 381 -61 427 -93 415 -159 c 1
415 -159 m 1
 402 -231 328 -268 265 -268 c 0
 209 -268 170 -258 128 -228 c 1
 186 -160 l 1
 209 -178 239 -185 259 -185 c 0
 293 -185 316 -174 320 -150 c 1
 415 -159 l 1
EndSplineSet
EndChar

StartChar: scedilla
Encoding: 351 351 328
Width: 456
VWidth: 0
Flags: HW
LayerCount: 2
Fore
SplineSet
114 174 m 1
 171 114 220 98 252 98 c 0
 279 98 299 105 303 128 c 0
 309 162 243 173 193 197 c 0
 138 225 87 256 101 336 c 0
 117 424 209 470 308 470 c 0
 388 470 451 440 493 402 c 1
 422 304 l 1
 392 340 335 360 298 360 c 0
 266 360 250 352 246 332 c 0
 241 305 299 290 353 268 c 0
 414 243 469 210 455 130 c 0
 436 24 363 -20 251 -20 c 0
 153 -20 79 19 31 75 c 1
 114 174 l 1
226 70 m 1
 338 66 l 1
 206 -80 l 1
 106 -124 l 1
 226 70 l 1
341 -150 m 1
 245 -140 l 1
 250 -114 221 -108 190 -108 c 0
 180 -108 145 -109 106 -124 c 1
 178 -80 l 1
 209 -55 234 -52 266 -52 c 0
 306 -52 353 -84 341 -150 c 1
341 -150 m 1
 328 -222 254 -258 191 -258 c 0
 135 -258 95 -250 53 -220 c 1
 111 -150 l 1
 134 -168 165 -176 185 -176 c 0
 219 -176 241 -164 245 -140 c 1
 341 -150 l 1
EndSplineSet
EndChar

StartChar: Zcaron
Encoding: 381 381 329
Width: 620
VWidth: 0
Flags: HW
LayerCount: 2
Fore
SplineSet
154 548 m 1
 180 700 l 1
 729 700 l 1
 302 146 l 1
 596 146 l 1
 570 0 l 1
 8 0 l 1
 432 548 l 1
 154 548 l 1
490 902 m 1
 596 988 l 1
 691 916 l 1
 468 776 l 1
 296 916 l 1
 414 988 l 1
 490 902 l 1
EndSplineSet
EndChar

StartChar: zcaron
Encoding: 382 382 330
Width: 516
VWidth: 0
Flags: HW
LayerCount: 2
Fore
SplineSet
182 138 m 1
 499 138 l 1
 475 0 l 1
 15 0 l 1
 182 138 l 1
139 460 m 1
 589 460 l 1
 413 322 l 1
 115 322 l 1
 139 460 l 1
443 460 m 1
 589 460 l 1
 180 0 l 1
 15 0 l 1
 443 460 l 1
398 656 m 1
 505 741 l 1
 598 670 l 1
 375 530 l 1
 203 670 l 1
 323 741 l 1
 398 656 l 1
EndSplineSet
EndChar

StartChar: Ydieresis
Encoding: 376 376 331
Width: 660
VWidth: 0
Flags: HW
LayerCount: 2
Fore
SplineSet
307 360 m 1
 479 360 l 1
 416 0 l 1
 244 0 l 1
 307 360 l 1
589 700 m 1
 785 700 l 1
 354 138 l 1
 121 700 l 1
 317 700 l 1
 407 437 l 1
 589 700 l 1
523 868 m 0
 532 918 578 961 633 961 c 0
 688 961 721 918 712 868 c 0
 703 818 656 776 601 776 c 0
 546 776 514 818 523 868 c 0
255 868 m 0
 264 918 310 961 365 961 c 0
 420 961 452 918 443 868 c 0
 434 818 388 776 333 776 c 0
 278 776 246 818 255 868 c 0
EndSplineSet
EndChar

StartChar: Scaron
Encoding: 352 352 332
Width: 625
VWidth: 0
Flags: HW
LayerCount: 2
Fore
SplineSet
197 251 m 1
 230 167 271 125 345 125 c 0
 400 125 434 148 442 193 c 0
 452 252 391 270 317 302 c 0
 253 329 142 384 166 520 c 0
 187 638 302 716 447 716 c 0
 597 716 661 633 676 562 c 1
 536 489 l 1
 515 541 483 572 429 572 c 0
 380 572 345 550 339 514 c 0
 331 466 403 443 481 413 c 0
 573 379 642 316 621 196 c 0
 596 54 479 -22 315 -22 c 0
 187 -22 88 53 64 168 c 1
 197 251 l 1
480 902 m 1
 586 988 l 1
 680 916 l 1
 458 776 l 1
 286 916 l 1
 404 988 l 1
 480 902 l 1
EndSplineSet
EndChar

StartChar: scaron
Encoding: 353 353 333
Width: 456
VWidth: 0
Flags: HW
LayerCount: 2
Fore
SplineSet
114 174 m 1
 171 114 220 98 252 98 c 0
 279 98 299 105 303 128 c 0
 309 162 243 173 193 197 c 0
 138 225 87 256 101 336 c 0
 117 424 209 470 308 470 c 0
 388 470 451 440 493 402 c 1
 422 304 l 1
 392 340 335 360 298 360 c 0
 266 360 250 352 246 332 c 0
 241 305 299 290 353 268 c 0
 414 243 469 210 455 130 c 0
 436 24 363 -20 251 -20 c 0
 153 -20 79 19 31 75 c 1
 114 174 l 1
339 644 m 1
 445 730 l 1
 538 658 l 1
 316 518 l 1
 144 658 l 1
 263 730 l 1
 339 644 l 1
EndSplineSet
EndChar

StartChar: Lslash
Encoding: 321 321 334
Width: 528
VWidth: 0
Flags: HW
LayerCount: 2
Fore
SplineSet
163 128 m 1
 180 264 l 1
 513 328 l 1
 496 191 l 1
 163 128 l 1
169 438 m 1
 312 468 l 1
 351 30 l 1
 209 0 l 1
 169 438 l 1
111 444 m 1
 122 497 l 1
 369 416 l 1
 360 362 l 1
 111 444 l 1
EndSplineSet
EndChar

StartChar: lslash
Encoding: 322 322 335
Width: 270
VWidth: 0
Flags: HW
LayerCount: 2
Fore
SplineSet
141 615 m 1
 260 636 l 1
 278 204 l 1
 159 184 l 1
 141 615 l 1
102 474 m 1
 111 527 l 1
 325 397 l 1
 317 344 l 1
 102 474 l 1
EndSplineSet
EndChar

StartChar: uni0218
Encoding: 536 536 336
Width: 625
VWidth: 0
Flags: HW
LayerCount: 2
Fore
SplineSet
197 251 m 1
 230 167 271 125 345 125 c 0
 400 125 434 148 442 193 c 0
 452 252 391 270 317 302 c 0
 253 329 142 384 166 520 c 0
 187 638 302 716 447 716 c 0
 597 716 661 633 676 562 c 1
 536 489 l 1
 515 541 483 572 429 572 c 0
 380 572 345 550 339 514 c 0
 331 466 403 443 481 413 c 0
 573 379 642 316 621 196 c 0
 596 54 479 -22 315 -22 c 0
 187 -22 88 53 64 168 c 1
 197 251 l 1
250 -70 m 1
 396 -102 l 1
 226 -352 l 1
 116 -329 l 1
 250 -70 l 1
EndSplineSet
EndChar

StartChar: uni0219
Encoding: 537 537 337
Width: 456
VWidth: 0
Flags: HW
LayerCount: 2
Fore
SplineSet
114 174 m 1
 171 114 220 98 252 98 c 0
 279 98 299 105 303 128 c 0
 309 162 243 173 193 197 c 0
 138 225 87 256 101 336 c 0
 117 424 209 470 308 470 c 0
 388 470 451 440 493 402 c 1
 422 304 l 1
 392 340 335 360 298 360 c 0
 266 360 250 352 246 332 c 0
 241 305 299 290 353 268 c 0
 414 243 469 210 455 130 c 0
 436 24 363 -20 251 -20 c 0
 153 -20 79 19 31 75 c 1
 114 174 l 1
186 -67 m 1
 332 -100 l 1
 162 -350 l 1
 53 -326 l 1
 186 -67 l 1
EndSplineSet
EndChar

StartChar: pi
Encoding: 960 960 338
Width: 602
VWidth: 0
Flags: HW
LayerCount: 2
Fore
SplineSet
166 430 m 1
 308 430 l 1
 232 0 l 1
 90 0 l 1
 166 430 l 1
111 460 m 1
 643 460 l 1
 621 335 l 1
 89 335 l 1
 111 460 l 1
416 430 m 1
 558 430 l 1
 513 178 l 2
 501 112 525 108 555 108 c 1
 534 -9 l 1
 406 -9 339 -1 361 121 c 2
 416 430 l 1
EndSplineSet
EndChar

StartChar: trademark
Encoding: 8482 8482 339
Width: 746
VWidth: 0
Flags: HW
LayerCount: 2
Fore
SplineSet
140 624 m 1
 153 700 l 1
 430 700 l 1
 417 624 l 1
 320 624 l 1
 272 350 l 1
 188 350 l 1
 236 624 l 1
 140 624 l 1
707 593 m 1
 790 717 l 1
 782 350 l 1
 693 350 l 1
 707 593 l 1
491 717 m 1
 532 593 l 1
 460 350 l 1
 370 350 l 1
 491 717 l 1
790 717 m 1
 770 602 l 1
 581 382 l 1
 471 602 l 1
 491 717 l 1
 603 504 l 1
 790 717 l 1
EndSplineSet
EndChar

StartChar: uni2219
Encoding: 8729 8729 340
Width: 322
VWidth: 0
Flags: HW
LayerCount: 2
Fore
SplineSet
145 443 m 0
 154 493 201 536 256 536 c 0
 311 536 343 493 334 443 c 0
 325 393 278 350 223 350 c 0
 168 350 136 393 145 443 c 0
EndSplineSet
EndChar

StartChar: agrave.alt
Encoding: 65537 -1 341
Width: 616
VWidth: 0
Flags: HW
LayerCount: 2
Fore
SplineSet
491 460 m 1
 641 460 l 1
 560 0 l 1
 410 0 l 1
 491 460 l 1
73 230 m 0
 102 392 222 476 334 476 c 0
 456 476 511 379 485 230 c 0
 459 81 369 -16 247 -16 c 0
 135 -16 44 68 73 230 c 0
232 230 m 0
 219 158 262 118 322 118 c 0
 373 118 436 155 449 230 c 0
 462 305 412 342 361 342 c 0
 301 342 245 302 232 230 c 0
266 690 m 1
 391 742 l 1
 513 582 l 1
 419 540 l 1
 266 690 l 1
EndSplineSet
EndChar

StartChar: aacute.alt
Encoding: 65538 -1 342
Width: 616
VWidth: 0
Flags: HW
LayerCount: 2
Fore
SplineSet
491 460 m 1
 641 460 l 1
 560 0 l 1
 410 0 l 1
 491 460 l 1
73 230 m 0
 102 392 222 476 334 476 c 0
 456 476 511 379 485 230 c 0
 459 81 369 -16 247 -16 c 0
 135 -16 44 68 73 230 c 0
232 230 m 0
 219 158 262 118 322 118 c 0
 373 118 436 155 449 230 c 0
 462 305 412 342 361 342 c 0
 301 342 245 302 232 230 c 0
550 690 m 1
 343 540 l 1
 265 582 l 1
 443 742 l 1
 550 690 l 1
EndSplineSet
EndChar

StartChar: acircumflex.alt
Encoding: 65539 -1 343
Width: 616
VWidth: 0
Flags: HW
LayerCount: 2
Fore
SplineSet
491 460 m 1
 641 460 l 1
 560 0 l 1
 410 0 l 1
 491 460 l 1
73 230 m 0
 102 392 222 476 334 476 c 0
 456 476 511 379 485 230 c 0
 459 81 369 -16 247 -16 c 0
 135 -16 44 68 73 230 c 0
232 230 m 0
 219 158 262 118 322 118 c 0
 373 118 436 155 449 230 c 0
 462 305 412 342 361 342 c 0
 301 342 245 302 232 230 c 0
417 616 m 1
 309 530 l 1
 216 601 l 1
 439 741 l 1
 612 601 l 1
 493 530 l 1
 417 616 l 1
EndSplineSet
EndChar

StartChar: atilde.alt
Encoding: 65540 -1 344
Width: 616
VWidth: 0
Flags: HW
LayerCount: 2
Fore
SplineSet
491 460 m 1
 641 460 l 1
 560 0 l 1
 410 0 l 1
 491 460 l 1
73 230 m 0
 102 392 222 476 334 476 c 0
 456 476 511 379 485 230 c 0
 459 81 369 -16 247 -16 c 0
 135 -16 44 68 73 230 c 0
232 230 m 0
 219 158 262 118 322 118 c 0
 373 118 436 155 449 230 c 0
 462 305 412 342 361 342 c 0
 301 342 245 302 232 230 c 0
229 598 m 1
 248 647 302 692 366 692 c 0
 432 692 437 641 493 641 c 0
 519 641 542 662 568 694 c 1
 626 620 l 1
 603 583 538 534 476 534 c 0
 421 534 397 588 347 588 c 0
 309 588 294 551 291 536 c 1
 229 598 l 1
EndSplineSet
EndChar

StartChar: adieresis.alt
Encoding: 65541 -1 345
Width: 616
VWidth: 0
Flags: HW
LayerCount: 2
Fore
SplineSet
491 460 m 1
 641 460 l 1
 560 0 l 1
 410 0 l 1
 491 460 l 1
73 230 m 0
 102 392 222 476 334 476 c 0
 456 476 511 379 485 230 c 0
 459 81 369 -16 247 -16 c 0
 135 -16 44 68 73 230 c 0
232 230 m 0
 219 158 262 118 322 118 c 0
 373 118 436 155 449 230 c 0
 462 305 412 342 361 342 c 0
 301 342 245 302 232 230 c 0
459 628 m 0
 468 678 514 721 569 721 c 0
 624 721 657 678 648 628 c 0
 639 578 592 536 537 536 c 0
 482 536 450 578 459 628 c 0
215 628 m 0
 224 678 270 721 325 721 c 0
 380 721 413 678 404 628 c 0
 395 578 348 536 293 536 c 0
 238 536 206 578 215 628 c 0
EndSplineSet
EndChar

StartChar: aring.alt
Encoding: 65542 -1 346
Width: 616
VWidth: 0
Flags: HW
LayerCount: 2
Fore
SplineSet
491 460 m 1
 641 460 l 1
 560 0 l 1
 410 0 l 1
 491 460 l 1
73 230 m 0
 102 392 222 476 334 476 c 0
 456 476 511 379 485 230 c 0
 459 81 369 -16 247 -16 c 0
 135 -16 44 68 73 230 c 0
232 230 m 0
 219 158 262 118 322 118 c 0
 373 118 436 155 449 230 c 0
 462 305 412 342 361 342 c 0
 301 342 245 302 232 230 c 0
321 628 m 0
 333 697 396 744 466 744 c 0
 536 744 583 697 571 628 c 0
 559 559 495 512 425 512 c 0
 355 512 309 559 321 628 c 0
400 628 m 0
 395 598 412 580 437 580 c 0
 462 580 488 598 493 628 c 0
 498 658 479 676 454 676 c 0
 429 676 405 658 400 628 c 0
EndSplineSet
EndChar

StartChar: amacron.alt
Encoding: 65543 -1 347
Width: 616
VWidth: 0
Flags: HW
LayerCount: 2
Fore
SplineSet
491 460 m 1
 641 460 l 1
 560 0 l 1
 410 0 l 1
 491 460 l 1
73 230 m 0
 102 392 222 476 334 476 c 0
 456 476 511 379 485 230 c 0
 459 81 369 -16 247 -16 c 0
 135 -16 44 68 73 230 c 0
232 230 m 0
 219 158 262 118 322 118 c 0
 373 118 436 155 449 230 c 0
 462 305 412 342 361 342 c 0
 301 342 245 302 232 230 c 0
217 533 m 1
 240 664 l 1
 612 664 l 1
 589 533 l 1
 217 533 l 1
EndSplineSet
EndChar

StartChar: abreve.alt
Encoding: 65544 -1 348
Width: 616
VWidth: 0
Flags: HW
LayerCount: 2
Fore
SplineSet
491 460 m 1
 641 460 l 1
 560 0 l 1
 410 0 l 1
 491 460 l 1
73 230 m 0
 102 392 222 476 334 476 c 0
 456 476 511 379 485 230 c 0
 459 81 369 -16 247 -16 c 0
 135 -16 44 68 73 230 c 0
232 230 m 0
 219 158 262 118 322 118 c 0
 373 118 436 155 449 230 c 0
 462 305 412 342 361 342 c 0
 301 342 245 302 232 230 c 0
257 689 m 1
 357 689 l 1
 351 653 372 630 411 630 c 0
 450 630 481 653 487 689 c 1
 585 689 l 1
 571 607 501 542 396 542 c 0
 291 542 243 607 257 689 c 1
EndSplineSet
EndChar

StartChar: aogonek.alt
Encoding: 65545 -1 349
Width: 616
VWidth: 0
Flags: HW
LayerCount: 2
Fore
SplineSet
491 460 m 1
 641 460 l 1
 560 0 l 1
 410 0 l 1
 491 460 l 1
73 230 m 0
 102 392 222 476 334 476 c 0
 456 476 511 379 485 230 c 0
 459 81 369 -16 247 -16 c 0
 135 -16 44 68 73 230 c 0
232 230 m 0
 219 158 262 118 322 118 c 0
 373 118 436 155 449 230 c 0
 462 305 412 342 361 342 c 0
 301 342 245 302 232 230 c 0
516 -111 m 1
 537 -180 l 1
 518 -200 486 -220 430 -220 c 0
 365 -220 319 -186 331 -120 c 1
 433 -94 l 1
 429 -119 439 -131 463 -131 c 0
 483 -131 500 -124 516 -111 c 1
433 -94 m 1
 331 -120 l 1
 343 -54 418 -11 494 25 c 1
 531 0 l 1
 474 -28 438 -64 433 -94 c 1
EndSplineSet
EndChar

StartChar: dagger
Encoding: 8224 8224 350
Width: 632
VWidth: 0
Flags: HW
LayerCount: 2
Fore
SplineSet
185 540 m 1
 637 540 l 1
 615 415 l 1
 163 415 l 1
 185 540 l 1
368 700 m 1
 511 700 l 1
 362 -150 l 1
 219 -150 l 1
 368 700 l 1
EndSplineSet
EndChar

StartChar: daggerdbl
Encoding: 8225 8225 351
Width: 632
VWidth: 0
Flags: HW
LayerCount: 2
Fore
SplineSet
118 158 m 1
 570 158 l 1
 548 32 l 1
 96 32 l 1
 118 158 l 1
185 540 m 1
 637 540 l 1
 615 415 l 1
 163 415 l 1
 185 540 l 1
368 700 m 1
 511 700 l 1
 362 -150 l 1
 219 -150 l 1
 368 700 l 1
EndSplineSet
EndChar

StartChar: ellipsis
Encoding: 8230 8230 352
Width: 925
VWidth: 0
Flags: HW
LayerCount: 2
Fore
SplineSet
79 68 m 0
 88 118 134 160 189 160 c 0
 244 160 277 118 268 68 c 0
 259 18 212 -24 157 -24 c 0
 102 -24 70 18 79 68 c 0
379 68 m 0
 388 118 434 160 489 160 c 0
 544 160 577 118 568 68 c 0
 559 18 512 -24 457 -24 c 0
 402 -24 370 18 379 68 c 0
679 68 m 0
 688 118 734 160 789 160 c 0
 844 160 877 118 868 68 c 0
 859 18 812 -24 757 -24 c 0
 702 -24 670 18 679 68 c 0
EndSplineSet
EndChar

StartChar: uniFF10
Encoding: 65296 65296 353
Width: 630
VWidth: 0
Flags: HW
LayerCount: 2
Fore
SplineSet
248 350 m 0
 225 218 260 132 337 132 c 0
 414 132 481 218 504 350 c 0
 527 482 491 568 414 568 c 0
 337 568 271 482 248 350 c 0
85 350 m 0
 125 578 267 713 440 713 c 0
 619 713 708 578 668 350 c 0
 628 122 491 -13 312 -13 c 0
 139 -13 45 122 85 350 c 0
EndSplineSet
EndChar

StartChar: uniFF11
Encoding: 65297 65297 354
Width: 630
VWidth: 0
Flags: HW
LayerCount: 2
Fore
SplineSet
196 498 m 1
 222 645 l 1
 572 713 l 1
 446 0 l 1
 282 0 l 1
 377 540 l 1
 196 498 l 1
EndSplineSet
EndChar

StartChar: uniFF12
Encoding: 65298 65298 355
Width: 630
VWidth: 0
Flags: HW
LayerCount: 2
Fore
SplineSet
13 0 m 1
 382 323 l 2
 449 383 490 424 500 480 c 0
 508 524 486 568 422 568 c 0
 357 568 303 516 290 441 c 1
 124 441 l 1
 150 590 271 714 453 714 c 0
 627 714 695 598 676 488 c 0
 663 413 611 352 542 300 c 2
 353 155 l 1
 634 155 l 1
 607 0 l 1
 13 0 l 1
EndSplineSet
EndChar

StartChar: uniFF13
Encoding: 65299 65299 356
Width: 630
VWidth: 0
Flags: HW
LayerCount: 2
Fore
SplineSet
333 338 m 1
 346 415 l 1
 424 415 483 458 492 508 c 0
 499 549 478 578 425 578 c 0
 373 578 327 543 319 495 c 1
 163 495 l 1
 185 619 300 713 450 713 c 0
 608 713 681 627 662 519 c 0
 641 398 499 338 333 338 c 1
313 -16 m 0
 143 -16 63 98 85 222 c 1
 252 222 l 1
 240 153 285 120 343 120 c 0
 401 120 448 148 459 208 c 0
 469 266 429 306 327 306 c 1
 342 392 l 1
 527 392 649 334 624 192 c 0
 602 70 485 -16 313 -16 c 0
EndSplineSet
EndChar

StartChar: uniFF14
Encoding: 65300 65300 357
Width: 630
VWidth: 0
Flags: HW
LayerCount: 2
Fore
SplineSet
34 124 m 1
 193 246 l 1
 471 246 l 0
 493 268 l 0
 657 268 l 1
 632 124 l 1
 34 124 l 1
201 174 m 1
 34 124 l 1
 510 700 l 25
 636 700 l 1
 513 0 l 1
 337 0 l 1
 365 160 l 0
 386 172 l 0
 436 454 l 1
 201 174 l 1
EndSplineSet
EndChar

StartChar: uniFF15
Encoding: 65301 65301 358
Width: 630
VWidth: 0
Flags: HW
LayerCount: 2
Fore
SplineSet
630 224 m 0
 601 58 441 -13 306 -13 c 0
 177 -13 98 29 42 78 c 1
 132 217 l 1
 180 169 243 142 295 142 c 0
 379 142 437 174 449 242 c 0
 461 310 398 340 330 340 c 0
 276 340 203 332 126 296 c 1
 259 380 l 1
 321 436 386 453 458 453 c 0
 568 453 656 370 630 224 c 0
394 553 m 1
 305 380 l 1
 126 296 l 1
 294 700 l 1
 699 700 l 1
 674 553 l 1
 394 553 l 1
EndSplineSet
EndChar

StartChar: uniFF16
Encoding: 65302 65302 359
Width: 630
VWidth: 0
Flags: HW
LayerCount: 2
Fore
SplineSet
239 246 m 0
 226 175 270 128 337 128 c 0
 404 128 462 175 475 246 c 0
 488 317 445 365 378 365 c 0
 311 365 252 317 239 246 c 0
435 697 m 1
 650 697 l 1
 378 444 l 1
 342 429 l 1
 386 465 417 474 467 474 c 0
 571 474 667 388 642 246 c 0
 612 74 468 -16 311 -16 c 0
 154 -16 43 74 73 246 c 0
 86 322 133 384 189 440 c 2
 435 697 l 1
EndSplineSet
EndChar

StartChar: uniFF17
Encoding: 65303 65303 360
Width: 630
VWidth: 0
Flags: HW
LayerCount: 2
Fore
SplineSet
134 542 m 1
 161 700 l 1
 733 700 l 1
 272 0 l 1
 89 0 l 1
 457 542 l 1
 134 542 l 1
EndSplineSet
EndChar

StartChar: uniFF18
Encoding: 65304 65304 361
Width: 630
VWidth: 0
Flags: HW
LayerCount: 2
Fore
SplineSet
184 531 m 0
 205 649 325 716 454 716 c 0
 583 716 679 649 658 531 c 0
 635 403 503 342 388 342 c 0
 273 342 161 403 184 531 c 0
341 514 m 0
 333 467 361 435 405 435 c 0
 449 435 488 467 496 514 c 0
 504 561 479 594 433 594 c 0
 387 594 349 561 341 514 c 0
100 190 m 0
 126 338 283 396 398 396 c 0
 513 396 649 338 623 190 c 0
 600 62 463 -16 325 -16 c 0
 187 -16 77 62 100 190 c 0
272 216 m 0
 261 155 299 122 350 122 c 0
 401 122 447 155 458 216 c 0
 467 267 433 307 382 307 c 0
 331 307 281 267 272 216 c 0
EndSplineSet
EndChar

StartChar: uniFF19
Encoding: 65305 65305 362
Width: 630
VWidth: 0
Flags: HW
LayerCount: 2
Fore
SplineSet
512 454 m 0
 525 525 482 572 415 572 c 0
 348 572 289 525 276 454 c 0
 263 383 306 335 373 335 c 0
 440 335 499 383 512 454 c 0
317 3 m 1
 103 3 l 1
 373 256 l 1
 411 271 l 1
 367 235 336 226 286 226 c 0
 182 226 85 312 110 454 c 0
 140 626 283 716 440 716 c 0
 597 716 709 626 679 454 c 0
 666 378 620 316 564 260 c 2
 317 3 l 1
EndSplineSet
EndChar

StartChar: caron
Encoding: 711 711 363
Width: 480
VWidth: 0
Flags: HW
LayerCount: 2
Fore
SplineSet
359 676 m 1
 465 762 l 1
 560 690 l 1
 337 550 l 1
 164 690 l 1
 283 762 l 1
 359 676 l 1
EndSplineSet
EndChar

StartChar: napostrophe
Encoding: 329 329 364
Width: 747
VWidth: 0
Flags: HW
LayerCount: 2
Fore
SplineSet
465 460 m 1
 384 0 l 1
 232 0 l 1
 313 460 l 1
 465 460 l 1
579 280 m 2
 589 334 577 364 527 364 c 0
 479 364 443 334 433 280 c 1
 402 274 l 1
 421 383 493 470 607 470 c 0
 721 470 760 408 740 296 c 2
 688 0 l 1
 530 0 l 1
 579 280 l 2
234 700 m 1
 391 700 l 1
 244 445 l 1
 136 445 l 1
 234 700 l 1
EndSplineSet
EndChar

StartChar: IJ
Encoding: 306 306 365
Width: 624
VWidth: 0
Flags: HW
LayerCount: 2
Fore
SplineSet
211 -64 m 1
 228 -82 255 -96 285 -96 c 0
 315 -96 354 -76 365 -16 c 2
 491 700 l 1
 673 700 l 1
 540 -54 l 2
 516 -188 403 -239 278 -239 c 0
 200 -239 133 -208 98 -182 c 1
 211 -64 l 1
197 700 m 1
 369 700 l 1
 246 0 l 1
 74 0 l 1
 197 700 l 1
EndSplineSet
EndChar

StartChar: ij
Encoding: 307 307 366
Width: 545
VWidth: 0
Flags: HW
LayerCount: 2
Fore
SplineSet
429 632 m 0
 437 680 484 714 533 714 c 0
 582 714 614 680 606 632 c 0
 598 584 553 550 504 550 c 0
 455 550 421 584 429 632 c 0
226 -77 m 1
 237 -95 250 -102 268 -102 c 0
 298 -102 320 -81 328 -34 c 2
 415 460 l 1
 561 460 l 1
 467 -72 l 2
 449 -174 379 -239 264 -239 c 0
 196 -239 163 -208 145 -188 c 1
 226 -77 l 1
161 632 m 0
 169 680 215 714 264 714 c 0
 313 714 345 680 337 632 c 0
 329 584 284 550 235 550 c 0
 186 550 153 584 161 632 c 0
145 460 m 1
 292 460 l 1
 211 0 l 1
 64 0 l 1
 145 460 l 1
EndSplineSet
EndChar

StartChar: uni0237
Encoding: 567 567 367
Width: 271
VWidth: 0
Flags: HW
LayerCount: 2
Fore
SplineSet
-48 -77 m 1
 -37 -95 -23 -102 -5 -102 c 0
 25 -102 47 -81 55 -34 c 2
 142 460 l 1
 288 460 l 1
 194 -72 l 2
 176 -174 107 -239 -8 -239 c 0
 -76 -239 -109 -208 -127 -188 c 1
 -48 -77 l 1
EndSplineSet
EndChar

StartChar: Sacute
Encoding: 346 346 368
Width: 625
VWidth: 0
Flags: HW
LayerCount: 2
Fore
SplineSet
197 251 m 1
 230 167 271 125 345 125 c 0
 400 125 434 148 442 193 c 0
 452 252 391 270 317 302 c 0
 253 329 142 384 166 520 c 0
 187 638 302 716 447 716 c 0
 597 716 661 633 676 562 c 1
 536 489 l 1
 515 541 483 572 429 572 c 0
 380 572 345 550 339 514 c 0
 331 466 403 443 481 413 c 0
 573 379 642 316 621 196 c 0
 596 54 479 -22 315 -22 c 0
 187 -22 88 53 64 168 c 1
 197 251 l 1
664 926 m 1
 458 776 l 1
 380 819 l 1
 559 979 l 1
 664 926 l 1
EndSplineSet
EndChar

StartChar: sacute
Encoding: 347 347 369
Width: 456
VWidth: 0
Flags: HW
LayerCount: 2
Fore
SplineSet
114 174 m 1
 171 114 220 98 252 98 c 0
 279 98 299 105 303 128 c 0
 309 162 243 173 193 197 c 0
 138 225 87 256 101 336 c 0
 117 424 209 470 308 470 c 0
 388 470 451 440 493 402 c 1
 422 304 l 1
 392 340 335 360 298 360 c 0
 266 360 250 352 246 332 c 0
 241 305 299 290 353 268 c 0
 414 243 469 210 455 130 c 0
 436 24 363 -20 251 -20 c 0
 153 -20 79 19 31 75 c 1
 114 174 l 1
525 680 m 1
 318 530 l 1
 240 573 l 1
 418 733 l 1
 525 680 l 1
EndSplineSet
EndChar

StartChar: Scircumflex
Encoding: 348 348 370
Width: 625
VWidth: 0
Flags: HW
LayerCount: 2
Fore
SplineSet
197 251 m 1
 230 167 271 125 345 125 c 0
 400 125 434 148 442 193 c 0
 452 252 391 270 317 302 c 0
 253 329 142 384 166 520 c 0
 187 638 302 716 447 716 c 0
 597 716 661 633 676 562 c 1
 536 489 l 1
 515 541 483 572 429 572 c 0
 380 572 345 550 339 514 c 0
 331 466 403 443 481 413 c 0
 573 379 642 316 621 196 c 0
 596 54 479 -22 315 -22 c 0
 187 -22 88 53 64 168 c 1
 197 251 l 1
473 862 m 1
 367 776 l 1
 274 848 l 1
 495 988 l 1
 668 848 l 1
 549 776 l 1
 473 862 l 1
EndSplineSet
EndChar

StartChar: scircumflex
Encoding: 349 349 371
Width: 456
VWidth: 0
Flags: HW
LayerCount: 2
Fore
SplineSet
114 174 m 1
 171 114 220 98 252 98 c 0
 279 98 299 105 303 128 c 0
 309 162 243 173 193 197 c 0
 138 225 87 256 101 336 c 0
 117 424 209 470 308 470 c 0
 388 470 451 440 493 402 c 1
 422 304 l 1
 392 340 335 360 298 360 c 0
 266 360 250 352 246 332 c 0
 241 305 299 290 353 268 c 0
 414 243 469 210 455 130 c 0
 436 24 363 -20 251 -20 c 0
 153 -20 79 19 31 75 c 1
 114 174 l 1
347 616 m 1
 239 530 l 1
 146 602 l 1
 369 742 l 1
 541 602 l 1
 421 530 l 1
 347 616 l 1
EndSplineSet
EndChar
